<svg xmlns="http://www.w3.org/2000/svg" viewBox="0 0 48 48">
  <g>
    <rect x="1" y="7" width="46" height="34" rx="3" ry="3" fill="#1a1876"/>
    <polygon points="19.238 28.8 21.847 28.8 23.48 19.224 20.87 19.224 19.238 28.8" fill="#fff"/>
    <path
      d="M28.743,23.069c-.912-.443-1.471-.739-1.465-1.187,0-.4.473-.824,1.5-.824a4.713,4.713,0,0,1,2.187.477l.354-2.075a6.745,6.745,0,0,0-2.34-.4c-2.579,0-4.4,1.3-4.411,3.16-.014,1.376,1.3,2.144,2.287,2.6,1.016.469,1.358.768,1.353,1.187-.007.642-.811.936-1.562.936a5.715,5.715,0,0,1-2.793-.655l-.366,2.143a8.244,8.244,0,0,0,2.907.511c2.744,0,4.525-1.284,4.545-3.271C30.944,24.581,30.249,23.752,28.743,23.069Z"
      fill="#fff"
    />
    <path d="M38.007,19.233H35.99a1.3,1.3,0,0,0-1.367.794L30.747,28.8h2.741s.448-1.18.549-1.439l3.343,0c.078.336.318,1.435.318,1.435H40.12Zm-3.218,6.173c.108-.277,1.173-3.012,1.386-3.591.352,1.65.009.049.78,3.591Z" fill="#fff"/>
    <path d="M17.049,19.231l-2.556,6.53-.272-1.327-.915-4.4a1.093,1.093,0,0,0-1.184-.809H7.913l-.033.2a10.964,10.964,0,0,1,2.742,1.051l2.32,8.317,2.762,0,4.109-9.558Z" fill="#fff"/>
  </g>
</svg>
