<svg xmlns="http://www.w3.org/2000/svg" viewBox="0 0 1100.1 732">
  <ellipse fill="#F7F8F9" cx="171.3" cy="717.9" rx="73.2" ry="14.1"/>
  <ellipse fill="#222528" cx="170" cy="711.9" rx="8.5" ry="11.2"/>
  <ellipse fill="#222528" cx="170" cy="698.3" rx="8.5" ry="11.2"/>
  <ellipse fill="#222528" cx="170" cy="684.6" rx="8.5" ry="11.2"/>
  <ellipse fill="#222528" cx="170" cy="671" rx="8.5" ry="11.2"/>
  <ellipse fill="#222528" cx="170" cy="657.4" rx="8.5" ry="11.2"/>
  <ellipse fill="#222528" cx="170" cy="643.7" rx="8.5" ry="11.2"/>
  <ellipse fill="#222528" cx="170" cy="630.1" rx="8.5" ry="11.2"/>
  <path fill="#69BFA3" d="M202 536.8a40.4 40.4 0 003.1-4.7l-22.4-3.7 24.2.2a40.9 40.9 0 00.8-32.4l-32.5 16.9 30-22a40.8 40.8 0 10-67.4 45.7 41.2 41.2 0 00-4.7 7.4l29.1 15.1-31-10.4a40.8 40.8 0 006.6 38.4 40.8 40.8 0 1064.2 0 40.8 40.8 0 000-50.5z"/>
  <path d="M129 562a40.7 40.7 0 008.8 25.2 40.8 40.8 0 1064.2 0c5.4-6.9-73-29.8-73-25.2z" opacity=".1"/>
  <path fill="#222528" d="M526 548c.6 8 3.7 16.3 10.1 21s16.8 4.6 21.8-1.7a24.3 24.3 0 003.6-7.9c4.2-13.2 7.1-27.6 2.5-40.6-10.3-.7-22.2-5.5-30 3-6.2 7-8.8 17-8 26.2z"/>
  <path fill="#FABEBE" d="M573.8 467.4c-1.4 11.6-3.7 23.2-3.5 34.9.1 4.5.6 9 .6 13.5a66.7 66.7 0 01-9 33.6 11.3 11.3 0 01-2.4 3.2c-2.4 1.9-6 1.7-8.6.3a17 17 0 01-6.1-6.7c-7.5-12.7-7.7-28.2-10.7-42.7-2.2-11-6.2-21.8-7.6-33-1-7.2-.8-14.6-2.3-21.7-.4-2.1-1.7-5.4-2.5-8.5-.8-2.9-1.2-5.7-.4-7.6 1.6-3.9 6.8-2.3 10.2-2.1a234.6 234.6 0 0035.8-.1c1.2 0 2.6-.1 3.4.7a4.1 4.1 0 01.8 1.5 48.5 48.5 0 012.2 8c1.6 8.7 1.1 17.8.1 26.7z"/>
  <g opacity=".1">
    <path d="M569.2 430.5a8.8 8.8 0 00-1.8 0c-5.8.5-11.5.7-17.2.7q9.5 0 19-.7zM552.9 552.9a17 17 0 01-6.1-6.7c-7.5-12.7-7.7-28.2-10.6-42.7-2.3-11-6.2-21.8-7.7-33-1-7.2-.8-14.6-2.2-21.7-.5-2.1-1.8-5.4-2.6-8.5-.7-2.9-1.2-5.7-.4-7.6a4.3 4.3 0 014-2.6c-2.5-.1-5 .2-6 2.6-.8 2-.3 4.7.4 7.6.8 3.1 2.1 6.4 2.6 8.5 1.4 7.1 1.3 14.5 2.2 21.7 1.5 11.2 5.4 22 7.7 33 3 14.5 3.1 30 10.6 42.7a17 17 0 006 6.7 8.9 8.9 0 005.3 1 9.2 9.2 0 01-3.2-1z"/>
  </g>
  <path fill="#FABEBE" d="M611.6 528.7c-6 12-5 29-5 29 1 40-15 124-15 124h-14s-2-93 0-101-1-36-4-75c-2.2-29 3.9-55.3 7.1-66.8 1.1-4 2-6.2 2-6.2s23-34 36-18c3 3.7 4.5 11.2 5 20.7 1.8 31.3-7.5 84-12 93.3z"/>
  <path d="M623.8 435.4c-.6-9.5-2.2-17-5.2-20.7a10.3 10.3 0 00-9.8-4.2 10.7 10.7 0 016.8 4.2c3 3.7 4.6 11.2 5.2 20.7 1.7 31.3-7.6 84-12.2 93.3-6 12-5 29-5 29 1 40-15 124-15 124h3s16-84 15-124c0 0-1-17 5-29 4.6-9.2 14-62 12.2-93.3z" opacity=".1"/>
  <path fill="#222528" d="M570.3 678a13 13 0 00-2.8 3.2c-1.8 3.3.7 7.4 3.4 10s6 5.6 6 9.5c0 3-2.3 5.7-4.9 7.3-1.4 1-3.2 2-2.9 3.7a3.4 3.4 0 00.6 1.2c2.2 3.4 6.2 5.4 10.2 6.2s8.2.4 12.3 0a2.5 2.5 0 001.6-.5 2.3 2.3 0 00.5-1.4c.2-2.1 0-4.4 1-6.3 1.3-2.6 4.3-4 6-6.3 2.4-3.2 2-7.6 1.1-11.5-2-8.5-6.4-18.1-13-24-7.8-6.7-13.9 4-19 9zM600.6 174c5.6-8.3 4.2-20-1.5-28.3s-14.9-13.5-24.3-16.9a68.4 68.4 0 00-40-2.7c-10.3 2.7-19.7 8.4-29.5 12.8a127.3 127.3 0 01-55.3 11c-21.1-.6-44.2-6-62 5.5-32.4 21.1-18 78.5-48.6 102-8.3 6.4-18.7 9.1-27.9 14s-18 13.4-17.7 23.8c.1 5 2.3 9.8 5 14 11.5 18.3 33 29.5 54.5 29.3s42.6-11.6 55-29.2c3-4.5 5.8-9.4 10.3-12.3 9-5.9 20.9-1.8 31.6-.9 24 2 47.9-16 52.6-39.5 2-10 1.7-22.1 9.8-28.4 6.5-5.1 15.7-4 24-4.9a49 49 0 0035.3-23.3c3.8-5.7 4.2-12.4 9.3-16.9 5.6-4.8 14.1-1.2 19.4-9.1z"/>
  <g opacity=".1">
    <path d="M430 151.8a126.8 126.8 0 0026.2-2H449c-16.6-.5-34.4-3.9-49.8.2 10.2.2 20.7 1.5 30.8 1.8zM398.6 299c-4.5 3-7.2 7.8-10.3 12.3a70.3 70.3 0 01-39.5 27.2h3.5a69.4 69.4 0 0055-29.3c3-4.4 5.8-9.3 10.3-12.2l.8-.5c-7-1-14-1.3-19.8 2.5zM598 145.7a48.6 48.6 0 00-24.3-17 68.4 68.4 0 00-39.8-2.6l-1 .2a76.5 76.5 0 0121.9 4.5c9.4 3.3 18.6 8.6 24.3 16.9s7.1 20 1.5 28.3c-5.3 7.9-13.8 4.3-19.5 9.1-5 4.5-5.5 11.2-9.3 16.9-7 10.5-17 19-29.2 22.2 4.2-.5 8.7-.5 12.9-.9a49 49 0 0035.3-23.3c3.8-5.7 4.2-12.4 9.3-16.9 5.7-4.8 14.2-1.2 19.5-9.1 5.6-8.4 4.2-20-1.5-28.3zM516.5 225.3c-8.2.9-17.4-.2-24 4.9-8 6.3-7.7 18.3-9.7 28.3A51.3 51.3 0 01448 296l1.1.1c24 2 47.9-16 52.6-39.5 2-10.1 1.7-22.1 9.8-28.4a18 18 0 016.2-3l-1.3.1z"/>
  </g>
  <path fill="#FABEBE" d="M758.1 138.2s-24 48-32 66-81 45-91 46a12.9 12.9 0 00-7.1 3.4c-5.7 5-8.9 13.6-8.9 13.6s4 27-1 72c0 .9-.2 1.7-.3 2.6-4.3 42.8 4.8 52.9 4.8 52.9s-97 37-94-11c1-15.1.8-26.2-.1-35.4a148.6 148.6 0 00-5.8-27.9c-2.3-8.2-5.2-17.3-8-29.7a130.5 130.5 0 00-5.6-18.2l-.2-.5c-5-12.4-10-16.4-12.9-17.7a43.2 43.2 0 01-7.7-4.3 404 404 0 01-46.7-39.3c-24-24-48-81-48-81s-7-33 9-60 9 53 9 53 29 39 36 57a30 30 0 0014 16.5 166 166 0 0122.1 13.8 129.3 129.3 0 0015 9.7c11.1 6 24.5 12.8 35.6 14.6a33.7 33.7 0 005.3.4 5.5 5.5 0 004.4-2c3-3.5 3-11.1 2.3-17.4a88.3 88.3 0 00-1.7-9.6s32.5-20.5 31.5 4.5a28 28 0 00.8 8.2 14.3 14.3 0 009.7 10.6 24 24 0 0012 .4 11.7 11.7 0 003.5-1.2c3-2 33-11 42-12s54-23 54-23l49-68s-1-40 19-56-8 69-8 69z"/>
  <g opacity=".1">
    <path d="M617.8 335.8a199.4 199.4 0 00-1.1 24.2 222 222 0 011.4-20.8 392.1 392.1 0 002.5-46.4 401.7 401.7 0 01-2.5 40.4c0 .9-.2 1.7-.3 2.6zM545.7 205l-1 .7a85.7 85.7 0 011.9 13 61.3 61.3 0 00-1-13.6zM412 117.3c.6-7 1.3-19.6 1.1-30.7-.1 14.9-1.5 30-1.5 30zM528.7 382.5v1.2c-3 48 94 11 94 11a16.3 16.3 0 01-2.6-5c-14.6 5.1-88 29.3-91.4-7.2zM758.1 132.2s-24 48-32 66-81 45-91 46a12.9 12.9 0 00-7.1 3.4c-5.7 5-8.9 13.6-8.9 13.6l.5 4.7c1.2-2.5 4-8.4 8.4-12.3a12.9 12.9 0 017.1-3.4c10-1 83-28 91-46s32-66 32-66 17-51.4 15-66.7c-1.5 19.7-15 60.7-15 60.7zM528.5 342.3a148.6 148.6 0 00-5.7-27.9c-2.4-8.2-5.2-17.3-8.2-29.7a130.5 130.5 0 00-5.5-18.2l-.2-.5c-5-12.4-10-16.4-12.9-17.7a43.2 43.2 0 01-7.7-4.3 404 404 0 01-46.7-39.3c-24-24-48-81-48-81A90.4 90.4 0 01392 109a96.4 96.4 0 001.5 20.6s24 57 48 81a404 404 0 0046.7 39.3 43.2 43.2 0 007.8 4.3c2.8 1.3 7.8 5.3 12.8 17.7l.2.5a130.5 130.5 0 015.6 18.2c2.9 12.4 5.7 21.5 8 29.8a148.6 148.6 0 015.8 27.8c.4 4.2.7 8.7.8 13.9a174.2 174.2 0 00-.8-19.9z"/>
  </g>
  <path fill="#32B6EF" d="M627.5 298.9a59.6 59.6 0 00-4 7.9c-1.5 4.1-1.5 8.7-1.8 13.2a106.1 106.1 0 01-2.8 18.5 20.5 20.5 0 01-1 3.3 8.7 8.7 0 01-1.2 2 8.5 8.5 0 01-1.8 1.7 21.8 21.8 0 01-3.4 1.8c-14 6.5-29.1 12.2-44.3 10a64.5 64.5 0 01-18.4-6.2c-5.5-2.7-11.8-5.8-17.5-3.6a8.8 8.8 0 01-2.8.9 2.6 2.6 0 01-.5 0c-1.9-.4-1.9-6.8-2.3-8.7-1.7-7.1-2-13-2.9-19.2a63.1 63.1 0 00-2.4-10.2 120 120 0 01-5.2-37.7c0-.6-4.5 0-6 0-.4 0-.6 0-.5-.2a2 2 0 01.3-.3 4.6 4.6 0 011.8-1l1.2-.3c6.1-1.7 13-2.5 17.6-6.8 4.8-4.5 6-11.7 5.8-18.2-.1-2.1-1.1-7.3-1-11.5a33.7 33.7 0 005.3.4 5.5 5.5 0 004.4-2 79 79 0 014.3 10c1.7 4.2 3 8.6 5.5 12.4 4 6.2 11.4 10.2 18.7 9.6s14.2-6.3 15.5-13.5c1.2-6.4-1.5-15.5-1.4-22.1a24 24 0 0012 .4 10.8 10.8 0 01.4 1.2c2.2 7.8 5.2 16.6 12.8 19.4 4.9 1.7 10.6.4 15.2 3a9.7 9.7 0 011 .6 11 11 0 012.6 2.8 22.6 22.6 0 013.2 10.1 56 56 0 01-6.4 32.3z"/>
  <path d="M576.9 218.4a34 34 0 01-30.6-3 88.3 88.3 0 00-1.7-9.7s32.5-20.5 31.5 4.5a28 28 0 00.8 8.2z" opacity=".1"/>
  <circle fill="#FABEBE" cx="564.6" cy="184.7" r="34"/>
  <path fill="#F86D70" d="M505.1 269.2s66-42 271 3 324 9 324 9v47s-230 25-318 0-213.3-39.4-257.1-.7z"/>
  <path d="M505.1 269.2s66-42 271 3 324 9 324 9v47s-230 25-318 0-213.3-39.4-257.1-.7z" opacity=".1"/>
  <path fill="#F86D70" d="M507.1 271.2s64-42 269 3 322 9 322 9l1 43s-228 25-316 0-212.3-42.4-256.1-3.7zM483 335.8s-66 42-271-3-195-9-195-9v-47s101-25 189 0 213.3 39.4 257.2.7z"/>
  <path d="M483 335.8s-66 42-271-3-195-9-195-9v-47s101-25 189 0 213.3 39.4 257.2.7z" opacity=".1"/>
  <path fill="#F86D70" d="M481 333.8s-64 42-269-3-193-9-193-9l-1-43s99-25 187 0 212.3 42.4 256.2 3.7z"/>
  <path fill="#222528" d="M535.4 190.3c-1-6.2-2.6-14 2.6-17.7a11.1 11.1 0 016.2-1.6c10.8 0 21.2 7.5 31.8 5.3a17.9 17.9 0 007-31.9 36 36 0 00-14.6-5.3c-13.4-2.7-27.4-5.5-40.6-2s-25.3 15.4-24.3 29a41 41 0 007.3 18c2.6 4.2 13 24 18 24.3 7 .4 7.3-14 6.6-18z"/>
  <path fill="#32B6EF" d="M619.6 377.7s-69 17-92 0c0 0-10 39-7 59 0 0 49 3 54 6 0 0 1-8 6-4 0 0 17-20 48-2 0 0 6-47-9-59z"/>
  <path d="M583 144.4a19.8 19.8 0 00-2.2-1.4 17.9 17.9 0 01-9.8 29.3c-10.6 2.2-21-5.4-31.8-5.3a11.1 11.1 0 00-6.2 1.6c-5.2 3.6-3.6 11.5-2.6 17.7.6 4.1.3 18.5-6.7 18.1 1.8 2.4 3.6 4 5 4 7 .4 7.3-14 6.7-18-1-6.3-2.6-14.2 2.6-17.8a11.1 11.1 0 016.2-1.6c10.8 0 21.2 7.5 31.8 5.3a17.9 17.9 0 007-31.9z" opacity=".1"/>
</svg>
