<svg xmlns="http://www.w3.org/2000/svg" xmlns:xlink="http://www.w3.org/1999/xlink" viewBox="0 0 1105 782.7">
  <ellipse fill="#F7F8F9" cx="367.4" cy="766.6" rx="97.4" ry="15.7"/>
  <ellipse fill="#F7F8F9" cx="897" cy="767.1" rx="121.6" ry="15.7"/>
  <ellipse fill="#F7F8F9" cx="132.7" cy="744.9" rx="97.4" ry="15.7"/>
  <path fill="#F7F8F9" d="M439.6 455.1l-2.2 9.2s-17.3-8.8-20.4-20 5.2-15.5 5.2-15.5l16.1 6.8z"/>
  <path d="M439.6 455.1l-2.2 9.2s-17.3-8.8-20.4-20 5.2-15.5 5.2-15.5l16.1 6.8z" opacity=".1"/>
  <path fill="#F7F8F9" d="M342.5 768.2s-16 5.9-27 6.6c-5.9.4-9-3.1-10.5-6.6a20.1 20.1 0 01-1.7-6l1.5-15.9.7-8.4 23.4-6.1 3.3 10.1.3.8c1.3 3.4 6.7 17.1 6.5 20a5.5 5.5 0 001.6 4 9.5 9.5 0 001.9 1.5zM451.8 760.2a4 4 0 01-.2 1.4s-34.2 5.7-41.2 0a18.5 18.5 0 00-14.4-4.2s-13.2.3-15.4-4c-1-1.9-.7-5.4-.2-9a84.6 84.6 0 012.4-9.6l.5-.4 3.1-2.6 37-1h.2c-.2 7.5 12.5 16.1 12.5 16.1 13.5 5 15.5 10.7 15.7 13.3z"/>
  <path d="M451.8 760.2a4 4 0 01-.2 1.4s-34.2 5.7-41.2 0a18.5 18.5 0 00-14.4-4.2s-13.2.3-15.4-4c-1-1.9-.7-5.4-.2-9 5.1.6 13.2 1.9 16.4 4.9a36.2 36.2 0 0017.8 9.6l37.2 1.3zM342.5 768.2s-16 5.9-27 6.6c-5.9.4-9-3.1-10.5-6.6 4 1.4 9.7 2.8 12.7 1.5 3.5-1.6 16-2.6 23-3a9.8 9.8 0 001.8 1.5z" opacity=".1"/>
  <path fill="#FABEBE" d="M366.2 294.4c-13.2-5.2-30.2-22.1-26-30a17.7 17.7 0 001.7-6.4 58 58 0 00.1-9 123.3 123.3 0 00-1.7-14.6s41.2.9 38.8 7c-.7 1.7-.8 4.8-.6 8.3a113.5 113.5 0 002.6 18.7s-2.5 3.5-4 3.7 8 29.6-10.9 22.3z"/>
  <path d="M332.5 742.7l-.3.3c-12.3-14.9-27.2 3.7-27.2 3.7l-.3-.4.8-8.4 23.4-6.1 3.3 10.1zM423.6 731.8s-9-.2-13.8 4-28 1-27 0a3.3 3.3 0 00.5-1.5l3.2-2.5 36.9-1.1.2 1z" opacity=".1"/>
  <path fill="#33618C" d="M347.8 614.8a27.8 27.8 0 00-1.5 5.1 58.7 58.7 0 00-.7 14.6c.4 7 0 53.9 0 53.9s-8 12.5-12.3 16.9 9 12.3 9 12.3c2 11.4-10.1 24.3-10.1 24.3-12.4-14.9-27.3 3.7-27.3 3.7s-8-14-10-19 7.8-8.5 11.3-10.5-.1-14-.1-14-3-10.5-6.5-20 3.9-57.3 3.9-57.3.3-8.4 1.3-11.4a19 19 0 00.2-6.5 44.4 44.4 0 00-.2-2.3v-.3l5-9.3s40.4 14 38 19.8zM423.6 730.7s-9-.2-13.8 4-28 1-27 0 1-7.7 1-7.7c-13.7-18.6-2-26.2-2-26.2s-6.1-29.2-7.2-40c-.8-7.6-1.8-28-2.3-39.6l-.3-8.5 11-2.2 1.5-.3 26.8-5.4 1.3 9.1a42.5 42.5 0 01.4 5.3c-.2 2 0 8.2 0 8.2l1 18.8a21.3 21.3 0 00-1 6l3.7 36.7s6 20.4 4 21.9 3 19.9 3 19.9z"/>
  <path d="M379 241.4c-.6 1.7-.7 4.8-.5 8.3a34.3 34.3 0 01-36.5-.7 123.3 123.3 0 00-1.7-14.6s41.2.9 38.8 7z" opacity=".1"/>
  <path fill="#FABEBE" d="M395 219.3a33.9 33.9 0 01-1.7 10.6 34.2 34.2 0 01-66.7-9.8v-.8a34.2 34.2 0 1168.4 0z"/>
  <path d="M366.2 294.4c-13.2-5.2-30.2-22.1-26-30a17.7 17.7 0 001.7-6.4l18 14.9 11.3 9.1 8.5-21.6 1.4 8s-2.5 3.5-4 3.7 8 29.6-10.9 22.3z" opacity=".1"/>
  <path fill="#33618C" d="M412.9 360l-15 253.5-19.7 1.3-51-147 8.4-174.5 1.7-36.9L360 275l11.2 9.2 8.7-22.3 16.3 14.2 16.7 83.9z"/>
  <path d="M347.8 614.8a27.8 27.8 0 00-1.5 5.1A145 145 0 01305 607l-.2-.1v-1.6l.1-.9 5-9.3s40.3 13.8 38 19.7zM383.3 620a101.2 101.2 0 01-11 1.2l-.4-8.4 11.1-2.3zM412.5 614c-7 1.8-18 3.9-27.9 2.6l-.1-6.4 26.8-5.3 1.2 9z" opacity=".1"/>
  <path d="M384.4 617.7c-41 7-78.5-13-78.5-13l.3-6.8s1-77.1-1.6-83-4.6-36-3.1-40.5-5.4-73.6-5.4-73.6l-1-28-40.3-16.3 18-37.5a135.4 135.4 0 006.2-16.2c3.1-9.8 17.7-19.3 17.7-19.3s14.9-9.6 20.8-9.2 13.6-8.5 13.6-8.5c5.7-14.5 10.8-8 10.8-8l-.2 2.2c-2 16 32.3 66.4 32.8 67.3l3.3 79.6 3.3 100.8z" opacity=".1"/>
  <path fill="#F7F8F9" d="M383.3 617.7c-41 7-78.5-13-78.5-13l.3-6.8s1-77.1-1.6-83-4.6-36-3.2-40.5-5.3-73.6-5.3-73.6l-1-28-40.4-16.4 18-37.5a137.5 137.5 0 006.3-16.2c3.1-9.7 17.7-19.3 17.7-19.3s14.8-9.5 20.7-9.2 13.6-8.4 13.6-8.4c5.8-14.6 12-8 12-8 0 .7-.6 1-.2 2.2 4.4 15.4 31.2 66.3 31.7 67.2l3.3 79.7 3.3 100.8z"/>
  <path d="M372.3 329.5c-4.4-1.9-27.8-28.6-27.8-28.6v-6c-.8-2-5.9-.8-10 .6l1.8-36.9 2 1.7c4.3 15.4 33.5 68.3 34 69.2z" opacity=".1"/>
  <path fill="#F7F8F9" d="M373.4 327.3c-4.4-1.9-27.8-28.6-27.8-28.6v-6c-.8-2-5.9-.8-10 .6l1.8-36.9 2 1.7c4.4 15.4 33.5 68.3 34 69.1z"/>
  <path d="M305.9 460.3l28.5-3s17 33.3 15.8 41.4-3.1 15.3-10 14-36.6 1-36.6 1z" opacity=".1"/>
  <path fill="#F7F8F9" d="M304.8 458l28.5-2.9s16.9 33.3 15.8 41.4-3.1 15.3-10 14-36.6 1-36.6 1z"/>
  <path fill="#FABEBE" d="M325.8 442.4s25.7 13.8 26.2 18-13-1.8-16-2.5a36.6 36.6 0 00-5.9-1l-19.6.6z"/>
  <circle cx="365.1" cy="328.5" r="2.7" opacity=".1"/>
  <circle fill="#222528" cx="365.1" cy="327.4" r="2.7"/>
  <circle cx="370.1" cy="445.4" r="2.7" opacity=".1"/>
  <circle fill="#222528" cx="370.1" cy="444.3" r="2.7"/>
  <circle cx="367.8" cy="386.9" r="2.7" opacity=".1"/>
  <circle fill="#222528" cx="367.8" cy="385.8" r="2.7"/>
  <path fill="#F7F8F9" d="M430 456.4s1.9 2.7 0 4 .2 4.4.2 4.4-4.6 2.7-2.6 5.1.8 13.4.8 13.4l-5.5 9.1s.3 6 .3 13.9c0 12.4-.7 29.9-4.7 37.8l.5 65.3s-19.3 7-35.5 5l-2.4-104.9s3.5-59.4 4.8-70.8a118.7 118.7 0 001-17.8s-.6-17.9-2.5-26.2c0 0-2-35.8-2.2-45.8l.5-31.7.6-28-3.6-29s3.6-.3 4.7 1.2a10.5 10.5 0 001.6 1.2c6.3 4.3 28.6 17.4 28.6 17.4s12.3 4.9 15.2 11.9 5 12 6.5 14 2.2 11.4 2.2 11.4 4.2 17.3 7.5 20.2 5.8 21.6 5.8 21.6l-29.3 23s-2.6 38.2-3.1 39.7 10.6 34.6 10.6 34.6z"/>
  <path fill="#F7F8F9" d="M431.1 456.4s1.9 2.7 0 4 .2 4.4.2 4.4-4.5 2.8-2.5 5.2.7 13.3.7 13.3l-5.5 9.2s.3 5.9.3 13.8c0 12.4-.7 29.9-4.7 37.9l.5 65.3s-19.3 7-35.5 4.9l-2.4-104.8s3.5-59.5 4.8-70.9a117.6 117.6 0 001-17.8s-.6-17.8-2.5-26.1c0 0-2-35.9-2.2-45.8l.5-31.8.6-28-4.8-29.3s4.8 0 6 1.5a9.5 9.5 0 001.5 1.2c6.3 4.3 28.6 17.4 28.6 17.4s12.3 4.9 15.3 12 5 12 6.4 14 2.2 11.3 2.2 11.3 4.2 17.3 7.5 20.2 5.7 21.6 5.7 21.6l-29.2 23s-2.6 38.2-3.1 39.7 10.6 34.6 10.6 34.6z"/>
  <path d="M396.1 297.7l2.7 7.7-14 14 .7-28-4.8-29.3s4.8 0 6 1.5a9.1 9.1 0 001.5 1.2l11.9 34.1z" opacity=".1"/>
  <path fill="#F7F8F9" d="M395 295.5l2.7 7.7-14 14 .7-28-4.8-29.3s4.8 0 6 1.5a10 10 0 001.5 1.2l11.9 34.1z"/>
  <path d="M395 219.3a33.9 33.9 0 01-1.7 10.6 1.4 1.4 0 01-1-.3c-.3-9-4.7-17.4-10.2-24.6a25.9 25.9 0 00-5.5-5.7 10.8 10.8 0 00-7.5-2.1c-3 .4-5.6 2.4-8.6 2.7-4 .3-7.6-2.5-11.6-2.6a11.3 11.3 0 00-8.5 4 23.3 23.3 0 00-4.5 8.4 49.4 49.4 0 00-2.6 14.5c0 2.8-.3 6.3-2.9 7.4a15 15 0 00-3.8-11.5v-.8a34.2 34.2 0 1168.4 0z" opacity=".1"/>
  <path fill="#222528" d="M375 165a23.6 23.6 0 00-16.7-1.4c-2.7.9-5.3 2.2-8.1 2.9-6 1.4-13-.2-18.2 3.3-2.9 2-4.6 5.2-6.2 8.3l-4 7.6c-2.2 4.2-4.4 8.4-5.3 13s-.3 9.7 2.6 13.4c2.1 2.7 5.2 4.4 7.5 7a15 15 0 013.8 11.3c2.6-1 2.9-4.5 3-7.3a49.4 49.4 0 012.5-14.6 23.2 23.2 0 014.5-8.4 11.4 11.4 0 018.5-4c4 .2 7.6 3 11.6 2.6 3-.2 5.6-2.3 8.6-2.7a10.7 10.7 0 017.5 2.1 25.6 25.6 0 015.5 5.7 44 44 0 0110.1 24.7c1.2.8 2.8-.3 3.4-1.5s.5-2.8 1.2-4c.9-1.5 2.4-2.2 3.7-3.3 3-2.7 3.9-7.2 3.7-11.3s-.9-8.3-.1-12.3c.5-2.5 1.5-4.8 2.1-7.3s.7-5.2-.7-7.3c-2-3-6.2-3.7-9.9-4-4.2-.3-7.9.1-10.6-3.4a38.3 38.3 0 00-4.1-5.1c-.6-.5-6-3.8-6-4z"/>
  <path d="M266.3 375.8l-10.5-19.3-3.3 29.8s1.9 13.2 1.5 15.3 7.5 20.2 7.5 20.2 26.2 46.5 36.8 49l36-25.8-9.5-12.1s-3.3-1.3-4.1 0c0 0-17.8-30.6-19.6-32.8s-1.5-6.6-1.5-6.6-2.8-3-1.8-5.7-5.4-12.3-5.4-12.3l5.7-5.4z" opacity=".1"/>
  <path fill="#F7F8F9" d="M256.4 354.3l-2.8 2.2-3.3 29.8s1.8 13.2 1.5 15.3 7.5 20.2 7.5 20.2 26.1 46.5 36.8 49l36-25.8-9.5-12.1s-3.3-1.3-4.1 0c0 0-17.8-30.6-19.6-32.8s-1.5-6.6-1.5-6.6-2.7-3-1.8-5.7-5.4-12.3-5.4-12.3l5.7-5.4z"/>
  <path d="M427.6 471c2 2.5.8 13.4.8 13.4l-5.5 9.2s.3 5.9.3 13.8l-9.3 3a5.5 5.5 0 01-7.1-5.5l1.6-51.6 21.6 8.2c-1.8 1.3.2 4.5.2 4.5s-4.6 2.6-2.6 5z" opacity=".1"/>
  <path fill="#F7F8F9" d="M428.8 470c2 2.4.7 13.3.7 13.3l-5.5 9.2s.3 5.9.3 13.8l-9.4 3a5.4 5.4 0 01-7-5.4l1.6-51.7 21.7 8.3c-1.9 1.2.1 4.4.1 4.4s-4.5 2.7-2.5 5z"/>
  <path fill="#FABEBE" d="M436 445.4s-1.5 9.4-5.2 10-5.3 15.1-9 14.6-1.3-13.6-1.1-16.2-4-13-1-15.4 13 0 13 0z"/>
  <path d="M443.8 373l6.9-14s2.8 10.7 2.8 16.4 3.8 6.3 3.8 6.3 4.2 5 2 8.6-3.1 12.7-3.1 12.7.7 17.3-2.6 19.7-4 8.1-4 8.1-6 10.9-5.9 13.4-8.4 20-8.4 20 4.2-21.6-20.5-31c0 0-.1-7.4 1.7-9.4s4.7-3 2.9-13.1-.5-22.4-.5-24.9 5.5-17.7 5.5-17.7z" opacity=".1"/>
  <path fill="#F7F8F9" d="M446.8 357l6 2s2.8 10.7 2.8 16.4 3.8 6.3 3.8 6.3 4.3 5 2 8.6-3 12.7-3 12.7.7 17.3-2.6 19.7-4.1 8.1-4.1 8.1-6 10.9-5.9 13.4-8.5 20-8.5 20 4.3-21.6-20.4-31c0 0-.2-7.4 1.7-9.4s4.7-3 2.9-13.1-.5-22.4-.5-24.9 5.5-17.7 5.5-17.7z"/>
  <path d="M313 720s9.6-6.1 16-1.7-16 1.6-16 1.6zM388 701.2s8.5-1.1 15.7 6.6-15.7-6.6-15.7-6.6z" opacity=".1"/>
  <g opacity=".1">
    <path d="M400.5 217.6c-1.2 1-2.8 1.8-3.6 3.2-.7 1.2-.8 2.7-1.3 4s-2.2 2.3-3.3 1.5c-.3-9-4.7-17.4-10.2-24.6a25.6 25.6 0 00-5.5-5.7 10.8 10.8 0 00-7.5-2.1c-3 .4-5.6 2.4-8.6 2.7-4 .3-7.6-2.5-11.6-2.6a11.3 11.3 0 00-8.5 4 23.2 23.2 0 00-4.5 8.4 49.4 49.4 0 00-2.6 14.5c0 2.8-.3 6.3-2.9 7.3a13.7 13.7 0 010 2.3c2.6-1 2.9-4.6 3-7.4a49.4 49.4 0 012.5-14.5 23.2 23.2 0 014.6-8.5 11.3 11.3 0 018.4-3.9c4 .1 7.6 2.9 11.6 2.6 3-.3 5.7-2.3 8.7-2.7a10.8 10.8 0 017.4 2 25.6 25.6 0 015.5 5.8 44.1 44.1 0 0110.2 24.6c1.1.8 2.7-.2 3.3-1.5s.6-2.8 1.3-4c.8-1.4 2.4-2.2 3.6-3.2 3.1-2.7 3.9-7.3 3.8-11.4v-.3c-.2 3.5-1.2 7.1-3.8 9.4zM326.7 216.8c-2.3-2.5-5.5-4.2-7.6-6.9a14.6 14.6 0 01-2.9-8.1 15.4 15.4 0 003 10.3c2 2.7 5.2 4.4 7.5 7a15 15 0 013.7 8.9 15 15 0 00-3.7-11.2zM406.2 186.7c-.6 2.4-1.6 4.7-2 7.2a23.1 23.1 0 00-.4 5 19.4 19.4 0 01.3-2.8c.5-2.5 1.5-4.8 2.1-7.3a12.3 12.3 0 00.4-4.1 13.9 13.9 0 01-.4 2z"/>
  </g>
  <path fill="#222528" d="M129.6 445.1h6.3v141.2h-6.3z"/>
  <path fill="#222528" d="M175.3 585.9l-.4 6.3-.6 9-.2 3.8-.6 9-.2 3.7-.6 9-6.3 102a17.3 17.3 0 01-17.2 16.3h-32.9A17.3 17.3 0 0199 728.8l-6.2-102.2-.6-9-.2-3.7-.6-9-.2-3.7-.6-9-.4-6.4a9 9 0 019-9.5h67.2a9 9 0 018.9 9.6z"/>
  <path fill="#9d9cb5" d="M174.9 592.2l-.6 9H91.1l-.5-9h84.3zM174.1 605l-.6 8.9H91.9l-.5-8.9h82.7zM173.3 617.7l-.5 8.9H92.7l-.5-8.9h81.1z"/>
  <path fill="#69BFA3" d="M81 498a163 163 0 0151.8 67.8s-44-1.5-80.6-28S.5 470.2.5 470.2s44 1.5 80.5 28z"/>
  <path fill="none" stroke="#222528" stroke-miterlimit="10" stroke-width="2" d="M.5 470.1s45.7 25.4 60.3 46.4 72 49.3 72 49.3"/>
  <path fill="#69BFA3" d="M104.6 444.8c19.8 14.4 28.2 36.9 28.2 36.9s-24-.8-43.9-15.2-28.1-36.9-28.1-36.9 23.9.9 43.8 15.2z"/>
  <path fill="none" stroke="#222528" stroke-miterlimit="10" stroke-width="2" d="M60.8 429.6s24.8 13.8 32.8 25.2 39.2 26.9 39.2 26.9"/>
  <path fill="#69BFA3" d="M161.6 480.5c-22.8 25.1-27.7 58-27.7 58s32.2-8 55-33 27.7-58 27.7-58-32.2 8-55 33z"/>
  <path fill="none" stroke="#222528" stroke-miterlimit="10" stroke-width="2" d="M216.6 447.6S187 473.3 179.3 491 134 538.4 134 538.4"/>
  <path fill="#222528" d="M972.5 743.5l-1.2 14.2 4-.8-.6-15.4-2.2 2z"/>
  <path fill="#FABEBE" d="M881.5 676.3a101.3 101.3 0 00-1.6 46.5s-7.2 16.3-7.8 17-21.2 13.1-21.2 13.1l-14.3 8.4s-14.6-6.4-7.6-8.6a10.6 10.6 0 003.7-2.5c7-6.7 15.8-23.2 15.8-23.2s.6-8.4 2.8-12.4 1.4-46 1.4-46l.2-68.3v-8.9l27.3.2a61.9 61.9 0 001.2 9 137.6 137.6 0 003.8 15.2c4.9 15.6 2.9 41.7-3.7 60.5z"/>
  <path d="M879.9 722.8s-7.2 16.3-7.8 17-21.2 13.1-21.2 13.1l-14.3 8.4s-14.6-6.4-7.6-8.6a10.6 10.6 0 003.7-2.5l.7 4.3 4.8-.2 41-36.9c.3 3.3.7 5.4.7 5.4z" opacity=".1"/>
  <path fill="#222528" d="M879.4 718.4l-41.2 37.1-4.8.2-1-7s-8.4 10.8-27 10.2c0 0-11.2 7.4 5.4 7.8s37.7-.6 37.7-.6 14.8-23 27.1-20v17.3h3.8V746a15.8 15.8 0 006.8-10.4 12.7 12.7 0 00-4.4-11.7 7.5 7.5 0 01-2.4-5.4z"/>
  <path fill="#FABEBE" d="M976.3 697.6c-2.7 9.5-1.2 14.9.6 17.7a32.8 32.8 0 014.8 11.8l.2.9-18.8 27.3-10.2 4s-16.4-5.6-13.4-7.2c.8-.4 2-2.5 3.3-5.3 4-8.7 9.5-24.6 9.5-24.6v-.2a297 297 0 012.5-19.7c1.9-11.7-1.5-40.6-1.5-40.6s-1.2-35.2-3.8-43.1a66 66 0 01-2.3-12.5c-.6-5-.7-9.1-.7-9.1s10.8-15 30.6 1.2a21.7 21.7 0 014 4.5c13.7 19.4 2.7 62.2 2.7 62.2s-2.7 15.5-7.5 32.7z"/>
  <path d="M981.9 728L963 755.3l-10.1 4s-16.4-5.6-13.4-7.2c.7-.4 1.9-2.5 3.2-5.3 7 0 10.6 6.5 10.6 6.5l8.7-1.4s11.6-22.7 14.2-24.1.4-10.4.4-10.4V715l.2.2v.1a32.8 32.8 0 014.8 11.7z" opacity=".1"/>
  <path fill="#222528" d="M954 754s-5-9.3-14.6-5.9c0 0-5.4 11-10.8 12.8s-3.6 7.8 8.6 5.6 30.5-4 30.5-4l.8-11.2 12.4-15.8s7.4-6.7-3.6-19.8v2.3s2.2 9-.4 10.3-14.1 24.2-14.1 24.2z"/>
  <path d="M880.3 591.6a61.9 61.9 0 001.2 9c-11.3-1.6-21.8-.8-28.6-.3v-8.9zM982.3 605.2s-16 .7-35 1c-.6-5-.7-9.2-.7-9.2s10.7-15 30.5 1.2a21.7 21.7 0 014.1 4.5 24.4 24.4 0 001.1 2.5z" opacity=".1"/>
  <path fill="#33618C" d="M982.3 603.4s-70 3.4-91.4-2.6-42.6-.8-45.8-2.2-.6-23.2 2.2-28.6 18.2-59.9 18.2-59.9l14.8-77 15.5-4.3 1.1-.3 27.2-7.5 19.9-5.5s39.5 154.3 36.1 165.7a29.1 29.1 0 00-.6 13.4 33.4 33.4 0 002.8 8.8z"/>
  <path fill="#c7daf5" d="M828.8 380.4s-14 15-3.4 23.3 17.5.8 17.5.8z"/>
  <path d="M828.8 380.4s-14 15-3.4 23.3 17.5.8 17.5.8z" opacity=".1"/>
  <path fill="#FABEBE" d="M941.9 281.8l-4.1 3.8a563 563 0 01-13.4 12.1c-6.4 5.6-11.7 9.7-9.8 6.2s1.5-9.6.6-15.2l-.2-1.2a104.8 104.8 0 00-3-12.3s10.3-13.4 16-18.7c2.1-2 3.6-2.8 3.7-1.4a46.5 46.5 0 003.4 10.8 246.7 246.7 0 006.8 15.9z"/>
  <path d="M935 265.9a29.7 29.7 0 01-19.8 22.8 104 104 0 00-3.3-13.5s19.5-25.2 19.8-20.1c0 2 1.6 6.2 3.4 10.8zM913.3 295.4l2.5-3.6s1.7 10.2 7.8 5.7 6.4 33.8 6.4 33.8l-6.6 98.5-47.6-2.8 1.4-47.6 5.4-24 13.3-35 8-11.4z" opacity=".1"/>
  <path fill="#33618C" d="M930 332l-6 89-.6 9.4L897 429l-1-.1-20-1.2 1.3-47.6 5.4-24 13.3-35 8-11.4 9.4-13.7 2.5-3.5s1.7 10.2 7.8 5.7l.2-.1c6-3.8 6.2 34 6.2 34z"/>
  <path fill="#F7F8F9" d="M883.3 347.6s-2.4 5-7.2 4.2-4.8 18-4.8 18-3.2 3-5.4.4-8 6.2-8 6.2l-36.3 1.6s16.1 7.4 13 29.8c0 0 54.9-3.4 56.7-8.6s-8-51.6-8-51.6z"/>
  <path fill="#F7F8F9" d="M777.7 389.8l9.5 8.1 78.9 16.6-9.8-10-78.6-14.7zM913.4 298.5c-1.3 2-5 12.3-8.2 21.2l-4.8 14s-5 33.1-7.7 39.1-1.1 29.4-1.1 29.4l-9.7 57.7s-4.4 29.7-11.2 47.5c-6.7 17.5-14.1 25.7-14.4 26 3-4.1 19.4-84 19.4-84l5.4-100.9 1.6-17.7c.8-8.1 17-19.4 17-19.4l15.6-22.2c1.6 2 .5 5.7-1.9 9.3z"/>
  <path fill="#FABEBE" d="M872.7 428s-23-1-34.2-14.3 25.8-5.3 25.8-5.3l9.6 2.2z"/>
  <path d="M980.1 581.2a29.1 29.1 0 00-.6 13.4c-25 1.8-52-5-52-5-5 4.6-18 11.4-18 11.4l-7.3-89c-4.6-12-6.4-74.9-6.4-74.9l1-8.2.1-.4c1.8-13.7 5.3-39.6 7-43 2.5-4.9-7.3-17.7-7.3-17.7l4.5-37.9.5-4.6c9.4-4.2 16.6-17.6 16.6-17.6l5.5-9.6c6-3.9 6.3 33.9 6.3 33.9l-6 89 19.9-5.4s39.6 154.2 36.2 165.6z" opacity=".1"/>
  <path fill="#F7F8F9" d="M1005.8 587.4c-27.3 13.6-77 1-77 1-5 4.6-18.2 11.4-18.2 11.4l-7.2-89c-4.6-12-6.4-75-6.4-75s5.8-46.8 8.2-51.6c.7-1.4.4-3.5-.4-5.7a72.4 72.4 0 01-4.4-33.5l1.9-16.3.5-4.6c9.4-4.2 16.6-17.6 16.6-17.6l5-8.8 9.2-16 4.4-7.7.7.6 5.7 5.2 6 5c7.8 6.6 21.3 18.2 28.3 25.3 6.1 6.3 8 30.6 8.6 49 .4 12 .2 21.5.2 21.5-6.2 10.2 10 92 10 92 3.8 15.8 8.3 114.8 8.3 114.8z"/>
  <path fill="#F7F8F9" d="M952.8 304.5s-18.8 35.7-16.6 49.3 8.4 29 5.4 32.6a11 11 0 01-8.8 4.4c-3 .2-11 5.7-11 6.3s-7.4.6-14 3.4-16.4 4.4-16.4 4.4-19-.6-20.8 1.2-3.5 12.6.2 21.2 8 15 11.2 16.2 23.4-5.6 39.8-7.2 34.1-14.6 34.1-14.6 19.6-7 23-18.8-4.1-76.4-4.1-76.4-5.9-30.1-22-22z"/>
  <path d="M952.4 400.4s-15-3-9.8 2 5.2 9.4 11.6 9.2-1.9-11.2-1.9-11.2zM977.7 508s-6.8 4.5 6.2 15.1-6.2-15.1-6.2-15.1zM964.8 545.7c0 .6-2.4 22 6.5 27.3s-6.5-27.3-6.5-27.3z" opacity=".1"/>
  <path fill="#FABEBE" d="M822.2 378c-7.3.2-22.9 2.4-14.8 17.5 7.2 13.4 19.2 4.5 26-2.3a25.6 25.6 0 00-11.2-15.2zM834.1 392.4zM833.5 393l.3-.2z"/>
  <path d="M950.4 285.4L935 296c-3.5 2.5-10 17.5-14.2 25.1-3.4 6.2-14.4 7.8-18.5 8.2l.5-4.6c9.4-4.2 16.6-17.6 16.6-17.6l18.6-32.5 6.4 5.8 6 5z" opacity=".1"/>
  <path fill="#dce7ff" d="M950.4 284.8c-7.7 5.2-14.2 9.6-15.4 10.6-3.5 2.5-10 17.5-14.2 25.1-3.4 6.2-14.4 7.8-18.5 8.1l.5-4.5c9.4-4.2 16.6-17.6 16.6-17.6L938 274l6.4 5.7 6 5z"/>
  <path fill="#FABEBE" d="M935.6 259.3a29.6 29.6 0 01-5.2 16.8 29.7 29.7 0 115.2-16.8z"/>
  <path d="M987.3 359a26.4 26.4 0 01-9.5-10.2c-1.7-3.3-2.8-7.1-5.7-9.5-2.5-2-6-2.6-9.2-3.5-10.5-3.1-19.3-12.7-19.6-23.7-.2-5.2 1.4-10.3.7-15.4a17 17 0 00-3.4-8 27.4 27.4 0 00-2.8-3c-1.4-1.4-3-2.7-4.2-4a15.5 15.5 0 01-2-3 13.7 13.7 0 01-1.2-2.6c-2-6.1-.2-13.4-2.4-19.6l-.1-.3c-.9-2.2-2.6-4.4-5-4.6s-4.3 1.8-6.5 2.7c-4.7 1.8-9.8-1.3-13.7-4.5s-8.3-6.7-13.3-6c-3.3.4-5.9 2.7-8.9 3.8a12.5 12.5 0 01-2 .7 29.6 29.6 0 0157 11 29.4 29.4 0 01-.6 6.2l.2.4c1.1 3 2.5 6 3.6 8.7l5.7 5.2 6 5c7.8 6.6 21.3 18.2 28.3 25.3 6.1 6.3 8 30.6 8.6 49z" opacity=".1"/>
  <path fill="#222528" d="M880.2 229.4c1.4-3 2.1-6.2 3.8-9 2.5-4 7-6.5 11.4-8 11.8-4.1 36.6-10 44 0 1.5 2 2.7 4.1 4.7 5.5 1.5 1 3.4 1.5 5 2.3 4.8 2.2 7.8 7 9.5 12s2 10.3 3.2 15.3c1.5 6.6 4.2 12.8 6.8 19a52 52 0 0012.4 19.8c8.2 7 10 17 17.6 24.6 9 9.1 8.7 24.2 4.1 36.1-.6 1.6-1.3 3.3-1 5s1.4 3.1 2.6 4.4l5 5.6a27.7 27.7 0 01-30.3-14c-1.7-3.2-2.8-7-5.7-9.4-2.5-2-6-2.6-9.1-3.5-10.6-3.2-19.4-12.8-19.7-23.7-.2-5.2 1.4-10.3.7-15.4a17 17 0 00-3.4-8c-2.7-3.6-6.8-6-9-10-3.9-6.7-1-15.4-3.7-22.6-.9-2.2-2.5-4.4-4.9-4.6s-4.4 1.8-6.6 2.7c-4.7 1.8-9.7-1.3-13.7-4.4s-8.3-6.8-13.3-6.1c-3.2.5-5.8 2.7-8.9 3.9-2.2.8-6.7 1.6-8.7-.3-4.1-3.8 5.4-13.7 7.2-17.2z"/>
  <path d="M981.8 344.8c-1.7-3.3-2.8-7.1-5.7-9.5-2.5-2-6-2.6-9.2-3.5-10.5-3.1-19.3-12.8-19.7-23.7-.1-5.2 1.5-10.3.8-15.4a17.1 17.1 0 00-3.4-8c-2.7-3.6-6.9-6-9.1-10-3.8-6.7-1-15.3-3.7-22.5-.8-2.2-2.5-4.4-4.8-4.6s-4.4 1.8-6.6 2.7c-4.7 1.8-9.8-1.3-13.7-4.5s-8.3-6.8-13.3-6c-3.3.4-5.9 2.7-8.9 3.8-2.2.9-6.8 1.7-8.7-.2-4.2-4 5.4-13.9 7.2-17.4 1.4-3 2-6.2 3.8-9l.3-.4a15.9 15.9 0 00-3.3 3.7c-1.7 2.8-2.4 6-3.8 9-1.8 3.5-11.4 13.4-7.2 17.4 2 1.9 6.5 1 8.7.2 3-1.2 5.6-3.4 9-3.9 5-.7 9.3 3 13.2 6.1s9 6.3 13.7 4.4c2.2-.8 4.2-2.8 6.6-2.6s4 2.4 4.9 4.6c2.7 7.1-.2 15.8 3.6 22.5 2.2 4 6.4 6.4 9.1 10a17 17 0 013.4 8c.7 5.1-.9 10.3-.7 15.4.3 11 9.1 20.6 19.6 23.7 3.2 1 6.7 1.5 9.2 3.6 2.9 2.3 4 6.1 5.7 9.4a27.7 27.7 0 0030.2 14l-2.3-2.7a28 28 0 01-25-14.6z" opacity=".1"/>
  <path d="M912.8 299.1c-1.3 2-5 12.3-8.2 21.2-2.9-1.1-5.6-8.4-5.6-8.4l15.7-22.2c1.6 2.2.5 5.8-1.9 9.4z" opacity=".1"/>
  <path fill="#dce7ff" d="M913.4 298.5c-1.3 2-5 12.3-8.2 21.2-2.9-1.1-5.6-8.4-5.6-8.4l15.7-22.2c1.6 2.2.5 5.8-1.9 9.4z"/>
  <path fill="#be8b87" d="M822.6 400.7l-8.7-27.3a2.5 2.5 0 011.7-3.2 2.6 2.6 0 013.2 1.6l8.7 27.3-.9 5.7z"/>
  <path fill="#F7F8F9" d="M814.8 371a2.6 2.6 0 013.2 1.6l8.6 27.3-.6 4.3.6.7.9-5.8-8.7-27.2a2.6 2.6 0 00-3.2-1.7 2.6 2.6 0 00-1.4 1 3.5 3.5 0 01.6-.2z" opacity=".1"/>
  <path fill="#efc8c4" d="M822.6 400.7l4.9-1.6-.7 4.7-.2 1.1-1.4-1.5-2.6-2.7z"/>
  <path fill="#727a9c" d="M825.2 403.4a1 1 0 01.3-.3.4.4 0 01.5 0 1.2 1.2 0 01.1.3.9.9 0 00.6.4l-.1 1z"/>
  <path fill="#FABEBE" d="M813.9 383s17.4 0 13.3 7.4-10.5 8.2-10.5 8.2z"/>
</svg>
