<svg xmlns="http://www.w3.org/2000/svg" viewBox="0 0 1068 831.7">
  <path fill="#FF6584" d="M1068 348.7c0 45.9-37.2 119-83 119s-83-73.1-83-119a83 83 0 11166 0z"/>
  <path stroke="#222528" fill="none" stroke-width="2" d="M988 470.7c-10.4 3.6-12.9 17.8-9.3 28.2s11.2 19.1 15 29.4a88.2 88.2 0 013.8 16c2.2 13 4.4 26.3 2.7 39.3-1.6 12.4-6.6 24-12.2 35.3a329.5 329.5 0 01-39.4 60.6"/>
  <path fill="#FF6584" d="M993 475.7q-8-5.1-16 0v-16h16z"/>
  <path stroke="#222528" fill="none" stroke-width="2" d="M977 467.4a17.6 17.6 0 0016 0"/>
  <ellipse fill="rgb(0 0 0 / 50%)" cx="1019.5" cy="313.7" opacity=".4" rx="17.5" ry="21"/>
  <path fill="#FF6584" d="M0 335.7c0 45.9 37.2 119 83 119s83-73.1 83-119a83 83 0 00-166 0z"/>
  <path stroke="#222528" fill="none" stroke-width="2" d="M80 457.7c10.4 3.6 12.9 17.8 9.3 28.2S78 505 74.3 515.3a88.2 88.2 0 00-3.8 16c-2.2 13-4.4 26.3-2.7 39.3 1.6 12.4 6.6 24 12.2 35.3a329.5 329.5 0 0039.4 60.6"/>
  <path fill="#FF6584" d="M75 462.7q8-5.1 16 0v-16H75z"/>
  <path stroke="#222528" fill="none" stroke-width="2" d="M91 454.4a17.6 17.6 0 01-16 0"/>
  <ellipse fill="rgb(0 0 0 / 50%)" cx="48.5" cy="300.7" opacity=".4" rx="17.5" ry="21"/>
  <path stroke="#222528" fill="none" stroke-width="2" d="M871 304.7c-10.4 3.6-12.9 17.8-9.3 28.2s11.2 19.1 15 29.4a88.2 88.2 0 013.8 16c2.2 13 4.4 26.3 2.7 39.3-1.6 12.4-6.6 24-12.2 35.3a329.5 329.5 0 01-39.4 60.6"/>
  <path fill="#FF6584" d="M951 182.7c0 45.9-37.2 119-83 119s-83-73.1-83-119a83 83 0 01166 0z"/>
  <path fill="#FF6584" d="M876 309.7q-8-5.1-16 0v-16h16z"/>
  <path stroke="#222528" fill="none" stroke-width="2" d="M860 301.4a17.6 17.6 0 0016 0"/>
  <ellipse fill="rgb(0 0 0 / 50%)" cx="902.5" cy="147.7" opacity=".4" rx="17.5" ry="21"/>
</svg>
