<svg xmlns="http://www.w3.org/2000/svg" viewBox="0 0 1009.5 766.6">
  <path fill="#33618C" d="M624 201.6h29v30.5h-29z"/>
  <path fill="#FABEBE" d="M588.8 553.8c-2.6 12.8-6.4 22.7-13.4 28.5s-16.8 21.5-16.8 21.5c-.2 20.8-5.7 27.2-5.7 27.2l-5.6 1.5h-14s-2.5-7-3-11.2c-.2-1.4.8-3.7 2.2-6.2a78 78 0 009.1-29.7l.7-6.1c-1.2-38.2 14-50.6 20.3-54a6.2 6.2 0 003.2-5l1.1-10.8 37.7 1.8s-.8 3.3.6 11l1.2 5.3c3 11.5-17.5 25.4-17.6 26.2zM652.6 527.4a97 97 0 01-5.3 16.4 41.9 41.9 0 00-3.2 14.8v.5a129.2 129.2 0 01-9.3 44 566.4 566.4 0 01-15 35.7c-3.7 6.3-1.5 17-1.5 17l-21.2-1.5.3-35.7c-2.2-25.4 6-49 10.4-59.6a39 39 0 003-13.4l1-23.6.3-7s37.5-5.4 40.6 3.1a18 18 0 010 9.3z"/>
  <path d="M605.2 522.3l-39.4-2 1.1-10.8 37.7 1.8s-.8 3.3.6 11zM652.6 527.4l-40.8-5.4.3-7s37.5-5.4 40.6 3.1c.9 2.3.7 5.6 0 9.3z" opacity=".1"/>
  <path fill="#264058" d="M674.1 454.5L657.8 526l-48.4-6.5V495l-4.1 25.3-58-2.8 3-55.5a205.8 205.8 0 006.5-33.9 836.7 836.7 0 0111.5-65.8S667.6 383 674 390.5c1.1 1.3 1.8 4 2.3 7.6 2.2 17.5-2.3 56.4-2.3 56.4z"/>
  <path d="M558.1 459.1s39.1-20.5 48.6-16.1zM579.4 392.1s32.5 24.7 33.5 31.4zM570.6 477.1s23.5-1 31 5zM613 450.8s11.1 36.5 6.3 46.5-9.9-2.3-9.9-2.3z" opacity=".1"/>
  <path fill="#33618C" d="M597.2 641.3s-11 1.7-9 28.3 5 31.4 9 31.7 23.5 5.2 22.5-4.7-2-31.6-.6-35 3.6-12-1.4-14.3l-1.1 5.2s-10.7-9.9-17-2.7a27.7 27.7 0 00-1.3-5.1c-.7-1.6-2-2.4-1-3.4z"/>
  <path fill="#FABEBE" d="M798.5 314.1s-2.5 1.4-6.2 3.2a69.3 69.3 0 01-20.5 6.8c-10.4 1-13.6 2-25.5-6.6a483.3 483.3 0 00-31-19.5l-2.9-1.7-.3-.2 5.5-15.2 19.5-10.4 4.9 4.2 14.4 12.3s2.2 3.6 5.9 3.4 23 1.4 23 1.4l3.6.5 7.7 1.3z"/>
  <path d="M798.5 314.1s-2.5 1.4-6.2 3.2c-3.9-2-8.7-5.8-6.9-12 1.7-5.5 2.2-9.8 3.6-13l7.7 1.4z" opacity=".1"/>
  <path fill="#FABEBE" d="M796 287.1s21.7-6.2 20 20-18.3 12-18.3 12-14.3-3.8-11.3-13.7 2.2-15.9 9.5-18.3zM570.4 202.1l-22.6 9.5-.4.2-.2-.1-1.4-.7c-5.9-3-26-13-38.7-18.9-15-7-12.7-14-12.7-14l-2.1-73.3-3.9-13.2s-2.7-44.6 19-55.8 7.7 64.7 7.7 64.7l1.7 15.7a168.8 168.8 0 006 29.8 46.2 46.2 0 011.7 9.8c.6 10.7 5.6 10 5.6 10a69.6 69.6 0 0122.6 7.6 56.4 56.4 0 017.4 4.7zM651.1 237.1l-19.3-2s5.7-8.4 8.2-16.7a28.4 28.4 0 00.8-3.5c.6-3.2.5-6.2-1-8.4-5.7-8.4 33.6-20 33.6-20a96 96 0 00-.4 13.8 70.2 70.2 0 001 9.6c1.2 6.5 3.6 12.6 8 15.7 12.4 8.5-30.9 11.5-30.9 11.5z"/>
  <path d="M651.1 237.1l-19.3-2s5.7-8.4 8.2-16.7c2.2 3.2 3 3.1 6.1 3.7 0 0 19.5 3 28-12.1 1.1 6.4 3.5 12.5 8 15.6 12.3 8.5-31 11.5-31 11.5zM715.4 298a10.7 10.7 0 000 1.8l-3-3.5-.2-.3 5.5-15.1 19.5-10.4 4.8 4.2c-6.9 2.6-26.3 11-26.6 23.3zM570.4 202.1l-22.6 9.5h-.6l-1.8.2.4-.9c1.9-4.6 10.6-27 6.8-37.5a56.4 56.4 0 017.5 4.7zM676.4 398c-8.8-.7-97-8.9-105.3-21.9a45.6 45.6 0 00-4.4-6l1.6-7.8S667.6 383 674 390.5c1.1 1.2 1.8 4 2.3 7.6z" opacity=".1"/>
  <path fill="#33618C" d="M646.1 223.1s19.7 3 28-12.4c0 0 14 11.5 22.3 12.4s47 49.7 47 49.7-31 10-29 26l-14.6-17s-7.4-.3-13.7 20c0 0-7.7 11.7-6.7 48.7s-2.3 45.6-2.3 45.6-97.3-8.3-106-22-10-7-10-7-1.3-26 7.7-47 7-81.3 7-81.3 1-29.7-28.4-27c0 0 12.4-28.7 6.7-39.7 0 0 16.9 4.6 28.9 4.7a49.4 49.4 0 0121.3 5c3.6 1.8 7 4 8.8 6.7 5.7 8 15 4.3 15 4.3a151.4 151.4 0 008.7 21.4 71 71 0 003 5c2.4 3.4 3 3.3 6.3 4z"/>
  <path d="M673 200.3a34.2 34.2 0 01-3.5 4.3 34.9 34.9 0 01-25 10.5 36 36 0 01-3.6-.2c.5-3.3.4-6.3-1.1-8.5-5.7-8.3 33.7-20 33.7-20a96 96 0 00-.5 14z" opacity=".1"/>
  <path fill="#FABEBE" d="M679.4 179.1a35 35 0 11-35-35 34.9 34.9 0 0135 35z"/>
  <path d="M696.8 259.1l.7 23.4s10.4-8.4 10.8-16.4-11.5-7-11.5-7zM612.4 282.6S640 320.3 656 324s-37.5-29.3-43.5-41.6zM641.6 286.5s15.3 17.3 26.3 19.5zM587.6 330.1s28 27.5 44 29.2zM679.4 179.1a34.9 34.9 0 01-10 24.5l-3.8-2.4a10.6 10.6 0 01-3.8-3.2c-1.2-2.2-.9-4.8-.8-7.3.3-5.2-1.2-10.9-5.3-14.2-6.6-5.3-17.2-2.3-24-7.5a23.7 23.7 0 01-4.2-4.8l-6.3-8.4-1.4-1.6a35 35 0 0159.6 25z" opacity=".1"/>
  <path fill="#222528" d="M623.3 134.3c3.2-2.4 7-3.6 10.5-5.4s6.6-4 10.2-5.5 7.6-2.4 11.2-1.1c7.8 2.7 10.8 13.6 18.8 15.5l4.2.6a18.8 18.8 0 0112.6 8.8 29.5 29.5 0 014 15.2 24.4 24.4 0 01-1.2 8.8c-2.4 6.5-8.4 11-12.4 16.6a31.7 31.7 0 00-5.8 18.5l-9.8-6a10.5 10.5 0 01-3.7-3.3c-1.3-2.1-1-4.8-.8-7.3.2-5.2-1.2-10.8-5.3-14.1-6.7-5.3-17.3-2.4-24-7.6a23.7 23.7 0 01-4.3-4.7l-6.3-8.5c-1.4-1.8-4-4.1-4.6-6.4-1.3-4.8 3.2-11.4 6.7-14z"/>
  <path d="M666.7 199.1a10.5 10.5 0 01-3.7-3.2c-1.3-2.2-1-4.8-.8-7.3.2-5.2-1.3-10.9-5.3-14.1-6.7-5.4-17.3-2.4-24-7.6a23.7 23.7 0 01-4.3-4.8l-6.3-8.4c-1.4-1.9-4-4.2-4.6-6.4-1.1-3.9 1.6-8.9 4.6-12.1-3.3 3-7 8.9-5.7 13.2.6 2.2 3.2 4.5 4.6 6.4l6.3 8.4a23.7 23.7 0 004.3 4.8c6.7 5.2 17.3 2.2 24 7.5 4 3.3 5.5 9 5.3 14.2-.1 2.5-.5 5.1.8 7.3a10.5 10.5 0 003.7 3.2l9.8 6v-1.7z" opacity=".1"/>
  <path fill="#33618C" d="M531.8 616.3s-9.7 2-7.7 28.7 5 31.3 9 31.6 23.5 5.2 22.5-4.6-2-31.7-.7-35 6.6-12.3 1.6-14.5l-4 5.3s-10.7-9.8-17-2.7c0 0-6-6.5-3.7-8.9z"/>
  <path d="M538 632.8c2.1 1 4 2.2 6.2 3.2a13.9 13.9 0 006.7 1.6 4.7 4.7 0 002.7-1M602.1 659c1.3 1 2.2 2.6 3.6 3.5 2 1.3 4.6 1.4 7 1.5a2.8 2.8 0 001.2-.2 3 3 0 001.1-1l1.3-1.7" opacity=".1"/>
  <path fill="#FABEBE" d="M437.8 215.5s-4.5-42.7 13-32.2 5.4 29.2 5.4 29.2l-4 13.1zM465.8 79.1l10-9.8s19.1-55.2 38.1-41-24 50-24 50l-11.5 13.3z"/>
  <path fill="#33618C" d="M319.4 297.3l-.5 11.3s9.2 16 13 17.2 3.5-33.8 3.5-33.8z"/>
  <path d="M319.4 297.3l-.5 11.3s9.2 16 13 17.2 3.5-33.8 3.5-33.8z" opacity=".1"/>
  <path fill="#FABEBE" d="M334.8 284.9l.6 41.7h46.5l-3.5-24.3-43.6-17.4z"/>
  <path fill="#264058" d="M345.6 389.1l2.2 13.4 27.1 60.3s12.4 19 2.4 35-20.4 41-22 56.2-14.9 30-14.9 30l28.7 12.1s2-23.8 10-35 33.7-60.3 33.7-60.3 8.1-7.3 6.3-29.2-1.7-37.1-1.7-37.1l-2.8-34.9z"/>
  <path d="M345.6 389.1l2.2 13.4 27.1 60.3s12.4 19 2.4 35-20.4 41-22 56.2-14.9 30-14.9 30l28.7 12.1s2-23.8 10-35 33.7-60.3 33.7-60.3 8.1-7.3 6.3-29.2-1.7-37.1-1.7-37.1l-2.8-34.9z" opacity=".1"/>
  <path fill="#33618C" d="M343 582.1s-30.7 9.4-20.6 24.7 43.2 44.5 56.5 43.5 8-10.8 8-10.8l-11.1-11s-2-23.4-1.2-30.2-9.5-10-10.8-6-20.9-10.2-20.9-10.2z"/>
  <path fill="#264058" d="M362.3 308.9l-24.4 2.7a8.7 8.7 0 00-7.7 8.9c.3 9.7.4 25.1-1 28-2 4.1-8.1 33.8 18.6 54l36.1 11.5-58 4.1 1.9 32.2 9-5 110 5s31.1-3.2 10-37-66.2-67-66.2-67l-.5-26.3-3.3-7.7z"/>
  <path d="M392.4 413.5a31.2 31.2 0 0125 0z" opacity=".1"/>
  <path fill="#33618C" d="M328.8 418s-35.9-5.2-36 1.6 5 73.4 22.1 68.9 9.9-26.5 9.9-26.5l12.8-12.4s1.3-6.8-7.2-6.1z"/>
  <path fill="#33618C" d="M388.1 231.5l14.2 16.1s6.1 7.7 13.5-4 21-32.5 21-32.5 15.1 13.4 19.1 10.7-36.8 55.5-36.8 55.5-13 19.2-32.3-3.5l-5.7-2.7z"/>
  <path d="M388.1 231.5l14.2 16.1s6.1 7.7 13.5-4 21-32.5 21-32.5 15.1 13.4 19.1 10.7-36.8 55.5-36.8 55.5-13 19.2-32.3-3.5l-5.7-2.7z" opacity=".1"/>
  <circle fill="#FABEBE" cx="344.8" cy="136.3" r="29.5"/>
  <path d="M344.8 152.1s-25.4 12-22.4 33 3.5 47.5 3.5 47.5 11.5 17-3.7 49.5c0 0-9.8 16.5-3.3 28.5 0 0 7.2-19 25.9-5s48.6 20.5 48.6 20.5-15.5-68-6-77.5c0 0 16.5-24.5 1.5-40s-7.5-30-7.5-30l48.2-25.8s10.1.2 23.8-21.2a367.3 367.3 0 0129.2-39s-10.4-15.5-20-16.6c0 0-3.9 4-6.5 14.8-1.4 5.8-11 15.4-19.8 23.1a558.9 558.9 0 00-18.2 17c-4.4 4.3-14.2 10.3-35.7 13.8-35.3 5.6-37.6 7.4-37.6 7.4z" opacity=".1"/>
  <path fill="#33618C" d="M344.8 150.1s-25.4 12-22.4 33 3.5 47.5 3.5 47.5 11.5 17-3.7 49.5c0 0-9.8 16.5-3.3 28.5 0 0 7.2-19 25.9-5s48.6 20.5 48.6 20.5-15.5-68-6-77.5c0 0 16.5-24.5 1.5-40s-7.5-30-7.5-30l48.2-25.8s10.1.2 23.8-21.2a367.3 367.3 0 0129.2-39s-10.4-15.5-20-16.6c0 0-3.9 4-6.5 14.8-1.4 5.8-11 15.4-19.8 23.1a558.9 558.9 0 00-18.2 17c-4.4 4.3-14.2 10.3-35.7 13.8-35.3 5.6-37.6 7.4-37.6 7.4z"/>
  <path d="M366.6 275.8s19.7 29 20.2 34c0 0-3-31.2-20.2-34zM340.8 178.1s13.7 16.5 33.5 2.7a42.5 42.5 0 01-33.5-2.7z" opacity=".1"/>
  <path d="M351.4 105.4a8.8 8.8 0 00-2.2-4 42.4 42.4 0 00-16.1-14.2 22.3 22.3 0 00-25.5 7.3c-2.4 3.2-3.9 7.1-6 10.6a47.2 47.2 0 01-16.2 15.4c-3.9 2.4-8 4.4-11.6 7.1a44.4 44.4 0 00-16 44c1.4 7 4.5 14 3.7 21.3-.7 5.5-3.7 10.5-6.7 15.3s-6.2 9.5-7.4 15 0 11.9 4.6 15.2c1.7 1.2 3.7 2 5.1 3.5a16.6 16.6 0 012.4 3.7 36.8 36.8 0 0022.8 18c4.3 1.1 10 .7 11.6-3.4a9 9 0 01.8-2.1c1.5-2 4.6-1 6.8.2a41.8 41.8 0 0016.1 4.7 13.4 13.4 0 006.6-.8 12.2 12.2 0 004.5-3.9 47.4 47.4 0 007.7-24.4 57 57 0 00-.1-16.8c-1.7-8.8-7.1-17.1-6.3-26 .8-9.7 8.6-17.5 9.8-27a20.6 20.6 0 00-3.5-14.3 20.3 20.3 0 01-2.7-4.2 4.2 4.2 0 01.8-4.6 7 7 0 012.1-1c6.5-2.4 9.9-8.9 10.3-15.5.2-2.5 0-4.8.7-7.2 1.1-3.8 4.5-7.9 3.9-11.9z" opacity=".1"/>
  <path fill="#222528" d="M349.4 105.4a8.8 8.8 0 00-2.2-4 42.4 42.4 0 00-16.1-14.2 22.3 22.3 0 00-25.5 7.3c-2.4 3.2-3.9 7.1-6 10.6a47.2 47.2 0 01-16.2 15.4c-3.9 2.4-8 4.4-11.6 7.1a44.4 44.4 0 00-16 44c1.4 7 4.5 14 3.7 21.3-.7 5.5-3.7 10.5-6.7 15.3s-6.2 9.5-7.4 15 0 11.9 4.6 15.2c1.7 1.2 3.7 2 5.1 3.5a16.6 16.6 0 012.4 3.7 36.8 36.8 0 0022.8 18c4.3 1.1 10 .7 11.6-3.4a9 9 0 01.8-2.1c1.5-2 4.6-1 6.8.2a41.8 41.8 0 0016.1 4.7 13.4 13.4 0 006.6-.8 12.2 12.2 0 004.5-3.9 47.4 47.4 0 007.7-24.4 57 57 0 00-.1-16.8c-1.7-8.8-7.1-17.1-6.3-26 .8-9.7 8.6-17.5 9.8-27a20.6 20.6 0 00-3.5-14.3 20.3 20.3 0 01-2.7-4.2 4.2 4.2 0 01.8-4.6 7 7 0 012.1-1c6.5-2.4 9.9-8.9 10.3-15.5.2-2.5 0-4.8.7-7.2 1.1-3.8 4.5-7.9 3.9-11.9z"/>
</svg>
