<svg xmlns="http://www.w3.org/2000/svg" xmlns:xlink="http://www.w3.org/1999/xlink" viewBox="0 0 903.8 657.1">
  <defs>
    <linearGradient id="a" x1="736" x2="736" y1="734.2" y2="307.2" gradientUnits="userSpaceOnUse">
      <stop offset="0" stop-color="gray" stop-opacity=".3"/>
      <stop offset=".5" stop-color="gray" stop-opacity=".1"/>
      <stop offset="1" stop-color="gray" stop-opacity=".1"/>
    </linearGradient>
    <linearGradient id="b" x1="381.4" x2="381.4" y1="718.2" y2="312.2" xlink:href="#a"/>
  </defs>
  <ellipse fill="#E3E6E9" cx="63.9" cy="514.6" rx="45" ry="16"/>
  <ellipse fill="#E3E6E9" cx="790.9" cy="580.7" rx="45" ry="16"/>
  <path fill="none" stroke="#535461" stroke-miterlimit="10" stroke-width="2" d="M789 583s12-40.8-2.2-71a64.5 64.5 0 01-5.2-40.4 108.5 108.5 0 015.7-19"/>
  <path fill="#69BFA3" d="M778.4 433.6c0 5 9 19.5 9 19.5s9.1-14.5 9.1-19.5a9 9 0 00-18.1 0zM763.4 461.4c2.7 4.2 18.2 11.4 18.2 11.4s-.2-17-3-21.3a9 9 0 10-15.2 9.9zM764 508.7c4.5 2.3 21.6.7 21.6.7s-8.9-14.6-13.4-16.9a9 9 0 10-8.1 16.2zM772.6 544.5c4 3 21.1 4.3 21.1 4.3s-6.3-16-10.3-18.9a9 9 0 00-10.8 14.6zM800.7 473.8c-3.6 3.5-20.4 7-20.4 7s4.1-16.5 7.7-20a9 9 0 0112.7 13zM810.1 515.7c-4.4 2.3-21.5.7-21.5.7s9-14.6 13.4-16.8a9 9 0 018.2 16.2zM813.8 557.7c-4 3-21.1 4.3-21.1 4.3s6.3-15.9 10.3-18.9a9 9 0 0110.8 14.6z"/>
  <path fill="none" stroke="#535461" stroke-miterlimit="10" stroke-width="2" d="M63.9 514.7s25.7-87.1-4.8-151.3A138 138 0 0148 277a231.5 231.5 0 0112.2-40.5"/>
  <path fill="#69BFA3" d="M41.2 196c0 10.6 19.4 41.6 19.4 41.6s19.3-31 19.3-41.7a19.3 19.3 0 10-38.7 0zM9.3 255C15 264 48 279.6 48 279.6s-.6-36.5-6.4-45.4a19.3 19.3 0 00-32.5 21zM10.6 356.2c9.6 4.8 46 1.5 46 1.5s-19-31.2-28.5-36a19.3 19.3 0 00-17.5 34.5zM28.9 432.5c8.6 6.3 45 9.2 45 9.2s-13.4-34-22-40.3a19.3 19.3 0 00-23 31zM88.7 281.6c-7.6 7.4-43.3 15.1-43.3 15.1s8.7-35.4 16.4-42.9a19.4 19.4 0 0127 27.8zM109 371c-9.5 4.9-46 1.6-46 1.6s19-31.3 28.6-36A19.3 19.3 0 11109 371zM116.7 460.7c-8.5 6.4-45 9.3-45 9.3s13.4-34 22-40.4a19.3 19.3 0 0123 31.1zM379.1 299.8l-55.7-7.2c-2.2-.3-4-1.2-4-2 .2-.7 2-1 4.4-.7l55.6 8c1.5.3 2.7.9 2.6 1.4 0 .4-1.3.7-2.9.5zM379.5 300.7l-55.9-5.7c-2.3-.3-4.2.2-4.3.9 0 .8 1.8 1.5 4 1.7l56 5c1.6.2 2.8-.1 2.9-.6 0-.6-1.2-1.1-2.7-1.3zM463.4 342.8l55.7-7.2c2.2-.3 4-1.2 4-2-.2-.7-2-1-4.4-.7l-55.6 8c-1.5.3-2.7.9-2.6 1.4 0 .4 1.3.7 2.9.5zM463 343.7l55.9-5.7c2.3-.3 4.2.2 4.3.9 0 .8-1.8 1.5-4 1.7l-56 5c-1.6.2-2.8-.1-2.9-.6 0-.6 1.2-1.1 2.7-1.3z"/>
  <path fill="#222528" d="M265.4 402.6H279v194.9h-13.6zM562.3 402.6h13.6v194.9h-13.6z"/>
  <path fill="#E3E6E9" d="M260.3 386.8h314a22 22 0 0122 22v2.9h-358v-3a22 22 0 0122-22z"/>
  <path d="M259.3 386.8h314a22 22 0 0122 22v2.9h-358v-3a22 22 0 0122-22z" opacity=".1"/>
  <path fill="#E3E6E9" d="M260.3 382.2h314a22 22 0 0122 22v3h-358v-3a22 22 0 0122-22z"/>
  <circle fill="#FFD77C" stroke="#ffab50" cx="417.3" cy="339.2" r="27.2" stroke-miterlimit="10"/>
  <circle fill="#FFD77C" stroke="#ffab50" cx="417.3" cy="339.2" r="21.6" stroke-miterlimit="10"/>
  <circle fill="#FFD77C" stroke="#ffab50" cx="417.3" cy="339.2" r="16.4" stroke-miterlimit="10"/>
  <circle fill="#FFD77C" stroke="#ffab50" cx="417.3" cy="339.2" r="9.2" stroke-miterlimit="10"/>
  <circle fill="#FFD77C" stroke="#ffab50" cx="401.4" cy="353.9" r="27.2" stroke-miterlimit="10"/>
  <circle fill="#FFD77C" stroke="#ffab50" cx="401.4" cy="353.9" r="21.6" stroke-miterlimit="10"/>
  <circle fill="#FFD77C" stroke="#ffab50" cx="401.4" cy="353.9" r="16.4" stroke-miterlimit="10"/>
  <circle fill="#FFD77C" stroke="#ffab50" cx="401.4" cy="353.9" r="9.2" stroke-miterlimit="10"/>
  <circle fill="#FFD77C" stroke="#ffab50" cx="433.1" cy="353.9" r="27.2" stroke-miterlimit="10"/>
  <circle fill="#FFD77C" stroke="#ffab50" cx="433.1" cy="353.9" r="21.6" stroke-miterlimit="10"/>
  <circle fill="#FFD77C" stroke="#ffab50" cx="433.1" cy="353.9" r="16.4" stroke-miterlimit="10"/>
  <circle fill="#FFD77C" stroke="#ffab50" cx="433.1" cy="353.9" r="9.2" stroke-miterlimit="10"/>
  <path fill="#33618C" d="M360.6 346h113.3v5.3a40 40 0 01-40 40h-33.3a40 40 0 01-40-40V346z"/>
  <path d="M463.7 346a45.3 45.3 0 01-45.3 44.2h-22.5a45.4 45.4 0 0010 1.1h22.6A45.3 45.3 0 00474 346z" opacity=".1"/>
  <path fill="#222528" d="M569 551v13.7H274.6V551zM152.2 503.6h11.9v108.2h-11.9zM246.1 503.6H258v108.2h-11.9z"/>
  <path fill="#A1A8AF" d="M267.5 485.8c0 7.2-24.5 13-54.7 13s-53.5-5.8-53.5-13 23.3-13.1 53.5-13.1 54.7 5.9 54.7 13z"/>
  <path fill="#222528" d="M142.7 485.8h124.8v10.8a10.5 10.5 0 01-10.5 10.5h-96.3a18 18 0 01-18-18v-3.4z"/>
  <path fill="#222528" d="M121.5 360.7l2.5-.6a7 7 0 018.4 5.3l31.2 138-4 1a12.7 12.7 0 01-15-9.6L116.1 369a7 7 0 015.3-8.3zM684.4 613.7h-12V505.5h12zM590.5 613.7h-12V505.5h12z"/>
  <path fill="#A1A8AF" d="M569 487.7c0 7.2 24.5 13 54.7 13s53.5-5.8 53.5-13-23.3-13.1-53.5-13.1-54.7 5.9-54.7 13z"/>
  <path fill="#222528" d="M675.8 509h-96.3a10.5 10.5 0 01-10.5-10.4v-11h124.8v3.5a18 18 0 01-18 18z"/>
  <path fill="#222528" d="M676.8 506.3l-3.9-.9 31.2-138.1a7 7 0 018.4-5.3l2.5.6a7 7 0 015.3 8.3L692 496.7a12.7 12.7 0 01-15 9.6z"/>
  <path fill="url(#a)" d="M829.2 567l3.5-1.1s-6-40-6-76v-3.1l.3-6.6c.1-2.8.2-5.5.1-8 .4-34.6-13.3-49.2-13.3-49.2s-16-22.9-25.5-27.3c-.9-2.6-1.8-6-2.7-9.8l1-.7a129.4 129.4 0 0011.3-9.4c5-4.6 9.6-10.3 9.4-16.6a12.2 12.2 0 000-1.9c-1-7.6-9-13.4-12.2-20.6-2.7-6.1-1.9-12.9-4.2-19s-10.6-12-16.8-8.7c-2.3 1.2-3.7 3.3-5.6 4.9-4.8 4-12.4 4.4-18.9 2.5s-8.4-9.2-17.4-9.2a10.5 10.5 0 012.3 1 14.4 14.4 0 00-2.3-.1 10 10 0 016.9 8.4 7 7 0 010 .7c-3.7 2-8.5.8-12.8.8s-9.3 2-8.9 5.6a3.4 3.4 0 000 1.3c.6 2.7 4.2 4.7 4.6 7.2v.2a74.8 74.8 0 01-25.6 7.4c-.3 0-.2.4.3 1h-.3c-1.6 0 9.8 9 11 9.7 4.8 2.1 10.5 3.7 15.6 5.4l.4.1a31.5 31.5 0 00-2.6 12.5c0 15.4 11.1 28.4 26 32 2.9 3.3 5.8 6.9 8.5 10.5h-.2S738 433.8 738.4 468a100 100 0 00.7 12.8c-11-.6-34.9-3.5-53-16.8-24.4-17.8-51.7-12.5-46-1.8s34.8 19.7 39.5 20.6l2.9.7c-5.8 1-9.7 3-9.5 5.5.5 5 25.4 20.6 40.4 21.5a158 158 0 0131.3 6.3c1 20.6-4 26.7-4 26.7l3.9 2.2-1 3a76.4 76.4 0 01-20.5 8.7 112.4 112.4 0 00-25.3 8.4L664 582.2a19.6 19.6 0 00-11.2 15.3c-.7 7 1.3 15.6 12.7 22.5.7 5.6 4.1 12.2 13.1 18.2 17.5 11.7 63.5 46.5 69.8 51.3.1 8.5-1 25.6-11.5 28.2-13.2 3.4-2.6 16 8 15.5a14 14 0 008 .6c11.2-2.7 52.6-17 55.4-38.4a20.5 20.5 0 00.2-2.8 18.7 18.7 0 00-2.7-10.4 18.7 18.7 0 011.1 3c-3.4-7.8-11.7-12.7-18.2-15.5v-.2l-2.8-1a8.4 8.4 0 00-.2-1.7L721 622s28.2-23.2 57.3-19.6 33.8-1.8 33.8-1.8 15-14.2 16.4-30.5l1-.3-.2-2.9z" transform="translate(-148.1 -121.4)"/>
  <path fill="#33618C" d="M601.9 562s2.6 29-10.6 32.6-.9 17.7 9.7 15 49.5-16.8 52.2-38-26.6-28.3-26.6-28.3z"/>
  <path d="M601.9 562s2.6 29-10.6 32.6-.9 17.7 9.7 15 49.5-16.8 52.2-38-26.6-28.3-26.6-28.3z" opacity=".1"/>
  <path fill="#33618C" d="M607.2 562.8s2.7 29.2-10.6 32.7-.9 17.7 9.7 15 49.5-16.8 52.2-38-26.5-28.3-26.5-28.3z"/>
  <path d="M634.6 545.1L610 563.7l.2 3.3c9.3-2.6 29.7-9.4 30-20a48 48 0 00-5.5-1.9z" opacity=".1"/>
  <path fill="#FABEBE" d="M608.5 290.9h10.6v8h-10.6z"/>
  <path fill="#264058" d="M609 419.6s-16.9 13.2-30.7 16.3a102.2 102.2 0 00-23.8 8.4l-31.8 16.1a19.3 19.3 0 00-10.5 15.3c-1 9 2.7 20.8 24.3 27.9l68 56.5 21.3-17.7-72.5-55.6 55.7-34.5z"/>
  <path d="M609 419.6s-16.9 13.2-30.7 16.3a102.2 102.2 0 00-23.8 8.4l-31.8 16.1a19.3 19.3 0 00-10.5 15.3c-1 9 2.7 20.8 24.3 27.9l68 56.5 21.3-17.7-72.5-55.6 55.7-34.5z" opacity=".1"/>
  <path fill="#FABEBE" d="M599.3 360.3s-32.7 1-55.7-16.8-48.7-12.3-43.4-1.7 32.7 19.4 37.2 20.3 68 18.6 68 18.6z"/>
  <path d="M599.3 360.3s-32.7 1-55.7-16.8-48.7-12.3-43.4-1.7 32.7 19.4 37.2 20.3 68 18.6 68 18.6z" opacity=".1"/>
  <path fill="#264058" d="M602.8 411.6l-10.6 31.9S532.5 480 527.6 485c-3.7 3.8-8.8 18.6 8.9 31s66.3 51.2 66.3 51.2 37.1-8 34.5-23l-61-44.2s26.5-23 53.9-19.4 31.8-1.8 31.8-1.8 21.3-21.2 14.2-41.5-73.4-25.7-73.4-25.7z"/>
  <path fill="#FABEBE" d="M589.5 267.6s30.1 32.7 28.3 42.4 23.9-28.3 23.9-28.3-8-19.4-6.2-40.7z"/>
  <path d="M615.8 297.6a87.9 87.9 0 016.4-6.2 89.7 89.7 0 0012.4-12.4c6.2-8 29.2 26.5 29.2 26.5s14.1 16 12.4 54 2.2 88.8 2.2 88.8l-5.4 1.5a30.6 30.6 0 01-27-3.8c-7.1-5-16-10-22.9-10.5-13.2-.9-25.2-8.4-25.2-8.4s5.8-13.7-3-57.9 13.6-75.6 13.6-75.6 1.8 9.6 7.3 4z" opacity=".1"/>
  <path fill="#33618C" d="M681.5 444.3l-5.3 1.8-3.2 1a30.6 30.6 0 01-27-3.8c-7.1-4.9-16-10-22.9-10.5-13.2-.8-28.2-10.6-28.2-10.6s8.8-11.4 0-55.7 13.7-75.5 13.7-75.5 1.8 9.5 7.2 3.9a86.8 86.8 0 016.5-6.2 89.7 89.7 0 0012.4-12.3c6.2-8 29.1 26.5 29.1 26.5s14.2 15.9 12.4 54c-.2 4-.3 8-.3 12.2 0 35.6 5.6 75.2 5.6 75.2z"/>
  <path d="M631 357.7l1 19.4s-46.9 2.7-56.6-7 26.5 28.6 34.5 31c7.5 2.1 26.9 4 37 4.3a15 15 0 0014-8.5 14.2 14.2 0 001.2-8.3c-1.8-11.4 0-36.2 0-36.2z" opacity=".1"/>
  <path fill="#FABEBE" d="M631 356l1 19.4s-46.9 2.6-56.6-7-44.9-7.7-44.2 0c.4 4.8 23.9 20.2 38 21.1s32.7 7.4 40.7 9.7c7.5 2.3 26.9 4.2 37 4.4a15 15 0 0014-8.5 14.2 14.2 0 001.2-8.2c-1.8-11.5 0-36.3 0-36.3z"/>
  <path d="M641.7 299.3s-20.3 2.7-17.7 32.8 6.2 32.7 6.2 32.7 30-2.7 33.6-3.6 1.8-33.6 1.8-33.6-1-29.1-23.9-28.3z" opacity=".1"/>
  <path fill="#33618C" d="M641.7 298.5s-20.3 2.6-17.7 32.7 6.2 32.7 6.2 32.7 30-2.7 33.6-3.6 1.8-33.5 1.8-33.5-1-29.2-23.9-28.3z"/>
  <path d="M634.2 260c-1.4-7 1.4-9.2 2.2-18.1l-46 26.5s5.3 5.7 11.3 13.1a32.8 32.8 0 008.1 1c12 0 18.7-12.9 24.4-22.5z" opacity=".1"/>
  <circle fill="#FABEBE" cx="609" cy="249" r="32.7"/>
  <path d="M617.2 239c-5 3.2-5 10.4-1.8 15.4s8.8 8.2 14 11.3c1.6 1 3.4 1.9 5 1.7a7.4 7.4 0 003.7-1.8 123.5 123.5 0 0010.7-9.4c4.8-4.8 9.5-10.7 8.7-17.3-.8-7.6-8.3-13.3-11.3-20.5-2.6-6-1.8-12.7-4-18.8s-10-11.8-15.9-8.6c-2.1 1.1-3.4 3.3-5.2 4.8-4.5 4-11.7 4.4-17.8 2.6s-7.9-9.2-16.4-9.2c4.2 1.5 7.1 6 6.5 10-3.4 1.9-8 .8-12 .7s-9 2.2-8.3 6c.6 3 5 5.1 4.3 8.1a67.8 67.8 0 01-24.2 7.4c-1.5.2 9.2 9.1 10.4 9.7 4.5 2.2 9.9 3.7 14.6 5.4 12.9 4.4 26 6 39 2.5z" opacity=".1"/>
  <path fill="#222528" d="M617.2 238.1c-5 3.2-5 10.4-1.8 15.4s8.8 8.3 14 11.4c1.6.9 3.4 1.8 5 1.6a7.4 7.4 0 003.7-1.8 123.5 123.5 0 0010.7-9.4c4.8-4.8 9.5-10.7 8.7-17.3-.8-7.6-8.3-13.3-11.3-20.5-2.6-6-1.8-12.7-4-18.8s-10-11.8-15.9-8.6c-2.1 1.2-3.4 3.3-5.2 4.9-4.5 3.9-11.7 4.3-17.8 2.5s-7.9-9.2-16.4-9.2c4.2 1.5 7.1 6 6.5 10-3.4 1.9-8 .8-12 .7s-9 2.2-8.3 6c.6 3 5 5.2 4.3 8.2a67.8 67.8 0 01-24.2 7.4c-1.5.1 9.2 9 10.4 9.6 4.5 2.2 9.9 3.7 14.6 5.4 12.9 4.4 26 6 39 2.5z"/>
  <path fill="#fff" d="M656.2 559.5a19.5 19.5 0 011.4 10.4c-2.6 21.2-41.5 35.3-52.2 38a14 14 0 01-14.2-5.8c1.7 4.6 8.7 9.1 15.1 7.5 10.6-2.6 49.5-16.8 52.2-38a19.4 19.4 0 00-2.3-12.1z" opacity=".1"/>
  <path fill="url(#b)" d="M523.3 705c-.7-1.8-4.8-5.3-24.6-6-13.6-.5-18.2-7.7-19.4-14.6 4.4-.6 8-1.4 9-2.5l-.1-1h.2a93.7 93.7 0 01-1.4-15.3 58.6 58.6 0 011.4-13 38.3 38.3 0 00.7-8.6 312 312 0 00-5.9-46.8l-.8-24.9a17.3 17.3 0 00-9.4-14.9 14.1 14.1 0 00-6.3-1.5s-31.4-5-59.6-7.7c-2-1.6-9-6-25.2-3.4l-9.3-27.2a7.7 7.7 0 01-.2-1c.4-3.5 2.7-8.7 13.4-9l2.3 2 1-2c13.4-.2 86.2-1 90 0 4 1 40.3-7.1 41.3-8.1 14-13.7-41.4-7-41.4-7-5.4.8-23-.2-41-1.7 8.9-13.4 17.3-58.9 17.3-58.9s32-16 22.7-25.2-37.2 20.2-37.2 20.2-11.4 33.3-16.5 43.4c-2 4-4.6 4.8-7 4.3l1.8-1.3S396.4 455 394.3 448a16.8 16.8 0 00-1.5-3.3c-1.1-6.4-3-12.7-7.7-16.9a17.3 17.3 0 00-2.6-2.3c-1.2-.9-2.7-1.6-3.9-2.6l2.3-9.4c16.9-2 30-16 30-33a32.5 32.5 0 00-.9-7.6 14.7 14.7 0 0013-6.3c3.4-5 3.3-12 .4-17.3a21.5 21.5 0 00-4.5-5.8 27 27 0 00-10.5-6.6c-3.5-1.2-7.3-1.9-10-4.2a44 44 0 01-3.3-5 25.6 25.6 0 00-4-4.7c-5-5.1-12-8.3-19.2-9.7a103 103 0 00-26.8-.5c-3.3.2-7.2.8-8.7 3.7-1.1 2.2-.4 4.8-.5 7.3-.5 7.7-9.4 12-17 13.8s-16.9 3.5-20.6 10.3c-3.4 6.1-1 13.5 0 20.4a50 50 0 01-7.5 34.6c-3.3 5.2-7.7 9.8-10.4 15.3a29.2 29.2 0 00-2 19.9c.6 2 1.3 3.9 1 5.9a10.3 10.3 0 01-2.4 4.4 53 53 0 01-37.7 19.5 10.8 10.8 0 003.4 5.2 24.9 24.9 0 007.2 5 107.8 107.8 0 0021.9 8c5 1.4 10.4 2.3 15.6 1.4s10.3-3.9 12.4-8.6c1.2-2.7 1.4-5.8 2.5-8.5 2.2-5.6 7.6-9.2 11.3-13.9a347 347 0 00-1.8 36.8V504a78 78 0 01-9.6 40.8 10.4 10.4 0 00-1.3 6 6.6 6.6 0 002.3 6.1 59.2 59.2 0 00-.9 10.5c0 12.6 4.2 29.6 26.8 33.9l40.3-2s56.9-11 72.4-3a5.7 5.7 0 014.5 5.6 12.8 12.8 0 01-.4 2.5 39.1 39.1 0 00-.5 7.9c0 17 3.6 55.6 3.6 55.6v16.3c-2.6 4-5.7 9.7-5.3 13.9v.6l.1.4v.3l.2.3.1.3.2.4.1.2a4.8 4.8 0 00.4.6c5.2 6 31 17.6 39.3 17 8.8-.4 38.3 1 39.3-12a1.6 1.6 0 000-1.2z" transform="translate(-148.1 -121.4)"/>
  <path fill="#33618C" d="M301.8 558.3s-12 15-7 21 30 17.4 38 17c8.4-.5 37 1 38-12 0 0 2-6-24-7s-18-28-18-28z"/>
  <path d="M158.8 432.2s-12 41 24 48l39-2s55-11 70-3c0 0 6 1 4 9s3 62 3 62v18s34 0 38-4c0 0-3-16 0-29s-5-54-5-54l-.8-24.6a17.2 17.2 0 00-9.1-14.8 13.4 13.4 0 00-6.1-1.6s-68-11-92-9-65 5-65 5z" opacity=".1"/>
  <path fill="#264058" d="M158.8 431.2s-12 41 24 48l39-2s55-11 70-3c0 0 6 1 4 9s3 62 3 62v18s34 0 38-4c0 0-3-16 0-29s-5-54-5-54l-.8-24.6a17.2 17.2 0 00-9.1-14.8 13.4 13.4 0 00-6.1-1.6s-68-11-92-9-65 5-65 5z"/>
  <path fill="#FABEBE" d="M261.8 350.3s8 10 13 0 16-43 16-43 27-29 36-20-22 25-22 25-11 61-21 62-25 0-25 0l-5-11z"/>
  <path d="M261.8 350.3s8 10 13 0 16-43 16-43 27-29 36-20-22 25-22 25-11 61-21 62-25 0-25 0l-5-11z" opacity=".1"/>
  <path fill="#33618C" d="M225.8 300.3s18 21 20 28 24 25 24 25-16 12-13 18-21-20-21-20l-28-41z"/>
  <path d="M225.8 300.3s18 21 20 28 24 25 24 25-16 12-13 18-21-20-21-20l-28-41z" opacity=".1"/>
  <path fill="#FABEBE" d="M237.8 276.3s-9 29-9 40-38-3-37-9 22-28 23-37 23 6 23 6z"/>
  <path d="M207.8 296.3s-35-9-40 42 4 57-11 88 102 4 102 4-6-7-25-4l-9-27s-3-12 14-12 9-35 9-35-9-30-14-33-14-21-26-23z" opacity=".1"/>
  <path fill="#33618C" d="M207.8 294.3s-35-9-40 42 4 57-11 88 102 4 102 4-6-7-25-4l-9-27s-3-12 14-12 9-35 9-35-9-30-14-33-14-21-26-23z"/>
  <path fill="#FABEBE" d="M242.8 366.3s73 8 85 6c0 0 53.5-6.7 40 7-1 1-36 9-40 8s-89 0-89 0l-1-10z"/>
  <path d="M186.8 341.3l53 48s10-20 13-20-36-59-36-59-10-12-16-6-24 2-14 37z" opacity=".1"/>
  <path fill="#33618C" d="M185.8 339.3l53 48s10-20 13-20-36-59-36-59-10-12-16-6-24 2-14 37z"/>
  <circle fill="#FABEBE" cx="228.8" cy="261.3" r="33"/>
  <path d="M257.6 253c5.6 2.2 12.5-.5 15.8-5.5s3.2-11.9.4-17.2-7.9-9.3-13.6-11.3c-3.4-1.2-7.2-1.9-9.9-4.4-1.6-1.6-2.6-3.8-3.9-5.7-4.6-7.3-13-11.6-21.4-13.3s-17.3-1-25.9-.5c-3.2.3-7 .9-8.5 3.7-1 2.2-.3 4.8-.5 7.2-.4 7.7-9 12-16.4 13.8s-16.2 3.5-19.8 10.3c-3.3 6-1 13.4 0 20.2a50.5 50.5 0 01-7.2 34.3c-3.3 5.1-7.5 9.7-10 15.2a29.6 29.6 0 00-2 19.7c.5 1.9 1.2 3.9.9 5.8a10.3 10.3 0 01-2.3 4.4A50.9 50.9 0 0196.8 349c1.2 4.3 5.3 7 9.3 9a102.7 102.7 0 0021.2 8c4.9 1.4 10 2.3 15 1.4s10-3.8 12-8.5c1.3-2.7 1.5-5.7 2.5-8.5 2.4-6.2 8.8-10 12.2-15.6 3.3-5.5 4.5-6.1 5.4-12.4s2.6-13 7.8-16.7c5.4-3.9 13-3.2 19-.2s9.7 1.8 14.7 6.2a122 122 0 0029.2 18.8c-1-8.7-2.6-18.4-9.7-23.6-2-1.5-4.5-2.7-5.6-5-1.7-3.6 1.2-8 0-11.8s-6.4-5.2-8.6-8.6c-1.9-3-1.3-7 .4-10s4.6-5.1 7.3-7.2l7.5-5.5a26.7 26.7 0 006-5.3c1-1.4 1.7-4.4 3.1-5.3 3.5-2.5 9 3.4 12.2 4.7z" opacity=".1"/>
  <path fill="#222528" d="M256.6 252c5.6 2.2 12.5-.5 15.8-5.5s3.2-11.9.4-17.2-7.9-9.3-13.6-11.3c-3.4-1.2-7.2-1.9-9.9-4.4-1.6-1.6-2.6-3.8-3.9-5.7-4.6-7.3-13-11.6-21.4-13.3s-17.3-1-25.9-.5c-3.2.3-7 .9-8.5 3.7-1 2.2-.3 4.8-.5 7.2-.4 7.7-9 12-16.4 13.8s-16.2 3.5-19.8 10.3c-3.3 6-1 13.4 0 20.2a50.5 50.5 0 01-7.2 34.3c-3.3 5.1-7.5 9.7-10 15.2a29.6 29.6 0 00-2 19.7c.5 1.9 1.2 3.9.9 5.8a10.3 10.3 0 01-2.3 4.4A50.9 50.9 0 0195.8 348c1.2 4.3 5.3 7 9.3 9a102.7 102.7 0 0021.2 8c4.9 1.4 10 2.3 15 1.4s10-3.8 12-8.5c1.3-2.7 1.5-5.7 2.5-8.5 2.4-6.2 8.8-10 12.2-15.6 3.3-5.5 4.5-6.1 5.4-12.4s2.6-13 7.8-16.7c5.4-3.9 13-3.2 19-.2s9.7 1.8 14.7 6.2a122 122 0 0029.2 18.8c-1-8.7-2.6-18.4-9.7-23.6-2-1.5-4.5-2.7-5.6-5-1.7-3.6 1.2-8 0-11.8s-6.4-5.2-8.6-8.6c-1.9-3-1.3-7 .4-10s4.6-5.1 7.3-7.2l7.5-5.5a26.7 26.7 0 006-5.3c1-1.4 1.7-4.4 3.1-5.3 3.5-2.5 9 3.4 12.2 4.7z"/>
  <g fill="#fff" opacity=".1">
    <path d="M327.6 557.1a34.6 34.6 0 011.1-7.9l-.4.2a34.8 34.8 0 00-.7 7.7zM332.8 594.3c-8 .4-33-11-38-17a5.3 5.3 0 01-1.2-2.9 6.3 6.3 0 001.1 4.8c5 6 30 17.5 38 17 8.6-.5 37 1 38-12a1.6 1.6 0 000-1c-2.4 12-29.7 10.6-38 11z"/>
  </g>
  <path fill="#FFD77C" stroke="#ffab50" stroke-miterlimit="10" stroke-width=".3" d="M372.3 295.8h1v41h-1zM373.3 295.8h1v41h-1zM374.3 295.8h1v41h-1zM375.3 295.8h1v41h-1zM376.3 295.8h1v41h-1zM377.3 295.8h1v41h-1zM378.3 295.8h1v41h-1z"/>
</svg>
