<svg xmlns="http://www.w3.org/2000/svg" viewBox="0 0 747.8 668.8">
  <path fill="#264058" d="M700 130.3c26.8 39 20.9 89.5 20.9 89.5s-49.3-12.7-76-51.7-20.8-89.5-20.8-89.5 49.2 12.7 76 51.7z"/>
  <path fill="#33618C" d="M680.8 137.7c3.2 47.2 39 83.2 39 83.2s30.9-40.4 27.7-87.6-39-83.2-39-83.2-30.8 40.5-27.7 87.6z"/>
  <path fill="#E3E6E9" d="M374 1l362.8 182.4a17.2 17.2 0 019.4 16.5l-21 312.2a8.5 8.5 0 01-12.4 7l-371-189.4 19-321.1A9.1 9.1 0 01374 1z"/>
  <path fill="#222528" d="M378.2 7.3l353.9 178a16.7 16.7 0 019.2 16L720.7 506a8.3 8.3 0 01-12 6.8L346.7 328l18.6-313.2a8.9 8.9 0 0113-7.5z"/>
  <path fill="#FFFFFF" d="M393.7 31l320.8 161.2a15.2 15.2 0 018.3 14.6l-18.6 276a7.5 7.5 0 01-11 6.3l-328-167.5 16.9-283.9a8 8 0 0111.6-6.7z"/>
  <path fill="#E3E6E9" d="M62.7 483.3l363.3 183a24.2 24.2 0 0021.8 0l268.7-136.5c3.1-3.1 2.7-7.8 1.7-11.3a25.2 25.2 0 00-2-4.9l-36.6-19.3-307.9-153.6-18.4-9.7a34 34 0 00-31.6-.2l-259 134.6a10 10 0 000 18z"/>
  <path d="M62.7 483.3l363.3 183a24.2 24.2 0 0021.8 0l268.7-136.5c3.1-3.1 2.7-7.8 1.7-11.3l-268 139.3a23.4 23.4 0 01-21.1.1L57.3 472.7a10 10 0 005.4 10.6z" opacity=".1"/>
  <path fill="#A1A8AF" d="M407.5 538.1L290 478.7a16.5 16.5 0 00-15.3.2l-68.2 36.4a4.9 4.9 0 00.1 8.7l120 60.5a13.6 13.6 0 0012.7-.3l68.5-38.6a4.2 4.2 0 00-.2-7.5zM684.6 528.2L558 595.4a10.3 10.3 0 01-9.5.1L190.8 414.7a6 6 0 010-11l123.7-61a13.4 13.4 0 0112 0l358 180.3a2.9 2.9 0 010 5.2z" opacity=".3"/>
  <path fill="#33618C" d="M482 194.1l.6-1.2L599 251l-.6 1.3zM482 211.2l.6-1.3 116.5 59.6-.7 1.2zM503.3 243.7l.6-1.2 66.7 34-.6 1.3z"/>
  <path fill="#222528" d="M139.5 313.5s-28.4-12.3-41.7.7 35.7 8.8 41.7-.7z"/>
  <path fill="#222528" d="M90.5 254.9C100.1 238.8 119 238 119 238s18.4-2.3 30.2 22.2c11 22.9 26.2 45 2.5 50.3l-4.3-13.3-2.7 14.3a92.8 92.8 0 01-10.1.2c-25.4-.8-49.6.3-48.9-8.9 1-12-4.3-32.4 5-47.9z"/>
  <path fill="#FABEBE" d="M77.2 547s12 22.4 19.8 22.4 6.8 14.6 5.1 18-6 11.2.9 22.4c2.4 4 2 8.4.4 12.5-4.4 11.5-21.6 8-21-4.3v-.4c.8-13.8-6-35.3-13-40.5s-12.9-18.9-12.9-18.9zM159.7 541.9s-12 22.3-19.7 22.3-7 14.7-5.2 18.1 6 11.2-.9 22.4c-2.4 3.9-2 8.3-.4 12.4 4.5 11.5 21.6 8 21.1-4.3v-.4c-.9-13.8 6-35.3 12.9-40.4s12.9-19 12.9-19z"/>
  <path fill="#264058" d="M150.3 431.8l5.1 11.2s75.7 25 68.8 54.2-40.4 74.8-45.5 73-32.7-6.8-33.6-21.4 19.8-40.5 19.8-40.5l-28.4-25.8-41.3-.8L60 508.3S97 541 80.6 554s-40.4 21.5-43.8 16.4S-5.4 488.6.6 481.7 67.7 449 67.7 449l16.4-23.2 63.6-3.5z"/>
  <path fill="#FABEBE" d="M134.8 289.9s-4.3 28.4 4.3 31.8-17.2 18-17.2 18h-14.6L97.8 320s8.6-15.5 3.5-30.1 33.5 0 33.5 0z"/>
  <path d="M134.8 289.9s-4.3 28.4 4.3 31.8-17.2 18-17.2 18h-14.6L97.8 320s8.6-15.5 3.5-30.1 33.5 0 33.5 0z" opacity=".1"/>
  <path fill="#E3E6E9" d="M140.8 314l-11.2 12c-1.8 1.7-9.4 11.2-25.8-2.6s-18 2.6-18 2.6v103.2s13.7-6 25 0 34.3-1.7 34.3-1.7l4.3-106.6z"/>
  <path fill="#33618C" d="M134.5 314s8-3.5 15 0 30.9 20.6 29.2 28.4-24.1 61.9-8.6 87.7 18 32.7 18 32.7L150.3 443s-29.3-18-26.7-29.3 10.9-99.7 10.9-99.7zM100.4 314s-18 1.7-19 3.4-27 9-25.3 16.8 25.4 77 15 89.9-27.5 31-21.4 32.6 16.3-2.5 26.6 0 34.4-18.9 31.8-42.1 0-94.6-7.7-100.6z"/>
  <path fill="#FABEBE" d="M143.4 478.2v8.6s4.3 19.8-9.5 19-5.1-24.1-5.1-24.1l.8-7.8zM104.7 479.1s9.5 19.8 0 21.5-16.3-11.2-16.3-14.6 16.3-6.9 16.3-6.9z"/>
  <ellipse fill="#FABEBE" cx="92.2" cy="278.3" rx="1.7" ry="3.4"/>
  <ellipse fill="#FABEBE" cx="143" cy="278.3" rx="1.7" ry="3.4"/>
  <path fill="#33618C" d="M77.2 325.2s-21.5 0-20.7 8.6 29.3 156.5 29.3 156.5 12-11.2 22.3-8.6zM160.6 327.7s21.5 4.3 21.5 17.2-31 136.8-35.3 136.8-20.6-2.6-20.6-6.9 34.4-147 34.4-147z"/>
  <path d="M155.9 353.1l-19.4 75.7s9-66.2 19.4-75.7zM80.6 342.5l19.6 99s-6.3-93.3-19.6-99z" opacity=".2"/>
  <circle fill="#FABEBE" cx="117.6" cy="278.7" r="24.9"/>
  <path fill="#222528" d="M94.7 253.3l18.7-9.7 25.7 4 5.3 23.5-13.2-.5-3.7-8.7v8.5l-6.1-.2-3.6-13.7-2.2 14.6-21.8-.4.9-17.4z"/>
  <path fill="#F7F8F9" d="M374.3 108.6L364 133l86.8 45.5L480 93"/>
  <path fill="#33618C" d="M448.8 163.5l38.3-90.1L399 30l-37 88 86.8 45.5z"/>
  <path fill="#FFFFFF" d="M396.3 65.7l.6-1.2 66.7 34-.6 1.3zM391.3 77.7l.6-1.2 66.7 34-.6 1.3z"/>
</svg>
