<svg xmlns="http://www.w3.org/2000/svg" viewBox="0 0 728 754.9">
  <path fill="#E3E6E9" d="M137.7 282l27.6-18.1 287.4 438.2-27.6 18z"/>
  <path fill="#E3E6E9" d="M99.6 99l63.8 97.4a8.5 8.5 0 01-14.2 9.3L75.8 93.8a60.6 60.6 0 00-29.1 4.8l80 122a8.5 8.5 0 01-14.3 9.2L32.4 108a60.6 60.6 0 00-16 24.8l73.4 112a8.5 8.5 0 01-14.2 9.3l-63.8-97.4c-1.7 27.2 7.2 59.3 26.6 89 36 54.9 94.8 80 131.3 56.1s36.8-87.9.8-142.8c-19.4-29.6-45.4-50.5-71-59.9zM256 204h33v524h-33z"/>
  <ellipse fill="#E3E6E9" cx="272" cy="119" rx="79" ry="119"/>
  <ellipse fill="#A1A8AF" cx="272" cy="119" rx="65" ry="97.9"/>
  <ellipse fill="#E3E6E9" cx="364" cy="734" rx="364" ry="20.9"/>
  <path fill="#F7F8F9" d="M579.3 733.7a1162.8 1162.8 0 00-412.6 0 15 15 0 01-17.7-14.8V532h448v186.9a15 15 0 01-17.7 14.8z"/>
  <path fill="#F7F8F9" d="M556 394a92.9 92.9 0 00-30.4 5 179 179 0 00-324.4-1.6 93 93 0 1012.1 174.8 179 179 0 00300.8-2.2A93 93 0 10556 394z"/>
  <path fill="#222528" d="M185 474h-2a178.4 178.4 0 0117.2-77l1.9.9A176.4 176.4 0 00185 474zM543 474h-2a176.5 176.5 0 00-16.3-74.5l1.8-.8A178.5 178.5 0 01543 474zM149.2 619l-.4-2c.5-.1 57.4-14 140.7-21 76.8-6.4 192.6-8 307.7 21l-.4 2c-114.9-29-230.4-27.4-307.1-21a989.5 989.5 0 00-140.5 21z"/>
  <path fill="#222528" d="M149.2 646l-.4-2c.5-.1 57.4-14 140.7-21 76.8-6.4 192.6-8 307.7 21l-.4 2c-114.9-29-230.4-27.4-307.1-21a989.5 989.5 0 00-140.5 21z"/>
  <path fill="#222528" d="M149.2 673l-.4-2c.5-.1 57.4-14 140.7-21 76.8-6.4 192.6-8 307.7 21l-.4 2c-114.9-29-230.4-27.4-307.1-21a989.5 989.5 0 00-140.5 21z"/>
  <path fill="#264058" d="M517.3 526.2l-24.3-8.3 23.3-118.7-16-1.5c-15.6 12-36.4 16.7-63 13.1l42.7 64.5-21.8 15.3-69.4-83.2a20.9 20.9 0 01-4.8-13.3 20.9 20.9 0 0115-20.1l74.2-21.3 86.7 9.7c13.1 20 13.6 33.9-6.3 37.9z"/>
  <path fill="#264058" d="M492.5 572.3a16 16 0 01-13.9-21.7l12-31c6.2-11.5 14.6-10 24.5 0l4.8 14.3a9.2 9.2 0 01-.5 7.1l-11.8 22.7a16 16 0 01-15.1 8.6zM461.2 531.8a16 16 0 01-14-21.7l12.1-31c6.2-11.6 14.5-10.1 24.5 0l4.8 14.2a9.2 9.2 0 01-.5 7.2l-11.8 22.7a16 16 0 01-15.1 8.6z"/>
  <circle fill="#FABEBE" cx="476.6" cy="212.1" r="27.1"/>
  <path fill="#FABEBE" d="M518.7 250.4l-37.3 19.4-7.7-34.9 25.6-16 19.4 31.5z"/>
  <path fill="#33618C" d="M563.8 367.2c-37.2-11.2-71-17-95.5-8.2 8.4-23.7-7.1-60-24.2-97 7.4-9.6 19.1-13.3 32.5-15 14.5 10.6 24.7 3.8 32.4-12.6 16.9-.7 33.1 5.3 49 15.5a167.2 167.2 0 005.8 117.3z"/>
  <path fill="#33618C" d="M467.8 364.8a58.3 58.3 0 00-16.4 16.5 90.4 90.4 0 01-22.5-18.7 40 40 0 01-7.4-37.5l16.6-53.8a23.6 23.6 0 017.7-11.4l2.2-1.7 21.8 41.2L448 340c2.7 7.4 10.9 16 19.8 24.7z"/>
  <path fill="#FABEBE" d="M475.3 405.8a14 14 0 01-19.6-10.7l-3.6-24.7 12.6-6.8 16 21a14 14 0 01-5.4 21.2z"/>
  <path fill="#222528" d="M504 211h-4.7L486.5 193a68.6 68.6 0 00-41.4 19.8l-1.2-7.7a29.1 29.1 0 0123-32.8 29.1 29.1 0 0134.5 23.6z"/>
  <path fill="#FABEBE" d="M451.8 381.3a14 14 0 0110.7-19.7l24.7-3.6 6.8 12.6-21 16a14 14 0 01-21.2-5.3z"/>
  <path fill="#33618C" d="M568.5 358.8a275.6 275.6 0 00-76 19.6 37.1 37.1 0 00-8.2-21.9c24.4-6.4 46.5-14 60.1-25.6l-8.2-62 17.9-20.4 3 1.6a20.7 20.7 0 0110.6 13.1 252 252 0 018.6 84.3 10.5 10.5 0 01-7.8 11.3zM95.9 728.1q-32.8 20.5-65.5 0a4.4 4.4 0 01-2.1-4.1l6.8-88.6h55.1L98 724a4.4 4.4 0 01-2.1 4.1z"/>
  <ellipse fill="#33618C" cx="62.4" cy="636.4" rx="27.8" ry="10"/>
  <path fill="#264058" d="M84.2 633q-21.7 15.3-42 0v-16h42z"/>
  <ellipse fill="#33618C" cx="63.2" cy="617" rx="21" ry="8"/>
  <path fill="#33618C" d="M700.9 728.1q-32.8 20.5-65.5 0a4.4 4.4 0 01-2.1-4.1l6.8-88.6h55.1L703 724a4.4 4.4 0 01-2.1 4.1z"/>
  <ellipse fill="#33618C" cx="667.4" cy="636.4" rx="27.8" ry="10"/>
  <path fill="#264058" d="M689.2 633q-21.7 15.3-42 0v-16h42z"/>
  <ellipse fill="#33618C" cx="668.2" cy="617" rx="21" ry="8"/>
</svg>
