<svg xmlns="http://www.w3.org/2000/svg" viewBox="0 0 698 698">
  <path fill="#BBDDFF" d="M350 689.8a340 340 0 00187.8-56.2c-12.6-68.8-60.5-72.8-60.5-72.8H213s-45.2 3.7-59.3 67a340 340 0 00196.2 62z"/>
  <circle fill="#BBDDFF" cx="346.4" cy="339.6" r="164.9"/>
  <path fill="#FFFFFF" d="M296.5 473h99a3.4 3.4 0 013.4 3.4v81.1a52.8 52.8 0 01-52.9 52.9 52.8 52.8 0 01-52.8-52.9v-81.1a3.4 3.4 0 013.3-3.4z"/>
  <circle fill="#FFFFFF" cx="346.4" cy="372.4" r="151.4"/>
  <path fill="#BBDDFF" d="M238.5 232.8s63.8 129.5 243.9 54.3l-42-65.8-74.3-26.6z"/>
  <path fill="#BBDDFF" d="M238 224a87.5 87.5 0 0121.6-35.3c29.8-29.4 78.6-35.6 103.7-69.2 6 9.3 1.4 23.6-9 27.6 24-.1 51.8-2.2 65.4-22a44.9 44.9 0 01-7.6 47.4c21.3 1 44 15.4 45.3 36.7 1 14.2-8 27.6-19.5 35.7s-25.7 11.8-39.6 14.9c-40.4 8.9-186.8 46.3-160.4-35.8z"/>
  <ellipse fill="#FFFFFF" cx="194.9" cy="372.3" rx="14.1" ry="26.4"/>
  <ellipse fill="#FFFFFF" cx="497.8" cy="372.3" rx="14.1" ry="26.4"/>
</svg>
