<svg xmlns="http://www.w3.org/2000/svg" viewBox="0 0 1177.8 724.5">
  <path fill="#F7F8F9" d="M1064.8 705.7c0 6.9-23.5 13.3-64.6 18.8H223.6a195.7 195.7 0 01-98.4-26.3l-.5-.3a328 328 0 0162.1-12h1.3c13-1.7 27.5-3.2 43.4-4.6l1.2-.1q19-1.7 40.2-3.2h1.4q8.2-.7 16.8-1.2l2.2-.1a3998 3998 0 01140-6l21.8-.6 24.7-.5 19.3-.3h.1a5997.2 5997.2 0 01302.4 3.2h.2l28.9 1.2 8 .4 31 1.7c118.3 6.7 195.1 17.6 195.1 30z"/>
  <g>
    <path fill="#3F3D56" d="M680.3 664a19 19 0 01-.4 3.2q-10.4-1.6-21-3v-.8a16.9 16.9 0 012.5-8.5c2-3.3 5.2-5.3 8.6-5.2s6.5 2.3 8.3 5.7a16.9 16.9 0 012 8.6z"/>
    <ellipse fill="#3F3D56" cx="681.2" cy="734.3" rx="14" ry="10.7" transform="rotate(-88.2 630.4 696.2)"/>
    <ellipse fill="#3F3D56" cx="681.8" cy="717.2" rx="14" ry="10.7" transform="rotate(-88.2 631 679)"/>
    <ellipse fill="#3F3D56" cx="682.3" cy="700.1" rx="14" ry="10.7" transform="rotate(-88.2 631.5 662)"/>
    <ellipse fill="#3F3D56" cx="682.8" cy="683" rx="14" ry="10.7" transform="rotate(-88.2 632 644.8)"/>
    <path fill="#69BFA3" d="M635.4 476.8a49.7 49.7 0 01-3.8-6l28.2-3.7-30.4-.8a51.4 51.4 0 01.3-40.6l40.1 22.4-36.7-28.8a51.3 51.3 0 1182.8 60 50.8 50.8 0 015.6 9.5l-37.1 17.8 39.3-11.8a51.3 51.3 0 01-9.8 48 51.3 51.3 0 11-80.6-2.6 51.3 51.3 0 012-63.4z"/>
    <path d="M726 511.4a51 51 0 01-12 31.3 51.3 51.3 0 11-80.7-2.5c-6.5-9 92.8-34.6 92.6-28.8z" opacity=".1"/>
  </g>
  <g>
    <path fill="#3F3D56" d="M528.3 664a19 19 0 01-.4 3.2q-10.4-1.6-21-3v-.8a16.9 16.9 0 012.5-8.5c2-3.3 5.2-5.3 8.6-5.2s6.5 2.3 8.3 5.7a16.9 16.9 0 012 8.6z"/>
    <ellipse fill="#3F3D56" cx="529.2" cy="734.3" rx="14" ry="10.7" transform="rotate(-88.2 478.4 696.2)"/>
    <ellipse fill="#3F3D56" cx="529.8" cy="717.2" rx="14" ry="10.7" transform="rotate(-88.2 479 679)"/>
    <ellipse fill="#3F3D56" cx="530.3" cy="700.1" rx="14" ry="10.7" transform="rotate(-88.2 479.5 662)"/>
    <ellipse fill="#3F3D56" cx="530.8" cy="683" rx="14" ry="10.7" transform="rotate(-88.2 480 644.8)"/>
    <path fill="#69BFA3" d="M483.4 476.8a49.7 49.7 0 01-3.8-6l28.2-3.7-30.4-.8a51.4 51.4 0 01.3-40.6L518 448 481 419.3a51.3 51.3 0 1182.8 60 50.8 50.8 0 015.6 9.5l-37.1 17.8 39.3-11.8a51.3 51.3 0 01-9.8 48 51.3 51.3 0 11-80.6-2.6 51.3 51.3 0 012-63.4z"/>
    <path d="M574 511.4a51 51 0 01-12 31.3 51.3 51.3 0 11-80.7-2.5c-6.5-9 92.8-34.6 92.6-28.8z" opacity=".1"/>
  </g>
  <g>
    <path fill="#3F3D56" d="M943.5 675a37.3 37.3 0 01-.7 6q-20.1-3.2-40.5-5.7v-1.6a32.5 32.5 0 014.8-16.4c4-6.2 10-10.2 16.6-10s12.4 4.5 16 11a32.5 32.5 0 013.8 16.7z"/>
    <ellipse fill="#3F3D56" cx="935" cy="729.1" rx="27" ry="20.6" transform="rotate(-88.2 884.2 691)"/>
    <ellipse fill="#3F3D56" cx="936" cy="696.1" rx="27" ry="20.6" transform="rotate(-88.2 885.3 658)"/>
    <ellipse fill="#3F3D56" cx="937.1" cy="663.2" rx="27" ry="20.6" transform="rotate(-88.2 886.3 625)"/>
    <ellipse fill="#3F3D56" cx="938.1" cy="630.2" rx="27" ry="20.6" transform="rotate(-88.3 886 592)"/>
    <path fill="#69BFA3" d="M857 314.5a99.3 99.3 0 01-7.3-11.5l54.4-7.2-58.5-1.4a98.9 98.9 0 01.6-78.2l77.2 43.2-70.7-55.6A98.7 98.7 0 111012 319.4a98.7 98.7 0 0110.7 18.4L951.4 372l75.7-22.8a98.8 98.8 0 01-18.8 92.2 98.7 98.7 0 11-155.1-4.9 98.8 98.8 0 013.8-122z"/>
    <path d="M1031.3 381a98.3 98.3 0 01-23 60.4 98.7 98.7 0 11-155-4.9c-12.8-17.2 178.4-66.5 178-55.4z" opacity=".1"/>
  </g>
  <path fill="#F1C0C0" d="M157.8 676.7h25.3l18.7-303.8L387 63.9l-8.1-8.6V33.4L178.7 365.8l-20.9 310.9z"/>
  <path d="M169.4 676.7h13.7l18.7-303.8L387 63.9l-8.1-8.6-191 313-18.5 308.4z" opacity=".1"/>
  <path fill="#F1C0C0" d="M126.9 679.3L606.8 716h.4l464.4-28.5.3-.1v-19.6l-511.7-9.4-426.9-.4h-3.1l-.4 2.2-2.9 19.1z"/>
  <path d="M126.9 679.3L606.8 716h.4l464.4-28.5.3-.4v-18.9h-.4l-464.7 15.6L133.3 658h-.1l-.8.6-2.6 1.6-2.9 19.1z" opacity=".1"/>
  <path d="M126.9 679.3L606.8 716v-32.2l-474.4-25.2-2.6 1.6-2.9 19.1z" opacity=".1"/>
  <path fill="#F1C0C0" d="M378.9 54.8l211.5 227.1-6.5 399.4 18 2.2h18.2l2.2-384.4 396.1 132.3 6.7 235.6 14.4 1.6 5 .5-11.4-254.1L619 269.6l-227.1-236h-13v21.2z"/>
  <path d="M620.6 291.7l1.7 7.4 396.1 132.3 6.7 235.6 14.4 1.6-11.3-242.1-407.6-134.8zM378.9 54.8l211.5 227.1-6.5 399.4 18 2.2 4.9-414.7L378.9 33.6v21.2z" opacity=".1"/>
  <path fill="#F1C0C0" d="M621.4 452l145.3 28.6h.1l254.4 50.1 11.7-4.6-.1-.8-.7-16.3-410.5-82.9-.2 25.9z"/>
  <path d="M766.8 480.6l254.4 50.1 11.7-4.6-.1-.8-266-44.7z" opacity=".1"/>
  <path fill="#F1C0C0" d="M776.5 350.6l3.9 216.3 2.1 111 17.8-.6 11.3-.4-3.5-323.2-7.8-2.6-1.7-.5h-22.1z"/>
  <path d="M776.6 350.5v.1l3.8 216.3 2.1 111 17.8-.6V350.5h-23.7z" opacity=".1"/>
  <path fill="#3F3D56" d="M496.3 405.8a22.8 22.8 0 013 2 19.9 19.9 0 013 3.2c4.3 5.6 8.2 12 7.8 19a7.7 7.7 0 01-2.2 5.6c-1.8 1.5-4.3 1.5-6.7 1.5-2.5 0-5.1 0-7.3-1.3s-4-3.8-6.6-3.7a3.4 3.4 0 01-1.1 0c-.9-.3-1-1.5-1.6-2.2-1-1.4-3.2-1-4.7-.5s-3.3 1.5-4.9.8a5 5 0 01-2.1-2c-3.7-6-4.5-13.3-5.2-20.3-.4-4.2-3.7-18.7 5.3-15.4 4 1.5 7.8 4.3 11.4 6.4z"/>
  <path fill="#3F3D56" d="M487.3 407.2a4.5 4.5 0 005.5-.2 8.3 8.3 0 002.7-5.2c1-.3 1.5 1 2.1 1.8 1.2 1.4 3.4 1.4 4.5 2.8.7 1 .5 2.4 1 3.6.7 1.4 2.3 2.2 3.4 3.3a11.6 11.6 0 012.2 4.4l1.6 5a24.3 24.3 0 011.5 6.3 8.3 8.3 0 01-1.9 6.1c-2.2 2.4-5.8 2.6-9 2.6a11.6 11.6 0 01-3.2-.4c-2.8-.9-4.6-3.7-5.3-6.6s-.7-5.9-1.2-8.8a34.6 34.6 0 00-2.5-8.4c-.8-2-3.3-5.2-3.2-7.4.7 0 1.2.7 1.8 1.1z"/>
  <path fill="#FABEBE" d="M491 397.1a16.5 16.5 0 01-.9-4.4c0-3 1.4-5.8 2.8-8.5l-11.5 1.6c-1.4.2-2.9.4-3.7 1.6a4 4 0 000 3.7 18.9 18.9 0 011.4 3.6 17.8 17.8 0 00.4 3.2 6.8 6.8 0 001.4 2c3.3 3.7 5.7 8 8.2 12.2 0-.2 6.9-5.6 6.6-7.3-.2-1-2.2-2.2-2.8-3.2a16 16 0 01-2-4.5z"/>
  <path fill="#F1C0C0" d="M588.9 358v9.9l-168.7 32.9-8.7 5.3h-30.2v-5.6l165.7-40 41.9-2.5z"/>
  <path d="M588.9 367.9l-168.7 32.9-8.7 5.3h-30.2l167-35.7 40.6-2.5z" opacity=".1"/>
  <path fill="#FAE269" d="M453.5 637.7a13 13 0 00-16-3.4 4.2 4.2 0 00-1.4 1.1c-1 1.4-.3 3.3-.2 5 .2 4.3-3.2 7.7-6.2 10.7-1.6 1.6-3.3 3.2-4 5.4s-.2 4.9 1.8 6a7.4 7.4 0 002.7.8 29.6 29.6 0 009.7.2c3.2-.6 6.3-2.4 7.7-5.3a5.7 5.7 0 011.3-2.2c1.8-1.4 4.5.3 6.5-.7 1.6-.8 1.7-2.1 1.7-3.8 0-4.7-.6-10-3.6-13.8zM477.5 637.5a33 33 0 011.6 10.2c0 2 .1 4.1-1 5.8s-3.2 2.6-5.2 3c-4.2.9-9 0-11.7-3.2-2-2.5-2.5-6-2-9.3.2-2.7 1-5.8-1-7.7l-1.6-1.5c-1-1.2-.9-3-.3-4.5a19.8 19.8 0 001.5-4.5c.1-.8 13.6.5 14.8 1 1.7 1 1.4 2.3 2 4 .7 2.3 2 4.4 2.9 6.7z"/>
  <path fill="#3F3D56" d="M480 493.8c2.6 1.7 3.6 5 4 8.2 1.2 8.6-.8 17.2-1 25.8-.1 12.1 3.4 24.4.4 36.1-1.8 7-.3 15-2 22.1-.4 2.1-1.4 4-1.8 6.2A27 27 0 00481 606a14.2 14.2 0 01.9 3.7 13.4 13.4 0 01-1.5 5.6l-6 14.2c-.7 1.6-3.3 1.9-5 2-3.2.5-6.7.7-9.3-1.2s-3.1-5.3-3.5-8.4a128 128 0 01-1-17.8 14.7 14.7 0 00-.4-4.7c-.5-1.7-1.8-3.2-2-5-.5-2.3.7-4.6 1.1-7a21 21 0 000-6.5l-1.4-9.5c-.7-4.5.3-8.9 1-13.3.6-4.2-.2-8.5-1-12.7a34.8 34.8 0 01-1.3 10c-.5 1.6-1.3 3.2-1.7 4.8-2 7.2 2.3 14.9 1.7 22.4-.3 3.5-1.7 7-1.3 10.5.3 2.5 1.4 4.8 2.3 7.3s1.2 5.2 0 7.4c-3.3 6.2-.9 14.5 2 20.8a28 28 0 011.6 3.5c.8 2.8.1 5.9.4 8.8a5.6 5.6 0 01-4.7-1.4l-1.3-1.5a12.2 12.2 0 00-4.1-2.6 5.5 5.5 0 00-3-.7 6 6 0 00-2.9 1.8 28 28 0 01-3.1 2.4 3.7 3.7 0 01-1.6.7 1.4 1.4 0 01-1.5-.8 1.8 1.8 0 01-.1-.5 79.1 79.1 0 01-.6-9c0-5.3-6.3-8.9-7-14-.7-4.2.5-8.5 0-12.7-.1-2.2-.7-4.3-.7-6.4 0-1.4.4-2.8.5-4.2a31.1 31.1 0 00-.1-4.6l-.3-4.9c-.3-4.7-.6-9.6-2.5-14a47.6 47.6 0 01-4-16c-.1-3.5 0-7-.4-10.5-.4-3.2-1.2-6.4-1-9.5.3-2.5 1-4.9 1.3-7.3.4-4.8-1.4-9.4-2.9-13.9s-2.4-9.6-.6-14a4.6 4.6 0 011.3-1.8 5.6 5.6 0 012.4-.9 183.1 183.1 0 0152.2-3.3 17.3 17.3 0 018 2.5z"/>
  <circle fill="#FABEBE" cx="423.2" cy="371.6" r="16"/>
  <path fill="#FABEBE" d="M420 391.6a5.7 5.7 0 010 2.8 6.3 6.3 0 01-1 1.8 45.2 45.2 0 01-5 5.5 9.3 9.3 0 004.7 4.8 27.8 27.8 0 006.6 1.9 9.3 9.3 0 003.5.2 9.2 9.2 0 003-1.4l8.9-5.3a17.8 17.8 0 003.7-2.7 9.1 9.1 0 002.6-6.2 1.7 1.7 0 00-.3-1.2 2.1 2.1 0 00-1.3-.5c-3.1-.7-5.6-3.2-7-6.1a32.4 32.4 0 01-2.4-9.3l-9.5 5-4.3 2.2c-.9.4-2.8.7-3.4 1.6-1.3 1.5 1 5 1.3 6.9z"/>
  <path fill="#3F3D56" d="M414 398.8a10.6 10.6 0 00-3.1 4.2c-.6 2 0 4 .6 6a181.7 181.7 0 016 25.8c.8 6 1.1 12.1 1.5 18.2.9 12.4 2 32.1 3.7 44.4 6 .3 11.9-1.4 17.8-2 11.1-1.3 22.6 1.4 33.5-1-2.7-10.5-5.3-28.3-8-38.7a73.8 73.8 0 01-2.4-12.6c-.2-3 0-6.1 0-9.2 0-6-.3-12-.6-18-.4-7-.8-14-2.4-20.8a3.9 3.9 0 00-1.2-2.3c-1-.8-2.3-.5-3.5-.3a15.2 15.2 0 01-10.3-2.5c-1.4-.9-3.1-2-4.4-1a4.3 4.3 0 00-1 2.1 10.7 10.7 0 01-6.2 6.2 31.3 31.3 0 01-8.9 1.8 4.3 4.3 0 01-2.7-.3c-1.5-.9-1.6-4-3.3-4.2-1.6-.2-4 3.2-5.1 4.2z"/>
  <path fill="#FAE269" d="M437.6 423.2c-3.7-3.5-5.3-8.6-8-13a29 29 0 00-6.9-7.6 20.6 20.6 0 01-3.7-3.2c-1-1.1-1.7-2.7-3.1-3.1a3.8 3.8 0 00-3.4.9 33.2 33.2 0 00-2.5 2.7c-4.3 4.4-11.7 5-15 10a8.3 8.3 0 00-1.9 3.8 29 29 0 005.4 20.9 7.1 7.1 0 003.7 3 11.6 11.6 0 00.7 5.5 147 147 0 006.8 18.5 44.9 44.9 0 00-1.3 7.2c-.7 6.1 0 12.3-.7 18.5-.6 5-2 9.8-2 14.8 0 .8 0 1.8.7 2.2a2.3 2.3 0 001.2.3l12.3.3c7.1.2 14.3.4 21.3-.9a8.9 8.9 0 002.7-.8c2.4-1.4 3.2-4.4 3.6-7a61 61 0 00.6-10.5c1.5 4.7 3.2 9.6 7.7 11.6 2.4 1.1 5.1 1 7.7 1a145.2 145.2 0 0016.8-1.8 2.2 2.2 0 002.5-2.5v-5.5c.2-11-2.6-21.7-3.7-32.7-.3-3.5-.3-7-1.1-10.4l-1.2-4.3a30.5 30.5 0 01-.5-4.3l-.8-11c-.3-5-.9-10-1.3-15a73 73 0 00-2.1-14.7c-.9-3-2.7-6.4-5.8-6.8-1.7-.2-3.3.6-4.9 1a19.7 19.7 0 01-12 0 16.9 16.9 0 00-3.7-1 3.7 3.7 0 00-3.5 1.4 5.1 5.1 0 00-.5 2.6c-.4 10-1.3 20.2-4 30z"/>
  <path fill="#3F3D56" d="M421.5 423.5a60.7 60.7 0 00-15.2-12.9c-2.4-1.2-5-2.1-7.6-1.6s-5 2.7-5 5.3c.2 1.6 1.2 3 1.5 4.7.3 1.8-.2 3.7.4 5.4a9.2 9.2 0 002 3.1l7 8.4c3 3.5 6 7 10 9.5s8.8 3.5 13 1.8a16.1 16.1 0 007.2-6.6c1.8-2.8 3-5.9 4.6-8.8a43.5 43.5 0 0110-12c-2-.6-4.6-1.4-6-3a10 10 0 01-1-1.8l-1.5-3.5a4 4 0 00-3 1.1 25.2 25.2 0 01-2.3 2.3c-1.4 1-3.3 1.4-4.6 2.6a12.2 12.2 0 00-1.3 1.6 11.2 11.2 0 01-8.2 4.4z"/>
  <path fill="#FABEBE" d="M449.8 402.6c3.5-6.3 3.3-13.9 4.3-21a9.6 9.6 0 012-5.3c2-2.2 5.5-2.3 8.5-2 .9.1 2 .5 2 1.4a1.8 1.8 0 01-.5.9 23.8 23.8 0 00-5 13.1c1.6 1.1 4-1.1 5.5 0 1 .9.6 2.5 0 3.7l-4.3 8.3a26.6 26.6 0 01-4.6 6.6c-1.3 1.2-2.8 2.2-4 3.4-3 2.8-4.9 6.7-8 9.5a1.6 1.6 0 01-1 .5 1.7 1.7 0 01-1-.5 15.2 15.2 0 01-3.8-4.6c-1.2-2.1-1-2.8.9-4.3a33 33 0 009-9.7z"/>
  <path fill="#FAE269" d="M415.7 419.2c.6.4 1.4.8 2 .5a2 2 0 00.7-.6 23.5 23.5 0 002.9-5 1.9 1.9 0 00.2-.8c0-.6-.6-1-1.1-1.4a40.8 40.8 0 00-9.1-4.4c-2.7-1-5.4-1.8-8.2-1.6a7.8 7.8 0 00-5.5 2.8c-2 2.6 1.3 3.3 3.4 4.3 5 2.2 10.2 3.5 14.7 6.2z"/>
  <path d="M412.6 436.2a1.5 1.5 0 00.4 1.3c.3-1.4 0-3 .2-4.3.5-2.2 2.6-3.8 2.7-6-3.8-.7-3.3 6.7-3.3 9z" opacity=".1"/>
  <path d="M588.9 358v9.9l-40.6 2.5-1.3-9.9 41.9-2.5z" opacity=".2"/>
  <path fill="#3F3D56" d="M408.8 374c2.5-2.1 1-6.4 2.8-9.2 1-1.5 2.7-2.3 4.3-3a19.8 19.8 0 016.4-1.8 7.4 7.4 0 016 2.2c.6.8 1 1.7 1.7 2.4a6.5 6.5 0 006.3 2.2c1.3-.3 2.7-1.3 2.6-2.6a3.8 3.8 0 00-1.2-2.2l-2.9-3.2c-3.2-3.6-6.8-7.4-11.6-8.3a20 20 0 00-10 1.4c-1.2.4-2.7 1-3 2.3-.3 1 0 2-.1 2.8-.4 1.8-2.7 2.4-3.8 4s-.8 3.3-1 5-1.3 3.3-1.4 5c0 1 .5 3 1.6 3.4s2.5-1.7 3.3-.4z"/>
  <path fill="#FF9233" d="M438 362.7a30 30 0 00-5.4-12.1 21.3 21.3 0 00-9.5-7.6 13.6 13.6 0 00-11.8 1 17.1 17.1 0 00-5.9 7.4c-2.5 5.6-3.5 12.4-.5 17.8 1.2-1.5 3.3-.8 5-1.4 2.4-.6 4.3-2.1 6.5-3.1 6.5-2.9 14.5-.5 21.5-2z"/>
  <path d="M406.4 362.4c-.2-1.8-.3-3.9 1-5.2a.7.7 0 01.5-.2.7.7 0 01.4.4 22.4 22.4 0 011.8 3.6 3.8 3.8 0 00-4 1.6M429.8 357.3l-.4-3.6a1.6 1.6 0 01.1-.8 1.1 1.1 0 011.5-.4 3 3 0 011.1 1.1 21 21 0 012.1 4.1 12.1 12.1 0 00-4.9 0M438.8 502.2v8.2l-6.9.4h-36.3v-8.6h43.2z" opacity=".1"/>
  <path fill="#F1C0C0" d="M438.8 502.2v8.6h-43.2L281 367.3v-6.8h24.1l133.7 141.7z"/>
  <path d="M438.8 502.2v8.6h-43.2L281 367.3v-6.8h24.1l133.7 141.7z" opacity=".1"/>
  <path d="M438.8 502.2v8.6h-43.2L281 367.3v-6.8l115.2 141.7h42.6z" opacity=".1"/>
  <path fill="#FAE269" d="M296 646a3 3 0 01-2.6 3.6c-2.7 1-5.7 1.9-7.7 4s-2.3 6 0 7.8a7.6 7.6 0 004 1.1c4.6.3 9.3.3 13.4-1.7 3-1.3 5.7-3.6 9-3.4 1.6 0 3.4.8 4.9 0s1.9-2.8 1.9-4.6a34.4 34.4 0 00-1.6-10.9c-.2-.4-6.6-.8-7.3-1l-7.7-1c-1.5-.1-4.6-1.2-5.8 0s-.4 4.7-.4 6.2zM342 621.1a24.1 24.1 0 001.7 5.2c1 2.8 2.4 5.7 5 7 2.4 1.2 5.3.7 7.7-.4a6.4 6.4 0 002.6-2 7.7 7.7 0 001-4.4c0-3.9-.2-7.9-2-11.3-1.5-3-4.2-5.6-4.2-9l-9.1 1.8a2.6 2.6 0 00-1.4.5 2.3 2.3 0 00-.5 1.1 29.8 29.8 0 00-.7 11.5zM233.3 526.1c-.4 3.2-.2 6.7 1.4 9.5s5.3 4.6 8.3 3.5a1.2 1.2 0 00.8-.6 1.4 1.4 0 00-.2-1 14.8 14.8 0 01.4-11.1c.2-.5.6-1 1-.8a1 1 0 01.5.4 5.2 5.2 0 01.7 2.8 10.3 10.3 0 000 2.6c.1.9 1 1.7 1.8 1.3a2 2 0 001-1.3c2.2-6.4 1.2-13.5.1-20.2a1 1 0 00-1.2-1.1c-4.7-.5-7.3-1.6-10 2.8a27.4 27.4 0 00-4.6 13.2z"/>
  <path fill="#3F3D56" d="M288.5 509.7a81.5 81.5 0 00-3 17.7 81.3 81.3 0 00.9 11.1l1 8.7 1.3 8.7a23.1 23.1 0 01.5 4.5 24.3 24.3 0 01-.7 4.5 52 52 0 00-1 9.3c-.2 5 .5 10 .8 15a167 167 0 01-.3 29.9 11.2 11.2 0 001.6 7.7 10 10 0 011.5 2.4c.7 2.3-1 4.6-1.5 7a7 7 0 005.8 8c8 .9 16.3.4 23.5 4.1.7-2.2-1-4.7-.2-7 .5-1.4 1.8-2.3 2.7-3.5a10.2 10.2 0 001.8-6 22.3 22.3 0 00-1.5-8.4c-.9-2.2-2-4.3-2-6.7 0-1.2.4-2.4 0-3.4a5.4 5.4 0 00-1.4-1.7 20.3 20.3 0 01-5.2-11.8 54.6 54.6 0 01.4-13.1c.5-4.2 1.2-8.6 3.8-11.8a75.3 75.3 0 012.1-29.2c.3-1 .7-2 1.6-2.1a2.2 2.2 0 011.9.7c1.6 1.5 2.3 3.6 3 5.7.8 2.2 1.5 4.5 1 6.8-.3 1-.8 1.9-1 2.8a8.4 8.4 0 00.2 5.9 5.6 5.6 0 01.8 2.2 6.1 6.1 0 01-.6 2 8.8 8.8 0 00.8 7 25.9 25.9 0 004.7 5.8 21 21 0 00.6 11.6 1.5 1.5 0 01.1 1c-.1.5-.6.6-1 .9-1 .8-.3 2.3.3 3.4a78.9 78.9 0 006.1 8.4c2 2.4 1.8 7 4.8 7.9a9 9 0 003.8 0c3-.5 6.2-1.3 7.7-4 .6-1 .8-2.3 1.7-3s2.1-1 2.6-2 0-2.2.1-3.3 1.2-2 1.5-3.2c.7-2.7-2.4-4.9-2.8-7.7-.7-4 4.4-7 4.2-11l-1.2-26a188.3 188.3 0 01-.2-23.5c.3-4.8 1-9.9-.8-14.4-2.6-6.4-9.6-10-16.5-10.6s-13.6 1-20.4 2a129 129 0 01-34 .7z"/>
  <circle fill="#FABEBE" cx="308.8" cy="398.1" r="16"/>
  <path fill="#FABEBE" d="M302.2 417.1a6.8 6.8 0 01-6.5 4.1c-.6 2.4.8 4.9 2.4 6.8a28.5 28.5 0 0027.3 9.3 13.4 13.4 0 005.3-2.2 12 12 0 004.1-7.1 35.3 35.3 0 00.4-8.4 2.2 2.2 0 00-.4-1.5 2.2 2.2 0 00-1.4-.5c-3.4-.3-7-.4-9.9-2s-5-5.5-3.6-8.6c-.3.5-6.1.7-6.9.8l-7.2 1.2a13.1 13.1 0 00-3.4.6c-1.4.8-.9.4-.6 1.8.6 2 1.3 3.5.4 5.7z"/>
  <path fill="#3F3D56" d="M314.4 426.9a26.5 26.5 0 01-6.4-.8 9 9 0 01-5.2-3.5c-.8-1-1.3-2.5-2.4-3.1-2-1-4.2.7-5.7 2.2a20.6 20.6 0 01-4.8 3.9c-2.2 1.1-4.7 1.5-6.7 2.9a16.7 16.7 0 00-4 4.3L265 452c-5.7 7.7-10.6 16-15.7 24.3-4.4 7-6.7 15.2-10 22.9a2.6 2.6 0 00-.3 1.5c.1.5.8 1 1.2.6-1.5 1.5-.2 4-.5 6.1a7.5 7.5 0 01-2.4 3.7 18.8 18.8 0 016.6.4 20.2 20.2 0 016.2 3c1.2-.2 1.1-2.4 2-3.2.6-.5 1.4-.4 2-.5 2.8-.6 3.8-3.8 5.9-5.6 1.7-1.5 4.1-2 6-3.4 2.8-2.3 3.5-6.4 5-9.8 1.3-3 3.4-5.4 4.5-8.4.8-2 1.1-4 2.2-5.8 1.7-2.8 5-4.4 8-5.7 2-.9 4-1.8 6.1-1.7-.1 4.7-.7 9.3.3 13.8l1.3 4.8c1.9 7.1 2.3 14.6 2.4 22a67 67 0 0114-1.7c3.7-.1 7.4.4 11.1.3 4.4 0 8.8-1 13.2-1.2s9 0 12.9 2a122.5 122.5 0 01.5-19l1-10a61 61 0 011.4-8.6l2-6.7c2.3-8 2-16.5 1.5-24.9-.2-4.3-1.9-8.5-3.8-12.3a33.3 33.3 0 00-2.4-4 23.6 23.6 0 00-20.7-9.8 4.2 4.2 0 00-1.5.4 5 5 0 00-1.9 2.2 24.5 24.5 0 01-8.7 9zM294.7 403.4c.4-1 1.6-1.4 2.4-2.2 1.4-1.5.7-4 1-6 .3-3 2.8-5.5 5.7-6.5a18.4 18.4 0 019-.6 8.7 8.7 0 014 1.3c.5.4 1 1 1.5 1.3a4 4 0 005.5-1.3c-3.6-4.3-7.5-8.8-12.9-10a26.3 26.3 0 00-5.6-.6c-2.5 0-5-.1-7.4.9a12.3 12.3 0 00-6.4 7.4 36.3 36.3 0 00-1.6 10 37.7 37.7 0 000 6.8 18.8 18.8 0 003.4 8.6 2.6 2.6 0 001 1c4.5 2 0-9.3.4-10z"/>
  <path fill="#FF9233" d="M323.2 387c-.5-4.8-3.9-8.7-7.4-11.8a27.6 27.6 0 00-10-6c-3.9-1.2-8.2-1-11.4 1.3a17.4 17.4 0 00-5.5 7.6 23.9 23.9 0 00-2.5 11c.3 3.8 2.1 7.6 5.4 9.5 1.2-1.7 3.2-2.6 5.2-3.3a254.6 254.6 0 0126.2-8.4z"/>
  <path d="M293 385c.2 0 .4.3.6.6a25.4 25.4 0 012 4c-1 .2-3 .5-3.7-.5-.3-.6 0-4.2 1-4.1zM315.7 382.7c-.2.2-.5-.2-.5-.6v-3.9a.6.6 0 010-.3.5.5 0 01.4-.1c.8-.1 1.5.6 2 1.2a21.1 21.1 0 012 3.4h-4.2" opacity=".1"/>
  <path fill="#3F3D56" d="M368.5 447a26.2 26.2 0 013-2.5c2.7-1.8 6-2.5 9.2-3.7s6.2-3.1 7.4-6.2a14.7 14.7 0 00.6-6 6 6 0 00-.4-2.5 5 5 0 00-1.6-1.7c-4.2-3.1-9.9-3.4-15.1-3a94.8 94.8 0 00-33.4 8.3 2.9 2.9 0 00-1.4 1 2.9 2.9 0 00-.3 1.4 23 23 0 001.1 8.7c1.4 3.5 4.3 6.4 5.4 10 .6 1.7.8 3.4 1.2 5a7 7 0 002.8 4.2c4 2.4 7.7-.8 10.5-3.2z"/>
  <path fill="#FAE269" d="M316.8 460.8l-5.1-11a38.7 38.7 0 01-2-4.8l-1.3-5.9c-1.8-6.4-6.3-11.8-8.5-18.1a3.5 3.5 0 00-.8-1.6 2.7 2.7 0 00-2.2-.4c-3.1.6-5.5 2.9-8.3 4.2-1.3.6-2.7 1-4 1.7a5 5 0 00-2.7 3.2c-.3 1.5.5 3 1.1 4.5 2.7 6.1 3.4 13 3.5 19.7 0 4.5-.2 9.4-2.8 13-5.2 7-1.9 17.3 0 25.8l.7 3.1a28.9 28.9 0 01.2 4c0 4.5-.2 9.1-2.1 13.2a14.8 14.8 0 006 1.7q8.7 1.1 17.5 1.5a19 19 0 005.5-.2 10 10 0 007.4-9.8c.3 2.7.9 5.7 2.9 7.7s5 2.2 7.7 2.3a142.6 142.6 0 0023-.6 4 4 0 001.5-.4c1.5-.7 1.5-2.7 1.4-4.4-.2-3-.4-6.1-.8-9.2a37.6 37.6 0 01-.5-5.8 33.8 33.8 0 011-6 68 68 0 002-19 32 32 0 01-.2-4.7c.2-3.6 2.1-7 1.8-10.4-1-10.4-1.9-21-4.7-30.9-.6-1.8-1.2-3.7-2.8-4.7-2-1.4-4.8-.7-7-1.5a17.8 17.8 0 01-3.1-1.8 14 14 0 00-7-2.1c-1.7-.1-3.8.3-5 1.8a7.3 7.3 0 00-1 2.7c-1.4 6.1-3 12.1-4.8 18.2l-1.6 5.8-4.4 15.5c-.4 1.6-.1 2.1-.5 3.7z"/>
  <path fill="#F1C0C0" d="M342.3 400.3l96.8 101.6v8.6h-43.2l-72.7-94.9"/>
  <path d="M342.3 400.3l96.8 101.6v8.6h-43.2l-72.7-94.9" opacity=".1"/>
  <path d="M324.8 414.3l.3.1 71.5 87.5h42.5v8.6h-43.2l-72.7-94.9 1.6-1.3z" opacity=".1"/>
  <path fill="#FAE269" d="M336 416.4c-3.6 1.6-7.5 3.5-8.5 7.2a4.1 4.1 0 00-.2 2 4 4 0 003.7 2.8 12 12 0 004.8-.8l20.7-6.9c.5-.1 1.2-.4 1.3-1a1.7 1.7 0 00-.2-1c-.6-1.5-1.3-4.7-2.6-5.8-1.1-.9-3.3-.6-4.6-.6-5.1 0-10 2.2-14.5 4.2z"/>
  <path fill="#3F3D56" d="M354.3 421.5a33.2 33.2 0 0110.3 1.6 18.3 18.3 0 018.5 5.8 6.4 6.4 0 011.3 2.7c.2 1 3.5 1.5 2.7 2.2 2.2-.3 1.7.7 4 .7s4.6-.6 5.9-2.4a7.7 7.7 0 001.2-4.9 8.3 8.3 0 00-.7-3.4c-1-2.1-3.3-3.2-5.4-4.2l-17.9-8.2a11.9 11.9 0 00-3.3-1.2 12.3 12.3 0 00-2.9.1l-8 1a12.1 12.1 0 015.4 10.6"/>
</svg>
