<svg xmlns="http://www.w3.org/2000/svg" viewBox="0 0 740.7 473.9">
  <path fill="#FABEBE" d="M319.6 460.9h12.2l5.9-47.3h-18.1v47.3z"/>
  <path fill="#264058" d="M355.5 472.3h-38.6v-14.9h23.7a14.9 14.9 0 0114.9 14.9z"/>
  <path fill="#FABEBE" d="M338.7 454.1l11.7-3.7-8.6-46.9-17.3 5.4 14.2 45.2z"/>
  <path fill="#264058" d="M376.4 454.2l-36.8 11.5-4.5-14.2 22.6-7a14.9 14.9 0 0118.7 9.7zM330.5 432.3l-22.4-58.9c-5 1.2-47.3 10.5-61.4-4.5-4.8-5.2-5.8-12.6-2.8-22.2l8.3-10.4h.2c3.1.2 76.4 4.3 81.5 26.4l14.2 63.6a4.5 4.5 0 01-2.8 5.2l-9 3.4a4.5 4.5 0 01-1.6.3 4.5 4.5 0 01-4.2-2.9z"/>
  <path fill="#264058" d="M317.5 439.3l-22.4-58.9c-5 1.2-47.3 10.5-61.4-4.5-4.8-5.2-5.8-12.6-2.8-22.2l8.3-10.4h.2c3.1.2 76.4 4.3 81.5 26.4l14.2 63.6a4.5 4.5 0 01-2.8 5.2l-9 3.4a4.5 4.5 0 01-1.6.3 4.5 4.5 0 01-4.2-2.9z"/>
  <path fill="#FABEBE" d="M347.8 298.2a10.5 10.5 0 00-.9 1.4l-49.3 5.2-7.1-9.8-16 8.8 13.9 23.7 60.4-15.5a10.5 10.5 0 10-1-13.8z"/>
  <path fill="#33618C" d="M230.6 356.8a4.5 4.5 0 01-1.8-4.3c2.8-18.4-.4-44.7-3.6-63.5a24.8 24.8 0 0127.5-28.7 79.9 79.9 0 0110 2 24.6 24.6 0 0118.5 24.4c-.4 18.1 3.2 40.8 4.8 49.7a4.5 4.5 0 01-.8 3.5 4.4 4.4 0 01-3 1.7c-17.9 1.9-37 10.5-47 15.6a4.5 4.5 0 01-2 .5 4.4 4.4 0 01-2.6-.9z"/>
  <path fill="#33618C" d="M278.7 309.5a4.5 4.5 0 01-2.5-2.4l-10-23a11.5 11.5 0 1121.2-9l9.9 22.9a4.5 4.5 0 01-2.3 5.9l-12.9 5.5a4.5 4.5 0 01-3.4 0z"/>
  <path fill="#FABEBE" d="M300.8 296.2a10.5 10.5 0 00-.9 1.4l-49.3 5.2-7.1-9.8-16 8.8 13.9 23.7 60.4-15.5a10.5 10.5 0 10-1-13.8z"/>
  <path fill="#33618C" d="M231.7 310.5a4.5 4.5 0 01-2.5-2.4l-10-23a11.5 11.5 0 1121.2-9l9.9 22.9a4.5 4.5 0 01-2.3 5.9l-12.9 5.5a4.5 4.5 0 01-3.4 0z"/>
  <circle fill="#FABEBE" cx="250.9" cy="227.9" r="24.6"/>
  <path fill="#222528" d="M233.3 244.7a2.1 2.1 0 011.9-2.8 5 5 0 013.5 1.7 13.8 13.8 0 003 2.7c1.2.6 2.8.5 3.5-.6.7-1.1.2-2.6-.2-3.8a37 37 0 01-1.6-9.8c-.1-3.7.4-7.5 2.5-10.4 2.6-3.7 7.3-5.2 11.8-5s8.9 1.4 13.3 2.3c1.6.3 3.4.5 4.4-.7 1-1.3.7-3.3.2-5-1.2-4.5-2.5-9-5.3-12.6a18.9 18.9 0 00-12-6.8 29 29 0 00-13.5 1.6 36.1 36.1 0 00-17.7 12.3 29.2 29.2 0 00-5.5 21.6 26.7 26.7 0 009.8 16.8z"/>
  <path fill="#222528" d="M139.6 303.9a122 122 0 0110-38.5q2.3-5.1 5-10a.7.7 0 00-1.2-.8 123.7 123.7 0 00-13.8 38q-1 5.6-1.5 11.3c-.1 1 1.4 1 1.5 0z"/>
  <circle fill="#69BFA3" cx="158.3" cy="248.4" r="9.4"/>
  <path fill="#222528" d="M140.5 304.1a79.2 79.2 0 016.6-25q1.5-3.3 3.2-6.4a.5.5 0 00-.8-.5 80.3 80.3 0 00-9 24.6l-1 7.3c0 .6 1 .6 1 0z"/>
  <circle fill="#69BFA3" cx="152.7" cy="268.1" r="6.1"/>
  <path fill="#222528" d="M139.3 303.5a79.2 79.2 0 01-10.2-23.7q-.9-3.5-1.4-7a.5.5 0 00-1 0 80.3 80.3 0 008.2 25q1.7 3.2 3.7 6.3c.3.6 1 0 .7-.6z"/>
  <circle fill="#69BFA3" cx="126.7" cy="267.7" r="6.1"/>
  <path fill="#E3E6E9" d="M120.6 309v-12a4.5 4.5 0 014.5-4.5h28a4.5 4.5 0 014.5 4.5v12a4.5 4.5 0 01-4.5 4.5h-28a4.5 4.5 0 01-4.5-4.5z"/>
  <rect width="86" height="7" x="289.1" y="305.5" fill="#E3E6E9" rx="3.5"/>
  <path fill="#E3E6E9" d="M424.6 312.5h-89a6.5 6.5 0 01-6.5-6.5v-49a6.5 6.5 0 016.5-6.5h89a6.5 6.5 0 016.5 6.5v49a6.5 6.5 0 01-6.5 6.5z"/>
  <circle fill="#FFFFFF" cx="380.1" cy="281.5" r="6"/>
  <path fill="#E3E6E9" d="M651 378.5c0-7.7-29-14-65-14s-65 6.3-65 14c0 5 12 9.3 30 11.8V467a6.5 6.5 0 0013 0v-75.3a286.4 286.4 0 0044 0V467a6.5 6.5 0 0013 0v-76.7c18.1-2.5 30-6.9 30-11.8z"/>
  <circle fill="#222528" cx="593.3" cy="222.3" r="28"/>
  <path fill="#FABEBE" d="M523.6 461.9h-12.3l-5.8-47.3h18.1v47.3z"/>
  <path fill="#264058" d="M502.6 458.4h23.6v14.9h-38.5a14.9 14.9 0 0114.9-14.9z"/>
  <path fill="#FABEBE" d="M504.4 455.1l-11.7-3.7 8.6-46.9 17.3 5.4-14.2 45.2z"/>
  <path fill="#264058" d="M485.4 445.4l22.6 7.1-4.5 14.2-36.7-11.5a14.9 14.9 0 0118.6-9.8zM508.4 436.2a4.5 4.5 0 01-1.5-.3l-9-3.4a4.5 4.5 0 01-2.9-5.2c2.3-10.2 10-45 14.3-63.6 5-22 78.3-26.2 81.4-26.4h.3l8.2 10.4c3 9.6 2 17-2.8 22.2-14.1 15-56.3 5.7-61.3 4.5l-22.5 58.9a4.5 4.5 0 01-4.2 2.9z"/>
  <path fill="#264058" d="M521.4 443.2a4.5 4.5 0 01-1.5-.3l-9-3.4a4.5 4.5 0 01-2.9-5.2c2.3-10.2 10-45 14.3-63.6 5-22 78.3-26.2 81.4-26.4h.3l8.2 10.4c3 9.6 2 17-2.8 22.2-14.1 15-56.3 5.7-61.3 4.5l-22.5 58.9a4.5 4.5 0 01-4.2 2.9z"/>
  <path fill="#FABEBE" d="M495.3 299.2a10.5 10.5 0 011 1.4l49.2 5.2 7.1-9.8 16.1 8.8-14 23.7-60.4-15.5a10.5 10.5 0 111-13.8z"/>
  <path fill="#33618C" d="M610 358.7a4.5 4.5 0 01-2.1-.5c-9.9-5-29-13.7-46.9-15.6a4.4 4.4 0 01-3-1.7 4.5 4.5 0 01-1-3.5c1.7-9 5.4-31.6 5-49.7a24.6 24.6 0 0118.5-24.5 79.9 79.9 0 0110-2A24.8 24.8 0 01618 290c-3.2 18.8-6.4 45.1-3.6 63.5a4.5 4.5 0 01-1.8 4.3 4.4 4.4 0 01-2.7.9z"/>
  <path fill="#33618C" d="M562.8 310.8a4.5 4.5 0 01-1.8-.4l-12.8-5.5a4.5 4.5 0 01-2.4-6l10-22.9a11.5 11.5 0 1121 9.1l-9.8 23a4.5 4.5 0 01-4.2 2.7z"/>
  <circle fill="#FABEBE" cx="592.2" cy="228.9" r="24.6"/>
  <path fill="#222528" d="M567.2 216.8a88.6 88.6 0 0038.4 12.7l-4-4.9a29.7 29.7 0 009 1.8c3.2 0 6.5-1.2 8.3-3.8a9.3 9.3 0 00.6-8.6 17.7 17.7 0 00-5.6-7 33.1 33.1 0 00-30.8-5.5 19.8 19.8 0 00-9.2 6c-2.4 2.8-6.8 5.3-5.6 8.8z"/>
  <path fill="#222528" d="M596.4 197a75.5 75.5 0 00-27.5-17.8c-6.6-2.4-13.9-4-20.8-2.5s-13.5 6.2-15.4 13c-1.6 5.5 0 11.5 2.5 16.8s5.7 10 7.7 15.5a35.5 35.5 0 01-35.7 47.6c6.8.9 13.1 4.1 19.8 5.8s14.5 1.6 19.5-3.2c5.2-5 5.3-13.3 5-20.5l-1-32.5c-.3-5.5-.4-11.2 1.6-16.3s6.7-9.7 12.2-9.6c4.2 0 7.9 2.5 11.2 5s7 5.2 11.1 5.6 9-2.7 8.6-7"/>
  <path fill="#E3E6E9" d="M482.2 281.1l56.6 1.3 8.1 60.5-52.2 1.2-12.5-63z"/>
  <path fill="#FABEBE" d="M542.3 297.2a10.5 10.5 0 011 1.4l49.2 5.2 7.1-9.8 16.1 8.8-14 23.7-60.4-15.5a10.5 10.5 0 111-13.8z"/>
  <path fill="#33618C" d="M609.8 311.8a4.5 4.5 0 01-1.8-.4l-12.8-5.5a4.5 4.5 0 01-2.4-6l10-22.9a11.5 11.5 0 1121 9.1l-9.8 23a4.5 4.5 0 01-4.2 2.7z"/>
  <path fill="#222528" d="M493.6 311.5h-398a6.5 6.5 0 100 13H107V466a6.5 6.5 0 0013 0V337l72.8 132a6.5 6.5 0 0011.3-6.4L128 324.5h348l-76 138a6.5 6.5 0 1011.2 6.6l64.9-117.6V466a6.5 6.5 0 0013 0V328l1.9-3.5h2.6a6.5 6.5 0 000-13z"/>
</svg>
