<svg xmlns="http://www.w3.org/2000/svg" viewBox="0 0 975 774">
  <circle fill="#FF6584" cx="521" cy="100" r="64"/>
  <path fill="#877" d="M158.2 555.8l1.6-103.4 70-128-69.7 111.8.8-46.6 48.2-92.6-48 80.3 1.3-83.6L214 220l-51.4 60.5.9-153.4-5.4 203.1.5-8.4-52.5-80.3 51.6 96.4-4.9 93.4-.1-2.5-60.5-84.5 60.3 93.3-.6 11.7-.1.2v.9l-12.4 237.1H156l2-122.5 60.2-93-60 83.8z"/>
  <path fill="#877" d="M606.8 523.8l2.1-126.4L694.3 241l-85.1 136.6.9-56.9L669 207.6l-58.6 98.1 1.6-102.2 63.1-90.1-62.8 74 1-187.4-6.5 248.1.5-10.2-64.1-98.2 63.1 117.8-6 114.2-.1-3.1-74-103.3 73.7 114-.7 14.3-.1.2v1.2L584 684.6h20.2l2.4-149.6 73.6-113.7-73.4 102.5z"/>
  <ellipse fill="#E3E6E9" cx="400" cy="685" rx="308" ry="11"/>
  <ellipse fill="#E3E6E9" cx="833" cy="760.5" rx="142" ry="13.5"/>
  <path fill="#544" d="M382 347h36v338h-36z"/>
  <path fill="#877" d="M565 424H344v-62h221l64 31-64 31z"/>
  <path d="M565 419H344v5h221l64-31-5.2-2.5L565 419z" opacity=".1"/>
  <path fill="#877" d="M236 506h221v-62H236l-64 31 64 31z"/>
  <path d="M177.1 472.5L172 475l64 31h221v-5H236l-58.9-28.5z" opacity=".1"/>
  <path fill="#544" d="M468 374h38v38h-38z"/>
  <circle fill="#544" cx="315" cy="475" r="19"/>
  <circle fill="#544" cx="400" cy="391" r="11"/>
  <circle fill="#544" cx="400" cy="473" r="11"/>
  <path fill="#877" d="M295 674.2l11-15.3-11 17v1.7l-2.3-.1L294 655v-.2l.1-2.1-11-17 11 15.4v.4l1-17-9.4-17.5 9.5 14.6 1-35.2v-.2.2l-.2 27.7 9.3-11-9.4 13.4-.2 15.2 8.7-14.6-8.8 16.9-.1 8.4 12.7-20.3-12.7 23.3z"/>
  <path fill="#222528" d="M787 735.9s-14.2 11.9-21.6 11.2-21.6-.8-15.7 7.4 30.6 12.7 41 13.4 33.6 1.5 32-3-2.9-25.3-8.9-26.8S787 736 787 736zM868.3 724.2s-10.5 15.3-17.8 16.5-21 5.1-13.1 11.4 32.8 4 43 2 32.8-7.6 30.1-11.6-9.6-23.6-15.8-23.4-26.4 5-26.4 5z"/>
  <path fill="#264058" d="M778.7 505.5s-9.6 65.7-7.3 77.6 3.7 30.6 3.7 30.6-1.5 15.6 0 23 10.4 78.3 10.4 79.8-1.5 6 0 9.7 4.5.7 0 6.7-1.5 7.4-.7 7.4 29.8 3 31.3 0-.8-3.7 0-7.4 1.5-4.5 3-5.2 4.4.7 2.2-3-7.5-8.2-6-10.4-.7-18.7-.7-18.7-1.5-36.5-2.3-58.8 6.8-45.5 6.8-45.5a85.3 85.3 0 0019.3 50c19.4 23 29 66.3 29 66.3s4.6 6.7 2.3 12.6-9 2.3-2.2 6 29.8-1.5 32-3.7-3-5.3-1.5-11.2 7.5-4.5 2.3-7.5-6.7-2.2-6.7-5.2-13.4-67.8-34.3-86.4l-1.5-67.8s18.6-47.7-.7-52.2-78.4 13.3-78.4 13.3z"/>
  <path fill="#FABEBE" d="M792.2 329s12.7 31.3 9.7 35.8 36.5-15 36.5-15-12.6-31.2-12.6-35-33.6 14.2-33.6 14.2z"/>
  <circle fill="#FABEBE" cx="801.5" cy="309.2" r="27.6"/>
  <path fill="#33618C" d="M838.4 337.2s-19.3-2.3-29 9.7-11.2 14.9-11.2 14.9-23.1 37.2-18.6 55.9a54 54 0 013 5.2c1.4 3 1.4 44.7 0 51.4s-3 9-1.6 18.6-11.9 25.4 3.8 28.4 27.5.7 32.8-6 .7-11.2 17.1-11.2 26.8-11.2 26.8-11.2-8.2-9-5.2-10.4 0-5.2-1.5-9-1.5-6.7.8-6.7.7-1.4-.8-5.2 26.1-67.8 9.7-86.4-24.6-29-24.6-29 3-11.3-1.5-9z"/>
  <path fill="#FABEBE" d="M796 408v32.8l-23.9 79s-15.6 41 0 41 14.8-39.2 14.8-39.2l33.6-59.2s13.5-47 12-50.7-36.6-3.7-36.6-3.7z"/>
  <path fill="#33618C" d="M808.6 359.5s-22.3 9-16.4 32.8 0 23.1 0 23.1 30.6-3 40.3 3.8l2.2-9s9-51.4-26-50.7z"/>
  <path fill="#222528" d="M792.1 288.5a11 11 0 01-10.3-1.6c-2.8-2.3-4-6.6-2.4-9.8 1.5-2.8 4.5-4.3 7.4-5.5a68.8 68.8 0 0120.2-4.5c3.3-.3 6.8-.2 9.7 1.3 1.5.7 2.7 1.8 4.2 2.6 2.6 1.4 5.7 1.7 8.6 2.6a21.5 21.5 0 0113.1 12.1 26 26 0 011.7 6 33.4 33.4 0 01-1.8 16.7c-3.2 8.5-9.8 15.9-10.2 25-4-3-5.6-8.4-8.9-12.2a16.5 16.5 0 00-9.4-5.5 5.2 5.2 0 01-2.8-1 4.5 4.5 0 01-1-2.4l-2.8-13.2c-.6-2.6-1.3-5.6-3.5-7.2a10.6 10.6 0 00-4.5-1.6 71.3 71.3 0 00-11.7-1"/>
</svg>
