<svg xmlns="http://www.w3.org/2000/svg" viewBox="0 0 758.7 683.7">
  <path fill="#222528" d="M287.4 354.6a2 2 0 00-.9 2.8l102 190.8a2 2 0 002.7.9l144-77a2 2 0 00.9-2.7L434 278.6a2 2 0 00-2.7-.9z"/>
  <path fill="#FFFFFF" d="M300.8 360.2L394 535l127.8-68.3L428.6 292zm-8.1 4.3z"/>
  <path fill="#A1A8AF" d="M333 379.4c-2 1-2.4 4.2-1 7s4.3 4 6.3 3l93.6-50c2-1 2.4-4.2 1-7s-4.3-4-6.3-3zM344.5 401c-2 1-2.4 4.2-1 7s4.4 4 6.3 3l93.7-50c2-1 2.4-4.2 1-7s-4.4-4-6.4-3zM356 422.6c-2 1-2.3 4.2-.9 7s4.3 4 6.3 3l93.6-50c2-1 2.4-4.2 1-6.9s-4.3-4.1-6.3-3zM367.6 444.2c-2 1-2.4 4.2-1 7s4.3 4 6.3 3l93.6-50c2-1 2.4-4.2 1-6.9s-4.3-4.1-6.3-3zM379.1 465.8c-2 1.1-2.4 4.2-1 7s4.4 4 6.3 3l93.7-50c2-1 2.4-4.1 1-6.9s-4.4-4.1-6.3-3z"/>
  <path fill="#222528" d="M397.3 272.2l84.8 5.2 23.8-70.9-74.4-15.7-34.2 81.4z"/>
  <circle fill="#FABEBE" cx="458.5" cy="220.4" r="33.9"/>
  <path fill="#FABEBE" d="M513.6 288.5l-55 9-14.5-57.5 38.5-3.5 31 52z"/>
  <path fill="#264058" d="M545.6 524.5l.2 2.6a272.8 272.8 0 01-133 11.3l-.2 4.7a16 16 0 01-21.8 14l9.5-21 12-26.7L420 492l-2.8-60.3-.3-6.2-.4-8h5.1l36.4-.2 34.7-.3h5.3c33.2 40.8 60.6 74 47.5 107.5z"/>
  <path fill="#33618C" d="M497.6 416.5l-81 9-3-56c-9.5-24.2-3.2-45.9 16.5-65.3l4-15.9a23.5 23.5 0 0117.4-17 83.7 83.7 0 0145.1-10.8 33.7 33.7 0 0121.3 34 624 624 0 01-20.3 122z"/>
  <path fill="#FABEBE" d="M474.6 322.5l-.6 5-10.4 78-5.5 11.8-1.8 3.8-41.7 89.4-1.7 27.9-.3 4.7a16 16 0 11-30.8-7.3l1.7-4 9.1-21.3 24.7-78.8 2-6.5 2.4-7.7 7-22 10.9-67.6 1-6.4z"/>
  <path fill="#33618C" d="M480.6 329.5a59 59 0 00-45 0l4.7-40.2a19.2 19.2 0 0118.1-19.8 19.2 19.2 0 0120.2 18.2z"/>
  <path fill="#222528" d="M432.8 180.3s-17.5 6.4-18 29.6a42 42 0 001.6 11.6c1.1 4.3 2 13.6-5.6 26a239.9 239.9 0 00-13.5 24.9l19.7 1.9 3.3-32.8a162.5 162.5 0 0111.6-46.1l.1-.3s9 15.7 26.3 15.2l-6.3-6s21.5 8.2 33.3 9.8a7.4 7.4 0 014.4 12.4l-.2.2c-7.1 7.6-21.4 25.2-12.4 38.5s1.7 17.2 1.7 17.2l13.3-7.8 6-3.8.2 4.9 31.9-4.6s8.6-1.5-10.5-21.9c0 0-5-8-3.1-15a35.3 35.3 0 00.8-16.6c-4.8-23-22.3-68.3-84.6-37.3z"/>
  <path fill="#222528" d="M3.6 248.6a1 1 0 00-.4 1.4L53 343.5a1 1 0 001.3.4l70.6-37.7a1 1 0 00.4-1.3l-49.9-93.5a1 1 0 00-1.4-.5z"/>
  <path fill="#FFFFFF" d="M10.1 251.3L55.8 337l62.7-33.4-45.7-85.6zm-4 2.2z"/>
  <path fill="#A1A8AF" d="M26 260.8c-1 .5-1.3 2-.5 3.3s2 2 3 1.5l46-24.5c.9-.5 1-2 .4-3.3s-2.1-2-3.1-1.5zM31.6 271.3c-1 .6-1.2 2-.5 3.4s2.1 2 3 1.5l46-24.5c1-.5 1.1-2 .4-3.4s-2-2-3-1.4zM37.2 282c-1 .4-1.1 2-.4 3.3s2 2 3 1.5l46-24.5c.9-.5 1-2 .4-3.4s-2.1-2-3-1.5zM42.9 292.5c-1 .5-1.2 2-.5 3.4s2.1 2 3 1.5l46-24.5c1-.5 1.1-2 .4-3.4s-2-2-3-1.5zM48.5 303.1c-1 .5-1.1 2-.4 3.4s2 2 3 1.5l46-24.5c.9-.5 1-2 .4-3.4s-2.1-2-3-1.5zM54.2 313.7c-1 .5-1.2 2-.5 3.4s2.1 2 3 1.5l46-24.5c1-.5 1.1-2 .4-3.4s-2-2-3-1.5z"/>
  <path fill="#222528" d="M689.3 487.6a1 1 0 00-1.3.3l-54 91.3a1 1 0 00.4 1.4l68.9 40.7a1 1 0 001.3-.4l54-91.3a1 1 0 00-.4-1.3z"/>
  <path fill="#FFFFFF" d="M690.4 494.6l-49.3 83.5 61 36.1 49.4-83.5zm-3.9-2.3z"/>
  <path fill="#A1A8AF" d="M690.6 513c-1-.6-2.4 0-3.1 1.3s-.7 2.9.3 3.4l44.7 26.5c1 .6 2.4 0 3.2-1.4s.6-2.8-.4-3.4zM684.5 523.3c-1-.6-2.4 0-3.2 1.4s-.6 2.8.4 3.4l44.7 26.4c1 .6 2.4 0 3.2-1.3s.6-2.9-.4-3.4zM678.4 533.6c-1-.5-2.4 0-3.2 1.4s-.6 2.8.4 3.4l44.7 26.5c1 .5 2.4 0 3.2-1.4s.6-2.8-.4-3.4zM672.3 544c-1-.6-2.4 0-3.2 1.3s-.6 2.9.4 3.4l44.7 26.5c1 .5 2.4 0 3.1-1.4s.7-2.8-.3-3.4zM666.2 554.3c-1-.6-2.4 0-3.2 1.4s-.6 2.8.3 3.4l44.8 26.4c1 .6 2.4 0 3.1-1.3s.7-2.9-.3-3.4zM660 564.6c-.9-.5-2.3 0-3 1.4s-.7 2.8.2 3.4l44.8 26.4c1 .6 2.4 0 3.1-1.3s.7-2.8-.3-3.4z"/>
</svg>
