<svg xmlns="http://www.w3.org/2000/svg" xmlns:xlink="http://www.w3.org/1999/xlink" viewBox="0 0 915.4 848.8">
  <ellipse fill="#E3E6E9" cx="491.9" cy="831.9" rx="221.1" ry="16.9"/>
  <path fill="#FF6584" d="M590.1 73v3.6l-.1 1.3v.4a1.4 1.4 0 010 .2l-.1 1.1-.1 1-.3 2.3-.3 1.5a.4.4 0 000 .1v.8c0 .3-.1.3-.2.4v.4l-.2.8-.2.8-.1.6-.2 1-.2.7-.2.9-.3 1v.3l-.4 1-1 3.1-.4 1-.2.6a71 71 0 01-9.7 17.5l-.8 1a74.7 74.7 0 01-6.1 7L466.7 225.6 364.5 123.4a72.4 72.4 0 01-8-9.5 70 70 0 01-4.2-6.7 72.3 72.3 0 01-8.7-41 73.4 73.4 0 012-12.2l.3-.7v-.4l.4-1 .7-2.4.4-1c.5-1.6 1.1-3 1.8-4.6l.3-1 .6-1.3 1-2.1.1-.2.5-1 .6-1 .8-1.4.4-.7.2-.3c.1-.4.3-.6.5-.9l.5-.9 1.3-1.9.5-.7.6-.8.6-.8.8-1 .7-.9.2-.3.5-.6.8-1 .4-.4.7-.7.6-.8a29 29 0 012-2l.8-.8 1.3-1.1.8-.8 1-.8.6-.6a15.3 15.3 0 012-1.5l.6-.5c1.1-.9 2.2-1.7 3.4-2.4l.7-.5.6-.5.7-.4 1-.6.5-.3.7-.4 2.8-1.6.6-.3.9-.4.7-.4.7-.3.7-.4.8-.3.7-.3 3-1.2.7-.4.8-.3.7-.2.6-.2 1.4-.5.7-.2.5-.2.6-.1 1-.3 1.3-.3a73 73 0 014.1-1h.6l.8-.1.8-.2 1-.1.5-.1 4-.4H421.1l3.2.4 1.4.1 1 .2.8.1.8.1.5.1 4 .9 1.7.4.5.2.7.2c.5 0 1 .2 1.4.4l.6.2 3 1 .7.2.9.4 1.3.5 1.5.7.6.2.8.4.8.4.7.3 1 .5.6.4 1.7.9.7.4 2.4 1.4.7.5.7.4.6.5.5.3 2.8 2 .7.6 1.3 1 .6.5.7.6 1 .8.8.8 1.1 1.2.8.8.8-.8 1.3-1.2.8-.7 1-.9.6-.5a15.3 15.3 0 012-1.6l.6-.5 3.4-2.4.6-.5.7-.4.7-.4 1-.6.4-.3.7-.4 2.8-1.6.6-.3.9-.5.7-.3.8-.4.7-.3.7-.3.8-.4 3-1.2.7-.2.8-.3.7-.3.6-.2 1.4-.4.7-.2.6-.2.5-.2 1-.2 1.3-.4a73 73 0 014.1-.9h.6l.8-.2.8-.1 1-.2h.6l4-.5h9.2l1 .1h.6c1.1 0 2.2.2 3.2.3l1.4.2 1 .1.8.2.8.1.5.1 4.1.9 1.7.4.4.1.7.2 1.4.4.6.2 3 1 .7.3.9.3 1.3.6 1.5.6.6.3.9.4.7.3.7.4 1 .4.7.4 1.6 1 .7.3 2.4 1.5.7.4.7.5.7.4.5.3L562 15l.7.6 1.3 1 .6.5.6.5.9.8.8.7.5.5.8.8.4.3.4.5.8.8a47.7 47.7 0 013 3.2l1.2 1.5 3.8 5 .5.8.5.8.4.6.7 1.2.7 1c0 .3.2.5.3.7l.3.6.3.5.4.8.4.8q1.5 2.7 2.6 5.6l.3.8 1 2.4.2.7.3 1 .3 1 .2.5.2.8.3 1 .4 1.7.2.9.3 1.3.1.5.2.7v.6l.2.5v.4l.1.5.2.9.1.9.1 1 .1 1 .1.5.1 1V68.6l.1 1v1.1c.2.8.2 1.5.1 2.2z"/>
  <path d="M590.1 73v3.6l-.1 1.3v.4a1.4 1.4 0 010 .2l-.1 1.1-.1 1-.3 2.3-.3 1.5a.4.4 0 000 .1v.8c0 .3-.1.3-.2.4v.4l-.2.8-.2.8-.1.6-.2 1-.2.7-.2.9-.3 1v.3l-.4 1-1 3.1-.4 1-.2.6a72.3 72.3 0 00-31.5-78l-4-2.4a72.3 72.3 0 00-86 12.4 72.5 72.5 0 00-8.9-7.5 71.2 71.2 0 00-7.5-4.7 72.5 72.5 0 00-69.6 0 71.5 71.5 0 00-10.2 6.8 72.8 72.8 0 00-14 14.8 72.4 72.4 0 00-4 6.3 68.7 68.7 0 00-3.1 6.3 66.8 66.8 0 00-1.1 2.1l.1-.7.2-.4.3-1 .7-2.4.4-1c.5-1.6 1-3 1.7-4.6l.4-.9.6-1.3 1-2.2.1-.1.5-1 .6-1.1.8-1.4.3-.6.3-.4.5-.8.5-1 1.3-1.8.5-.7.6-.8.6-.9.8-1 .7-.9.2-.3.5-.6.8-1 .4-.3v-.1l.6-.7.7-.7a29 29 0 012-2l.8-.8 1.2-1.2.9-.7 1-.9.6-.5a15.3 15.3 0 012-1.5l.6-.6 3.4-2.4.6-.5.7-.4.7-.4 1-.6.5-.3.7-.4 2.8-1.6.6-.3.8-.5.8-.3.7-.4.7-.3.8-.3.7-.4 3-1.2.7-.4.8-.3.7-.2.6-.2 1.4-.5.7-.2.5-.2.6-.1 1-.3 1.3-.3a73 73 0 014.1-1h.6l.8-.1.8-.2 1-.1.5-.1 4-.4H421.1l3.2.4 1.4.1 1 .2.8.1.8.1.5.1 4 .9 1.7.4.5.2.7.2c.5 0 1 .2 1.4.4l.6.2 3 1 .7.2.9.4 1.3.5 1.5.7.6.2.8.4.8.4.7.3 1 .5.6.4 1.7.9.7.4 2.4 1.4.7.5.7.4.6.5.5.3 2.8 2 .7.6 1.3 1 .6.5.7.6 1 .8.8.8 1.1 1.2.8.8.8-.8 1.3-1.2.8-.7 1-.9.6-.5a15.3 15.3 0 012-1.5l.6-.6 3.4-2.4.6-.5.7-.4.7-.4 1-.6.4-.3.7-.4 2.8-1.6.6-.3.9-.5.7-.3.8-.4.7-.3.7-.3.8-.4 3-1.2.7-.2.8-.3.7-.3.6-.2 1.4-.4.7-.2.6-.2.5-.2 1-.2 1.3-.4a73 73 0 014.1-.8l.6-.1.8-.2.8-.1 1-.2h.6l4-.4H523.3c1.1 0 2.2.2 3.2.3l1.4.2 1 .2h.8l.8.2.5.1 4.1.9 1.7.4.4.1.7.2 1.4.4.6.2 3 1 .7.3.9.3 1.3.6 1.5.6.6.3.9.4.7.3.7.4 1 .4.7.4 1.6 1 .7.3 2.4 1.5.7.4.7.5.7.4.5.4 2.8 2 .7.6 1.3 1 .6.5.6.5.9.8.8.7.5.5.8.8.4.3.4.5.8.8a47.7 47.7 0 013 3.3l1.2 1.4 3.8 5 .5.8.5.8.4.6.7 1.2.7 1c0 .3.2.5.3.7l.3.6.3.5.4.8.4.8q1.5 2.7 2.6 5.6l.3.8 1 2.4.2.7.3 1 .3 1 .2.5.2.8.3 1 .4 1.7.2.9.3 1.3.1.5.2.7v.6l.2.5v.4l.1.5.2.9.1.9.1 1 .1 1 .1.5.1 1V68.6l.1 1v1.1c.2.8.2 1.5.1 2.2z" opacity=".1"/>
  <path fill="#FF6584" d="M757.5 295.8v1.5a.1.1 0 010 .1v.7l-.1.7V299.6a.5.5 0 010 .1v.3a2 2 0 01-.1.2v.2l-.1.3v.2l-.1.3-.1.3-.1.4-.3 1-.1.3a1.2 1.2 0 01-.1.2 21.5 21.5 0 01-3 5.3l-.2.3a22 22 0 01-1.8 2.1l-31.6 31.3-31.2-31.2a22.3 22.3 0 01-2.4-3 22.8 22.8 0 01-1.3-2 22.2 22.2 0 01-2.7-12.5l.2-1.2c0-.7.2-1.4.4-2v-.5l.1-.2v-.1l.1-.3.2-.7.1-.4.6-1.4.1-.2.2-.4.3-.7.2-.3.2-.4.2-.4.1-.2c0-.2.2-.2.2-.3l.2-.3.4-.6.1-.2.2-.2.2-.3.2-.3.2-.3h.1l.2-.3.2-.2.1-.2.2-.2.2-.2.6-.6.3-.3.3-.3.3-.3.3-.2.2-.2.2-.1.4-.4.2-.1 1-.8.2-.1.2-.1.2-.2.3-.2h.1l.2-.2.9-.4.2-.1.2-.2h.3l.2-.2.2-.1.2-.1.3-.1.9-.4h.2l.2-.1.3-.1h.1l.5-.2h.2l.2-.1h.1l.3-.2h.4c.4-.2.9-.3 1.3-.3h1.1l1.2-.2h3.4l1 .1.4.1h.9c.5 0 .9.2 1.3.3h.6l.3.2h.4l.2.1.9.4h.2l.2.1.5.2.4.2h.2l.3.2.2.1.2.1.3.2h.2l.5.3.2.2.8.4.2.1.2.2.2.1.1.1.9.7a1.6 1.6 0 00.2.1l.4.3.2.2.2.2.3.2.2.3.4.3a2.7 2.7 0 01.2.2 1.8 1.8 0 01.3-.2l.4-.3.2-.3.3-.2.2-.2.2-.2.4-.3a1.6 1.6 0 00.2-.1l1-.8.2-.1.2-.2h.2l.3-.3h.1l.3-.2.8-.5h.2l.3-.2.2-.1.2-.1.2-.1.3-.1.2-.1.9-.4h.2l.3-.2h.2l.2-.1.4-.1.2-.1h.2l.1-.1h.3l.4-.2 1.3-.2h1.1l1.2-.2h3.4l1 .1h1.4l1.2.3.5.2h.4l.4.2h.2l.9.3.2.1.2.1.5.2.4.2h.2l.3.2h.2l.2.2.3.1.2.2.5.2.2.2c.3 0 .5.2.8.4l.2.1.2.2.2.1.1.1.9.6.2.2.4.3.2.2.2.1.2.3.3.2.1.1.3.3.2.2.2.2.4.4.2.3.4.3.3.5 1.2 1.5.1.3.2.2.1.2.2.4.2.3.1.2.1.1.1.2a1.7 1.7 0 01.1.2l.2.3.8 1.7v.2l.3.8v.2l.2.3a2.3 2.3 0 010 .3l.1.2.1.2.1.3.1.5a2.7 2.7 0 01.1.3v3.7a1.3 1.3 0 000 .2v.6c0 .1.7.5.7.7z"/>
  <path d="M757.5 295.8v1.5a.1.1 0 010 .1v.7l-.1.7V299.6a.5.5 0 010 .1v.3a2 2 0 01-.1.2v.2l-.1.3v.2l-.1.3-.1.3-.1.4-.3 1-.1.3a1.2 1.2 0 01-.1.2 21.5 21.5 0 00.6-5.4 22.1 22.1 0 00-10.2-18.4l-1.2-.7a22.1 22.1 0 00-21.3 0 23 23 0 00-2 1.3 22 22 0 00-3 2.4 22.4 22.4 0 00-2.7-2.3 23 23 0 00-2.2-1.4 22 22 0 00-24.4 2 23.6 23.6 0 00-1.9 1.7 21.8 21.8 0 00-2.4 2.9l-1.2 1.9a20.8 20.8 0 00-1 1.9l-.4 1 .1-.4V289.6l.2-.3.2-.7.1-.4.5-1.3.2-.3.1-.4.4-.7.1-.3.2-.4.2-.4.2-.2c0-.2.1-.2.2-.3l.1-.3.4-.6.2-.2.2-.2.1-.3.3-.3.2-.3.2-.2.3-.3v-.1l.3-.3.2-.2.6-.6.2-.2.4-.4.2-.2.3-.3.2-.2.2-.1.4-.4.2-.1 1-.8h.2l.2-.2.2-.2.3-.1.2-.1.2-.2.9-.4.1-.1.3-.2h.2l.2-.2h.3l.2-.2h.2l1-.5h.2l.2-.1.2-.1h.2l.4-.2h.2l.2-.1h.2l.3-.1.4-.1 1.2-.3h1.2l1.2-.1h4.3l.5.1H708.5l1.3.3.5.1H710.6l.4.2h.2l1 .4h.1l.3.1.4.2.5.2.2.1.2.1.2.1.3.1.2.2h.3l.5.4h.2l.7.5.2.2.2.1.2.1.2.1.8.7a1.6 1.6 0 00.2.1l.4.3.2.2.2.2.3.2.3.3.3.3a2.7 2.7 0 01.3.3 1.8 1.8 0 01.2-.3l.4-.3.3-.3.2-.2.2-.2.2-.2.4-.3a1.6 1.6 0 00.2-.1l1-.8.2-.1.3-.2h.2l.3-.3h.1l.2-.2.9-.5h.2l.2-.2h.2l.3-.2.2-.1.2-.1.2-.1 1-.4h.2l.2-.1.2-.1h.2l.4-.2h.3l.1-.1h.2l.3-.2h.4l1.3-.3h1.1l1.2-.2h3.3l1 .1.5.1h.9l1.3.3h.6l.2.1.4.2h.2l1 .3.1.1.3.1.4.2.5.2h.2l.2.2.2.1.3.1.2.1.3.2.5.2.2.2.7.4.2.1.2.2.2.1.2.1.8.6.2.2.4.3.2.2.2.2.3.2.2.2.2.2.2.2h.1l.2.2.2.3.4.3.2.3.3.4.4.4 1.1 1.6.2.2.1.2.2.2.2.4.2.3.1.2v.2l.2.1a1.7 1.7 0 01.1.3l.1.2.8 1.7.1.3.3.7v.2l.2.3a2.3 2.3 0 010 .3l.1.2v.2l.2.4v.5a2.7 2.7 0 01.2.2V294.2a1.3 1.3 0 000 .2v.6l.3.8z" opacity=".1"/>
  <path fill="#FF6584" d="M612.8 254.4v2a2.7 2.7 0 010 .3v.7c0 .2 0 .3-.2.5a1.9 1.9 0 010 .2.8.8 0 010 .1V258.8a1.2 1.2 0 010 .2 2.8 2.8 0 010 .3 1.6 1.6 0 000 .2 2.5 2.5 0 00-.2.3v.3a.2.2 0 010 .1l-.1.3-.4 1v.3l-.1.2a22 22 0 01-3 5.3l-.2.3a22 22 0 01-1.9 2.2L575.5 301l-31.2-31.2a22.1 22.1 0 01-2.4-3 21.6 21.6 0 01-1.3-2 22 22 0 01-2.7-12.5l.2-1.2c0-.7.2-1.4.4-2v-.5a1.4 1.4 0 01.1-.2.6.6 0 010-.1l.1-.4.2-.7.2-.3.5-1.4.1-.3.2-.4.3-.6.2-.4.2-.3.2-.4a2 2 0 01.1-.2v-.1l.2-.3.2-.2.4-.6.1-.2.2-.3.2-.2.2-.4a2.8 2.8 0 01.3-.2.9.9 0 010-.1l.2-.2.2-.3.1-.1.2-.2.2-.3.6-.6.3-.2.3-.4a2.7 2.7 0 01.3-.2l.3-.3.2-.1.2-.2.4-.3.2-.2 1-.7.2-.1.2-.2.2-.1.3-.2h.1l.2-.2 1-.5v-.3l.3-.1.2-.1.2-.1.3-.1.2-.1.9-.4h.2l.3-.2h.2l.2-.1.4-.1.2-.1h.2l.2-.1h.3l.4-.2 1.2-.3h8.1l1.2.3.5.2h.2a1.7 1.7 0 01.2 0l.4.2h.2l.9.3.2.1.3.1.4.2.4.2h.2l.3.2h.2l.2.2.3.1.2.1.5.3.2.1.8.5.2.1.2.2.2.1h.1l.9.7a1.6 1.6 0 01.2.2l.4.3.2.2.2.1.3.3a2.7 2.7 0 01.2.2l.4.4.3.2.2-.2.4-.4.2-.2.3-.3.2-.1.2-.2.4-.3a1.6 1.6 0 01.2-.2l1-.7.2-.1.2-.2.2-.1.3-.2h.2l.2-.2.8-.5h.2l.3-.2.2-.1.2-.1.2-.1.3-.1.2-.1.9-.4.2-.1h.3l.2-.2h.2l.4-.2h.4l.2-.1.3-.1.4-.1 1.2-.3h1.2l1.2-.1H593.4l.4.2h1l1.2.2.5.2h.2a1.4 1.4 0 01.2 0l.4.1h.2l.9.4h.2l.3.2.4.2.4.2h.2l.3.2h.2l.2.2.3.1.2.1.5.3.2.1.8.5.2.1.2.1.2.2h.1l1 .7.1.2.4.3.2.2.2.1.3.2.2.3.2.1.2.2.1.1.1.2.3.2.3.4.3.2c0 .2.2.3.3.4l.4.4 1.1 1.6.2.2.1.3a2.4 2.4 0 01.1.2l.3.3.2.4v.2l.2.1v.2l.2.2.1.3.8 1.7a1.9 1.9 0 010 .2l.4.7v.3l.1.3.1.3v.1c0 .1 0 .2.2.3v.3l.2.5v.3l.1.4v.1a1.4 1.4 0 010 .3 1 1 0 010 .1.8.8 0 010 .2V250.5a2.5 2.5 0 010 .2 2.7 2.7 0 010 .3v2.6c.5.3.5.6.5.8z"/>
  <path d="M612.8 254.4v2a2.7 2.7 0 010 .3v.7c0 .2 0 .3-.2.5a1.9 1.9 0 010 .2.8.8 0 010 .1V258.8a1.2 1.2 0 010 .2 2.8 2.8 0 010 .3 1.6 1.6 0 000 .2 2.5 2.5 0 00-.2.3v.3a.2.2 0 010 .1l-.1.3-.4 1v.3l-.1.2a22 22 0 00-.2-11 22 22 0 00-9.5-12.8 18 18 0 00-1.2-.7 22 22 0 00-21.2 0 19.8 19.8 0 00-2 1.3 21.3 21.3 0 00-3 2.4 22.5 22.5 0 00-2.7-2.3 21.8 21.8 0 00-2.3-1.4 22.1 22.1 0 00-26.2 3.7 21.8 21.8 0 00-2.8 2.9 23.7 23.7 0 00-2.2 3.8l-.4 1v-.4a1.4 1.4 0 01.1-.2l.1-.4.2-.7.2-.4.5-1.4.1-.2.2-.4.3-.7.2-.3.2-.4.2-.4a2 2 0 01.1-.2l.2-.3.2-.3.4-.6.1-.2.2-.2.2-.3.2-.3a2.8 2.8 0 01.3-.3l.2-.3.2-.2.1-.2.2-.2.2-.2.6-.6.3-.3.3-.3a2.7 2.7 0 01.3-.3l.3-.2.2-.2.2-.1.4-.4.2-.1 1-.8.2-.1.2-.1.2-.2.3-.2h.1l.3-.2.8-.5h.2l.4-.2.2-.1.2-.1.2-.1.3-.1.2-.1.9-.4h.2l.3-.2h.2l.2-.1.4-.1.2-.1h.2l.2-.1h.3l.4-.2 1.2-.3h8.1l1.2.3.5.2h.2a1.7 1.7 0 01.2 0l.4.1.2.1.9.3.2.1.3.1.4.2.4.2h.2l.3.2h.2l.2.2.3.1.2.1.5.3.2.1.8.5.2.1.2.2.2.1h.1l.9.7a1.6 1.6 0 01.2.2l.4.3.2.2.2.1.3.3a2.7 2.7 0 01.2.2l.4.4.3.2.2-.2.4-.4.2-.2.3-.3.2-.1.2-.2.4-.3a1.6 1.6 0 01.2-.2l1-.7.2-.2h.2l.2-.2.3-.2h.2l.2-.2.8-.5h.2l.3-.2.2-.1.2-.1.2-.2h.3l.2-.2.9-.3.2-.1h.3l.2-.2h.2l.4-.2h.4l.2-.1.3-.1.4-.1 1.2-.3h1.2l1.2-.1H593.4l.4.1h1l1.2.3.5.1h.2a1.4 1.4 0 01.2.1l.4.1h.2l.9.4h.2l.3.2.4.1.4.2.2.1.3.1.2.1.2.2.3.1.2.1.5.3.2.1.8.5.2.1.2.1.2.2h.1l1 .7.1.2.4.3.2.1.2.2.3.2.2.3.2.1.2.2.1.1.1.2.3.2.3.4.3.2c0 .2.2.3.3.4l.4.4 1.1 1.6.2.2.1.3a2.4 2.4 0 01.1.2l.3.3.2.4v.2l.2.1v.2l.2.2.1.3.8 1.7a1.9 1.9 0 010 .2l.4.7v.3l.1.3.1.3v.1c0 .1 0 .2.2.3v.3l.2.5v.3l.1.4v.1a1.4 1.4 0 010 .3 1 1 0 010 .1.8.8 0 010 .2V250.5a2.5 2.5 0 010 .2 2.7 2.7 0 010 .3v2.6c.5.3.5.5.5.8z" opacity=".1"/>
  <path fill="#FF6584" d="M317.8 276.3a1.3 1.3 0 010 .2v1.8a2.9 2.9 0 010 .3l-.1.7-.1.5a1.6 1.6 0 010 .2v.7a1.2 1.2 0 010 .2l-.1.3a1.6 1.6 0 000 .3 2.3 2.3 0 00-.1.2l-.1.3a.3.3 0 010 .1l-.1.3-.3 1a2.8 2.8 0 01-.2.3v.2a22 22 0 01-3 5.3l-.2.3a22 22 0 01-1.8 2.2l-31.3 31.2-31.2-31.2a22.3 22.3 0 01-2.4-3l-1.3-2a22 22 0 01-2.6-12.5V273l.5-2v-.5l.1-.2a.7.7 0 010-.1l.1-.3.2-.8c0-.3.1-.2.2-.3l.5-1.4.1-.3.2-.4.3-.6.2-.4.2-.3.2-.4.1-.2v-.1l.2-.2.2-.3.4-.6.1-.2.2-.3.2-.2a3.5 3.5 0 01.2-.3l.3-.3.2-.3.2-.3h.1l.2-.3.2-.2.6-.7.3-.2.3-.3.3-.3.3-.2.2-.2.2-.2.4-.3.2-.2 1-.7.2-.1.2-.2h.2a2.9 2.9 0 01.3-.3h.1l.2-.2.9-.5h.2v-.2l.3-.1.2-.1.2-.1.3-.1.2-.1.9-.4h.2l.3-.2h.2l.2-.1.4-.1.2-.1h.4l.3-.1.4-.1 1.2-.3h1.1l1.3-.2h3.3l1 .1h.4l.3.1h.6l1.3.3.5.1H270.6l.5.2h.1l1 .4h.2l.2.1.4.2.5.2h.2l.2.2.3.1.2.1.3.2h.2l.5.3.2.2.7.4.2.1.2.2.3.1a.7.7 0 01.1.1l.9.7.2.1.4.3.2.2.2.2.2.2.3.3.4.3.2.2.3-.2.3-.3.3-.3.3-.2.2-.2.2-.2.4-.3.2-.1 1-.8.2-.1.2-.2h.2l.3-.3h.1l.2-.2.9-.5a1 1 0 00.2 0l.2-.2.3-.1.2-.1.2-.1.2-.1.3-.1.9-.4h.2l.2-.2h.4l.5-.2h.2l.2-.1h.1l.3-.1.4-.1 1.3-.3h1.1l1.2-.2h3.4l1 .1h.4l.3.1h.7l1.2.3.5.1h.4l.4.2h.2l.9.4h.2l.3.2.4.1.4.2.2.1.3.1.2.1.2.1.3.2.2.1.5.3.2.1.8.4.2.2.2.1.2.1.1.1.9.7.2.1.4.4.2.1.2.2.2.2a2.7 2.7 0 01.3.2l.1.2.3.2v.1l.2.1.3.3.3.4.2.2.4.4.3.4 1.2 1.6.1.2.2.2a1.4 1.4 0 01.1.2l.2.4.2.3.2.2v.2l.1.1.1.3.2.2a18.7 18.7 0 01.8 1.7v.3l.3.7.1.2.1.3.1.3v.2l.1.3a3 3 0 01.1.3l.1.5.1.3.1.3v.2a1.7 1.7 0 010 .2 1.2 1.2 0 010 .2.6.6 0 010 .1V272.8a2.5 2.5 0 010 .3v.3a2.9 2.9 0 010 .3V274.3a3 3 0 010 .3 1.2 1.2 0 000 .2v.9s.5.4.5.6z"/>
  <path d="M317.8 276.3a1.3 1.3 0 010 .2v1.8a2.9 2.9 0 010 .3l-.1.7-.1.5a1.6 1.6 0 010 .2v.7a1.2 1.2 0 010 .2l-.1.3a1.6 1.6 0 000 .3 2.3 2.3 0 00-.1.2l-.1.3a.3.3 0 010 .1l-.1.3-.3 1a2.8 2.8 0 01-.2.3v.2a22.1 22.1 0 00-.2-11 22 22 0 00-9.8-12.8l-1.2-.7a22.1 22.1 0 00-21.3 0 21.5 21.5 0 00-2 1.3 22.1 22.1 0 00-3 2.5 21.6 21.6 0 00-2.7-2.3 21.9 21.9 0 00-2.2-1.5 22.1 22.1 0 00-21.3 0 21.4 21.4 0 00-3.1 2.1 22 22 0 00-1.9 1.7 21.8 21.8 0 00-2.4 2.8l-1.2 2-1 1.8-.4 1.1.1-.4v-.2a.7.7 0 010-.1l.2-.4.2-.7v-.3l.6-1.4.2-.3.1-.4.4-.6.1-.4.2-.3.2-.4.1-.2.1-.1.2-.3.1-.2.4-.6.2-.2.2-.3.1-.2a3.5 3.5 0 01.3-.3l.2-.3.2-.3.3-.3.3-.3.2-.2.6-.7.2-.2.4-.4.2-.2.3-.2.2-.2.2-.2.4-.3.2-.2 1-.7.2-.1.2-.2h.2a2.9 2.9 0 01.3-.3h.2l.2-.2.8-.5h.2l.5-.2.2-.1.2-.1.2-.1.3-.1.2-.1.9-.4h.2l.3-.2h.2l.2-.1.4-.1.2-.1h.4l.3-.1.4-.1 1.2-.3h1.1l1.3-.2h3.3l1 .1h.4l.3.1h.6l1.3.3.5.1H270.6l.5.2h.1l1 .4h.2l.2.1.4.2.5.2h.2l.2.2.3.1.2.1.3.2h.2l.5.3.2.2.7.4.2.1.2.2.3.1a.7.7 0 01.1.1l.9.7.2.1.4.3.2.2.2.2.2.2.3.3.4.3.2.2.3-.2.3-.3.3-.3.3-.2.2-.2.2-.2.4-.3.2-.1 1-.8.2-.1.2-.2h.2l.3-.3h.1l.2-.2.9-.5a1 1 0 00.2 0l.2-.2.3-.1.2-.1.2-.1.2-.1.3-.1.9-.4h.2l.2-.2h.4l.5-.2h.2l.2-.1h.1l.3-.1.4-.1 1.3-.3h1.1l1.2-.2h3.4l1 .1h.4l.3.1h.7l1.2.3.5.1h.4l.4.2h.2l.9.4h.2l.3.2.4.1.4.2.2.1.3.1.2.1.2.1.3.2.2.1.5.3.2.1.8.4.2.2.2.1.2.1.1.1.9.7.2.1.4.4.2.1.2.2.2.2a2.7 2.7 0 01.3.2l.1.2.3.2v.1l.2.1.3.3.3.4.2.2.4.4.3.4 1.2 1.6.1.2.2.2a1.4 1.4 0 01.1.2l.2.4.2.3.2.2v.2l.1.1.1.3.2.2a18.7 18.7 0 01.8 1.7v.3l.3.7.1.2.1.3.1.3v.2l.1.3a3 3 0 01.1.3l.1.5.1.3.1.3v.2a1.7 1.7 0 010 .2 1.2 1.2 0 010 .2.6.6 0 010 .1V272.8a2.5 2.5 0 010 .3v.3a2.9 2.9 0 010 .3V274.3a3 3 0 010 .3 1.2 1.2 0 000 .2v.9s.5.4.5.6z" opacity=".1"/>
  <path fill="#FF6584" d="M308.1 435.6v.3a1.3 1.3 0 010 .2v1a.1.1 0 010 .1v1.4l-.1.4v.4a.5.5 0 010 .1 1.8 1.8 0 01-.1.3 2 2 0 010 .2v.2l-.1.3v.2l-.1.3-.1.3-.1.4-.3 1-.1.3a.9.9 0 01-.1.2 21.6 21.6 0 01-3 5.3l-.2.3a22 22 0 01-1.9 2.1l-31.1 31.2-31.3-31.2a22.3 22.3 0 01-2.4-2.9 22.8 22.8 0 01-1.3-2 22 22 0 01-2.6-12.5v-1.2l.5-2.1v-.4l.2-.3v-.4l.3-.7v-.3l.6-1.4-.1-.3.1-.4.4-.7.1-.3.2-.4.2-.4.2-.2c0-.2.1-.2.2-.3l.1-.3.4-.6.2-.2.2-.2.1-.3.3-.3.2-.3.2-.2.3-.3v-.2l.3-.2.3-.2.6-.6.2-.3.4-.3.2-.3.3-.2.2-.2.2-.1.4-.4a1.6 1.6 0 01.2-.1l1-.8.2-.1a1.5 1.5 0 01.2-.1l.2-.2.3-.2h.2l.2-.2.9-.5h.1l.3-.2h.2l.2-.2.3-.1.2-.1.2-.1 1-.4h.2l.2-.1.2-.1h.2l.4-.2h.2l.2-.1h.2l.3-.1.4-.1 1.2-.3h1.2l1.2-.1H257.5l.4.1h1l1.2.3.5.1h.2l.2.1.4.1h.2l.9.4h.2l.3.2.4.1.4.2.2.1.3.1.2.1.2.2.3.1.2.1.5.3.2.1.8.5.2.1.2.1.2.2h.1l1 .7.1.2.4.3.2.1.2.2.3.3.2.2.4.4.3.2.2-.2.4-.4.2-.2.3-.3.2-.2.2-.1.4-.3.2-.2 1-.7.2-.2.2-.1.2-.1.3-.2.2-.1.2-.1.8-.5.2-.1.3-.2h.2l.2-.2h.3l.2-.2h.2l1-.4.1-.1.3-.1h.2l.2-.1.4-.2h.2l.2-.1h.5l.4-.2 1.2-.3h8.1l1.2.3.5.2h.4l.4.2h.2l.9.3.2.1.2.1.5.2.4.2h.2l.3.2h.2l.2.2.3.1.2.1.5.3.2.1.8.5.2.1.2.2.2.1.1.1.9.6.2.2.4.3.2.2.2.1.2.3.3.2.1.1.3.3.2.2.2.2.4.4.2.3.4.3.3.5 1.2 1.5.1.3.2.2.1.2.2.4.2.3.1.2.1.1.1.2.1.2.2.3.7 1.7.1.3.3.7v.2l.2.3v.3l.1.2.1.2v.3l.2.6a2.7 2.7 0 010 .2l.2.4V434.1a1.4 1.4 0 000 .2v.6c0 .1.5.4.5.7z"/>
  <path d="M308.1 435.6v.3a1.3 1.3 0 010 .2v1a.1.1 0 010 .1v1.4l-.1.4v.4a.5.5 0 010 .1 1.8 1.8 0 01-.1.3 2 2 0 010 .2v.2l-.1.3v.2l-.1.3-.1.3-.1.4-.3 1-.1.3a.9.9 0 01-.1.2 21.4 21.4 0 00.6-5.4 21.7 21.7 0 00-.8-5.5 22.2 22.2 0 00-9.4-13l-1.2-.7a22 22 0 00-21.3 0 21 21 0 00-2 1.4 21.2 21.2 0 00-3.2 2.4 22.4 22.4 0 00-2.7-2.3 23 23 0 00-2.3-1.5 22 22 0 00-24.4 2.1 23.6 23.6 0 00-1.8 1.7 21.8 21.8 0 00-2.5 2.9 20.4 20.4 0 00-1.2 1.9 20.8 20.8 0 00-1 1.9l-.3 1v-.4l.1-.2v-.1l.1-.3.2-.8.1-.3.6-1.4v-.2l.2-.4.4-.7.1-.3.2-.4.2-.4.2-.2c0-.2.1-.2.2-.3l.1-.3.4-.6.2-.2.2-.2.1-.3.3-.3.2-.3.2-.2.3-.3v-.2l.3-.2.3-.2.6-.6.2-.3.4-.3.2-.3.3-.2.2-.2.2-.1.4-.4a1.6 1.6 0 01.2-.1l1-.8.2-.1a1.5 1.5 0 01.2-.1l.2-.2.3-.2h.2l.2-.2.9-.5h.1l.3-.2h.2l.2-.2.3-.1.2-.1.2-.1 1-.4h.1l.3-.1.2-.1h.2l.4-.2h.2l.2-.1h.2l.3-.1.4-.1 1.2-.3h1.2l1.2-.1H257.5l.4.1h1l1.2.3.5.1h.2l.2.1.4.1h.2l.9.4h.2l.3.2.4.1.4.2.2.1.3.1.2.1.2.2.3.1.2.1.5.3.2.1.8.5.2.1.2.1.2.2h.1l1 .7.1.2.4.3.2.1.2.2.3.3.2.2.4.4.3.2.2-.2.4-.4.2-.2.3-.3.2-.2.2-.1.4-.3.2-.2 1-.7.2-.2.2-.1.2-.1.3-.2.2-.1.2-.1.8-.5.2-.1.3-.2h.2l.2-.2h.2l.3-.2h.2l1-.4.1-.1.3-.1h.2l.2-.1.4-.2h.2l.2-.1h.5l.4-.2 1.2-.3h8.1l1.2.3.5.2h.4l.4.2h.2l.9.3.2.1.2.1.5.2.4.2h.2l.3.2h.2l.2.2.3.1.2.1.5.3.2.1.8.5.2.1.2.2.2.1.1.1.9.6.2.2.4.3.2.2.2.1.2.3.3.2.1.1.3.3.2.2.2.2.4.4.2.3.4.3.3.5 1.2 1.5.1.3.2.2.1.2.2.4.2.3.1.2.1.1.1.2.1.2.2.3.7 1.7.1.3.3.7v.2l.2.3v.3l.1.2.1.2v.3l.2.6a2.7 2.7 0 010 .2l.2.4V434.1a1.4 1.4 0 000 .2v.6c0 .1.5.4.5.7z" opacity=".1"/>
  <path fill="#FF6584" d="M391.2 333.2v.3a.6.6 0 010 .1v1a1.5 1.5 0 010 .2v.5l-.1.4v.1a.4.4 0 010 .1v.5a2.3 2.3 0 000 .3V337l-.1.3v.2l-.3.7c-.1.2 0 .2 0 .2l-.1.2a15.8 15.8 0 01-2 3.7l-.3.2a14.4 14.4 0 01-1.3 1.5l-22 22-22-22a15.6 15.6 0 01-4.6-12.3l.1-.9a14.7 14.7 0 01.3-1.4v-.3a.8.8 0 000-.2l.1-.3.2-.5v-.2l.4-1 .1-.2.2-.3.2-.5a2.1 2.1 0 000-.2l.2-.2a2.8 2.8 0 01.2-.3.6.6 0 010-.1v-.1l.2-.2.1-.2.3-.4v-.1l.2-.2.1-.2.2-.2a1.4 1.4 0 01.2-.2l.1-.2.2-.2v-.1l.2-.1.1-.2.5-.4.1-.2.3-.3a1.3 1.3 0 00.2-.1l.2-.2.1-.1.2-.1.2-.3h.2l.7-.6.2-.1.1-.1h.1l.2-.2h.2l.1-.2.6-.3h.1l.2-.2h.2l.1-.1.2-.1h.2l.1-.1.7-.3h.1l.2-.1H348.9l.3-.2H349.8l.3-.1.9-.2h5.6c.3 0 .6 0 1 .2h.5l.3.1h.1l.7.3H359.5l.3.2.3.2H360.4l.2.2h.2l.2.1.1.1.4.2.1.1.5.3.2.1.1.1.2.1.7.5.1.1.3.3h.1l.2.2.2.2.2.1a3 3 0 00.2.3l.2.2.2-.2a3 3 0 00.2-.3l.2-.1.2-.2.2-.1.1-.1.3-.3h.1l.7-.6.2-.1h.1l.2-.2.2-.1.2-.2.7-.3.3-.2h.1l.2-.1h.1l.2-.2h.2l.6-.3h.2l.1-.1H371l.3-.2H371.8l.3-.1.9-.2H378.6l1 .2H380.1l.3.2.7.2h.2l.2.1.3.1.3.2h.1l.2.1h.1l.2.2h.2l.2.1.3.2.2.1.5.3.1.1.2.1.1.1h.1l.6.5.2.2a3.1 3.1 0 01.3.2l.2.2.2.2.2.1v.1l.3.2.1.2.2.1.3.3.1.2.2.2.3.4.8 1 .1.2.1.2.1.1.2.3.1.2a1 1 0 010 .1l.2.2.1.2.1.2.6 1.2v.2l.2.5a.9.9 0 010 .2l.1.2.1.2a1 1 0 000 .1v.2l.1.2.1.4c.1 0 0 .1 0 .2v.5a.5.5 0 000 .1V331.1a1.5 1.5 0 010 .2v.2a1.5 1.5 0 000 .2v.3a.7.7 0 010 .1.7.7 0 010 .2 2 2 0 010 .2 2 2 0 010 .3z"/>
  <path d="M391.2 333.2v.3a.6.6 0 010 .1v1a1.5 1.5 0 010 .2v.5l-.1.4v.1a.4.4 0 010 .1v.5a2.3 2.3 0 000 .3V337l-.1.3v.2l-.3.7c-.1.2 0 .2 0 .2l-.1.2a15.6 15.6 0 00.4-3.8 15.9 15.9 0 00-.5-4 15.6 15.6 0 00-4-7 15.9 15.9 0 00-2.7-2.1l-.9-.5a15.6 15.6 0 00-15 0 17.4 17.4 0 00-1.4 1 16.4 16.4 0 00-2 1.6 16 16 0 00-2-1.6 13.7 13.7 0 00-1.6-1 15.6 15.6 0 00-15 0 15.2 15.2 0 00-2.2 1.5 15.8 15.8 0 00-1.3 1.2 16.4 16.4 0 00-1.7 2l-.8 1.3a14 14 0 00-.7 1.4l-.3.7v-.3a.8.8 0 000-.1v-.1l.1-.2.2-.6v-.2l.4-1 .1-.2.2-.3.2-.4a2.1 2.1 0 000-.2l.2-.3a2.8 2.8 0 01.2-.3.6.6 0 010-.1l.2-.2.1-.2.3-.5v-.1l.2-.2.1-.2.2-.2a1.4 1.4 0 01.2-.2l.1-.2.2-.2.2-.2.1-.2.5-.4.1-.2.3-.2a1.3 1.3 0 00.2-.2l.2-.2h.1l.2-.2.2-.2.2-.1.7-.6h.2l.1-.2h.1l.2-.2h.2l.1-.1.6-.4h.1l.2-.1.2-.1h.1l.2-.2h.2l.1-.1.7-.3H348.7l.1-.1h.2l.3-.1h.4l.2-.1h.3l.9-.3h5.6l1 .2.3.1h.6l.7.3h.1l.2.1.3.2h.3l.2.2h.1l.2.1h.2l.2.2h.1l.4.3h.1l.5.4h.2l.1.2h.2v.1l.7.5h.1l.3.3.1.1.2.1.2.2.2.2a3 3 0 00.2.2l.2.2.2-.2a3 3 0 00.2-.2l.2-.2.2-.2h.2l.1-.2.3-.2.1-.1.7-.6h.2l.1-.1.2-.1.2-.2.2-.1.7-.4.3-.1.1-.1h.2l.1-.1.2-.1h.2l.6-.3.2-.1h.1l.2-.1h.1l.3-.1H372l.3-.2.9-.1H373.9l.8-.1h4.1l.8.2.4.1H380.6l.7.3h.2l.2.1.3.2.3.1h.1l.2.1.1.1h.2l.2.2h.2l.3.3h.2l.5.4h.1l.2.2h.1l.1.1.6.5h.2a3.1 3.1 0 01.2.3l.2.1.1.2.2.1.2.2.3.2v.1l.1.1.2.2.3.3.1.1.2.3.3.3.8 1 .1.2.1.2.1.2.2.2.1.2a1 1 0 010 .2h.2v.2l.1.2.1.2.5 1.2.1.1.2.6a.9.9 0 010 .1l.1.2.1.2a1 1 0 000 .2v.1l.1.3.1.3c.1.1 0 .1 0 .2V331.1a1.5 1.5 0 010 .2 1.5 1.5 0 000 .3.4.4 0 000 .1v.2a.7.7 0 010 .2.7.7 0 010 .1 2 2 0 010 .3 2 2 0 010 .2z" opacity=".1"/>
  <path fill="#FF6584" d="M627.2 417.7v.7a2.5 2.5 0 000 .4v.3a1.4 1.4 0 010 .2v1a.3.3 0 010 .1v.1a1.4 1.4 0 010 .2v.5a.8.8 0 000 .2v.1l-.1.3a1.9 1.9 0 000 .2l-.3.7a1.8 1.8 0 000 .2l-.1.2a15.6 15.6 0 01-2.1 3.7l-.2.2a15.8 15.8 0 01-1.3 1.5l-22 22.1-22-22a14.5 14.5 0 01-1.8-2.1 14.3 14.3 0 01-.9-1.4 15.6 15.6 0 01-1.8-8.9v-.8a14.8 14.8 0 01.3-1.5l.1-.3a.8.8 0 010-.2v-.3l.2-.5a2.3 2.3 0 00.1-.2l.4-1v-.2l.2-.3.2-.5.1-.2.2-.2.1-.3a1 1 0 01.1-.2l.1-.2.1-.2.3-.4.1-.2.2-.1v-.2l.3-.2.1-.2.1-.2.2-.2v-.1l.2-.2.1-.1.5-.5a1.4 1.4 0 01.1-.1 3 3 0 01.3-.3l.2-.1a1.8 1.8 0 01.2-.2l.1-.2h.2l.2-.3.2-.1.7-.5.1-.1.2-.1.1-.1.2-.1.1-.1h.2l.6-.4.1-.1h.2l.2-.2h.1l.2-.1h.1l.2-.2.7-.2h.1l.2-.1h.1l.2-.1.3-.1H585.9l.3-.2.8-.1H587.8l1-.1H592.6a8.6 8.6 0 01.9.2l.4.1h.2l.3.1h.1l.7.2H595.6l.3.2.3.1.2.1.1.1h.2l.1.1.2.1.2.1.4.2.1.1.5.3.2.1.1.1.2.1.7.5.1.1.3.3h.1l.2.2.2.2.2.2.2.2a1.4 1.4 0 01.2.2l.2-.2.2-.2a1.3 1.3 0 01.2-.2l.2-.2.2-.1.1-.1.3-.3h.1l.7-.6h.2l.1-.2h.2l.2-.2.2-.2.6-.3h.2l.2-.2h.1l.2-.1h.1l.2-.1.1-.1.7-.3h.1l.2-.1h.2l.1-.1h.7l.2-.1.3-.1.9-.2h.7l1-.1h4l.8.3H616.2l.3.1h.2l.6.3H617.6l.3.2h.4l.1.2h.2l.1.1h.2l.2.2h.1l.4.3h.1l.6.4h.1l.2.2h.1l.1.1.6.5h.2l.2.3.2.1.1.2.2.1.2.2.2.2.1.1.1.1.2.2.2.3.2.1a3.2 3.2 0 01.2.3l.3.3.8 1 .1.3.1.1.1.2.2.2.1.2v.2l.1.1.1.1.1.2v.2l.6 1.2a1.3 1.3 0 01.1.1l.2.6v.1a1.7 1.7 0 00.1.2v.5l.1.3.1.3v.2l.1.3v2.1a.6.6 0 000 .2v.1a2 2 0 010 .3 2 2 0 010 .2z"/>
  <path d="M627.2 417.7v.7a2.5 2.5 0 000 .4v.3a1.4 1.4 0 010 .2v1a.3.3 0 010 .1v.1a1.4 1.4 0 010 .2v.5a.8.8 0 000 .2v.1l-.1.3a1.9 1.9 0 000 .2l-.3.7a1.8 1.8 0 000 .2l-.1.2a15.6 15.6 0 00.4-3.8 15.6 15.6 0 00-7.2-13l-.9-.5a15.6 15.6 0 00-15 0 15.3 15.3 0 00-1.5.9 15.6 15.6 0 00-2 1.7 15.3 15.3 0 00-1.9-1.6 18.2 18.2 0 00-1.6-1 15.7 15.7 0 00-15 0 16 16 0 00-2.2 1.5 14.3 14.3 0 00-1.3 1.1 14.8 14.8 0 00-1.7 2 13 13 0 00-.9 1.4 15.2 15.2 0 00-1 2.1l.1-.3a.8.8 0 010-.1.3.3 0 010-.1l.1-.3.2-.5a2.3 2.3 0 000-.2l.4-1 .1-.2.1-.3.3-.5v-.2l.2-.2.2-.3a1 1 0 010-.1v-.1l.2-.2v-.2l.4-.4v-.1l.2-.2.1-.2.2-.2.1-.2.1-.2.2-.2h.1l.1-.2.2-.2.4-.4a1.4 1.4 0 01.2-.2 3 3 0 01.2-.3l.2-.1a1.8 1.8 0 01.2-.2l.2-.1.1-.1.3-.3h.1l.7-.6.2-.1.1-.1h.2l.2-.2.2-.2.6-.3h.2l.2-.2h.1l.2-.1.1-.1h.2l.1-.1.7-.3h.2l.1-.1h.2l.1-.1.3-.1H586l.3-.1.9-.2h.7l1-.1h4a8.6 8.6 0 01.8.2l.4.1h.2l.3.1h.2l.6.2h.2l.1.1.3.1.4.2h.1l.2.1h.1l.2.2h.2l.1.2.4.2h.2l.5.4h.1l.2.1.1.1.1.1.6.5h.2l.2.3.2.1.1.1.2.2.2.2.3.2a1.4 1.4 0 01.1.2l.2-.2.3-.2a1.3 1.3 0 01.1-.2l.3-.2h.1l.1-.2.3-.2.2-.1.7-.6h.1l.2-.2h.1l.2-.2h.1l.2-.1.6-.4h.1l.2-.1.2-.1h.1l.2-.2h.1l.2-.1.6-.3h.4l.1-.1h.1l.3-.2h.7l.2-.1 1-.2h5.6l.9.2H616.3l.3.2h.1l.6.2h.4l.3.2.3.1h.1l.2.2h.2l.1.1.2.1h.2l.3.3h.2l.5.4h.1l.2.2h.1l.1.2.7.4.1.1.3.2.1.2h.2l.1.2.2.2a1 1 0 00.1 0c0 .2.1.2.2.3l.2.1.1.2.3.3.1.1a3.2 3.2 0 01.3.3l.2.3.8 1.1.1.2.2.1v.2l.2.2.1.3.1.1v.1l.1.1.1.2.1.2.6 1.2a1.3 1.3 0 010 .2l.2.5.1.1a1.7 1.7 0 000 .2l.1.2V413.4l.2.3v2.9a2 2 0 010 .3 2 2 0 010 .2z" opacity=".1"/>
  <path fill="#FABEBE" d="M537.1 410.9s3.8-2.6.1-4.1-5.9-6.2-6-7.8-3-18.6 6.9-15 14.4 7.7 14.3 10.8-1.7 22.9-1.7 22.9z"/>
  <path fill="#33618C" d="M561 424.4v1.2c-.4 2-1 6.1-2.1 6.7-1.5.8-3.2-1.3-6-2-.4 0-.8.4-1.2 1.2a9.3 9.3 0 00-.5 1c-1.5 4.6-2.2 15-2.8 19a133 133 0 01-13.3 25.8l-2 3.3-11-20.6v-30.4a27 27 0 002-4.2 7.4 7.4 0 00.5-3.4 1.7 1.7 0 00-.5-1 1.2 1.2 0 01-.2-.3 1.6 1.6 0 010-.3 3.3 3.3 0 01-.2-.8v-.6c0-4.3 3-13.3 3-13.3s3.6 2 11.7 2.9 22.7 15.8 22.7 15.8z"/>
  <path d="M561 425.6c-.4 2-1 6.1-2.1 6.7-1.5.8-3.2-1.3-6-2-.4 0-.8.4-1.2 1.2a9.3 9.3 0 00-.5 1c-5.4-2.6-15-7.4-15.6-8.8s-7.2-1.7-11-1.7h-.6a5 5 0 01-.3-2.3c.3-4.5 3-12.7 3-12.7s3.7 2 11.8 2.9c7.6.9 21 14.2 22.4 15.7z" opacity=".1"/>
  <path fill="#33618C" d="M561 424.5s-.7 7-2.1 7.8-3.2-1.3-6-1.9c-.4-.1-.8.3-1.2 1-5.4-2.5-15.5-7.6-16-9s-8.1-1.7-11.7-1.7c-1.3-2.8 2.8-15 2.8-15s3.6 1.9 11.7 2.9 22.6 15.9 22.6 15.9zM534 523.6c-2.2 2.2-16.7-8.6-20.6-9.3s-18.4-61-18.4-61l2.1-34.1-8.4-31.4-1.1-4s.8-2.6 4.2 0 11.7 13.1 13.9 13.9 5 2.4 8.3 6.2 4.9 4.5 4.9 4.5 3.8 9.7 3.7 12 1.2 18.7 3 20.1 4.6 14.5 4.6 14.5 5.2 18.3 6.3 23.5l.2.8c.7 3.8-.4 42-2.7 44.3z"/>
  <path d="M509.2 447.7l10.5 2.8s2 18.2 2.8 19.1 3.3 38.2 3.3 38.2l-16.6-7.5-6.2-20v-22.1z" opacity=".1"/>
  <path fill="#FABEBE" d="M431 742.2a35.4 35.4 0 00-1.6 6c-2 10.8-2.4 28-2.4 28s2 8.9 1.4 10.4a43.6 43.6 0 00-1.1 7.2l-.3 2.7-19.4-1.2v-3c.2-3.9.6-10.8 2-14.4s-.2-19.7-1.2-29l-.8-6.7s26.6-8.6 23.3 0zM506.7 747.4l-2.4 23.2s.7 7.4 0 10.6l-1 8.7-.3 4s-14.8 10.4-18.2 1.3a16.1 16.1 0 01-.8-3.4c-1.5-9.5 2.7-23.5 2.7-23.5v-30l20.6 3.5z"/>
  <path d="M431 742.2a35.4 35.4 0 00-1.6 6 29.6 29.6 0 01-21 .8l-.8-6.8s26.6-8.6 23.3 0zM507.3 741.7l-.6 5.7c-7.2 3.3-14.9 1.3-20-1v-8z" opacity=".1"/>
  <path fill="#264058" d="M424.4 480.6s-1.7 12.5-3.6 15-1 6.2-3 6.6-2.5 9.8-2.5 9.8l-1.6 20.6s-.5 4.2-2.8 5.3 0 6.8 0 6.8-2.5 4.8-1 7.6-3 15.5-3 15.5-1.9 24.6 0 28a27.8 27.8 0 013 10.8l1 41.8s-2.5 16.1-3.3 19.1 2.3 9.5.2 13-1.7 11-1.7 11-3.3 29.9-1.4 40.9-.6 13.3-.6 13.3a29.7 29.7 0 0029.9-1.2s0-21.7 2.5-25.5 2.2-14.6 2.2-14.6.6-9.6 2.5-11.5 1.5-10.3 1.5-10.3 1.7-5.6 3.6-10 3-17 3-17a21.4 21.4 0 013-6.2c2.1-3 0-9.5 0-9.5s-2.4-4.3-.9-8.5 9.8-38.6 9.8-38.6l3.2-12.3 4.6 15.7s-.6 11.2 0 14.4 5.1 10 5.1 10v33.3s.5 22.5 2.2 26 2.5 17 2.5 17 5.7 39.3 2.1 45c0 0 16.4 11.7 29.3 2.2 0 0-2.8-7.9 0-10.6s4.7-37.4 4.7-37.4 1.7-13.7 1.4-17-2.3-18.2-1-21.4 3-63 3-63l2.1-26.5v-21.7a127.5 127.5 0 00-4.8-34.7c-3.6-12.7-8.6-27.2-12.7-28-.1 0-66 7.2-78.5-3.2z"/>
  <path d="M427.3 793.7l-.3 2.8-19.4-1.3v-3c9.2-8 18.2 1.5 18.2 1.5z" opacity=".1"/>
  <path fill="#222528" d="M428.5 794.4v11.8s-4 8-5.4 9.6c-.8 1-1.2 4.6-1.5 7.6l-.2 4.4s2.5 10.2-17.4 9.8-11.9-15.2-11.9-15.2l.1-.2c1-1.9 9.1-16.3 10-17.1s1.7-6.1 1.7-6.1l3.7-6c9.2-8.2 18.3 1.4 18.3 1.4z"/>
  <path d="M421.4 827.8s2.5 10.2-17.4 9.7-11.9-15.1-11.9-15.1l.1-.2c.6 3 3 6.1 10.4 5.7a46 46 0 0019-4.5l-.2 4.4zM503.4 789.9l-.3 4s-14.9 10.4-18.3 1.3a16.1 16.1 0 01-.8-3.4 8.1 8.1 0 00.8-.7c2.5-3.6 15.4-3.8 16-2 .4 1 1.6 1 2.6.8z" opacity=".1"/>
  <path fill="#222528" d="M497.2 841.2c-14 1-16.4-7.7-16-14a19 19 0 011-5c1.7-4.7 1.6-13.5 1.6-13.5l-.7-16c.5.3 1.8-1 1.8-1 2.4-3.6 15.4-3.7 16-2s3.6.6 3.6.6-.6 10.8 3.8 19.5A47.9 47.9 0 01513 827v1.3s2.9 11.7-15.7 12.8z"/>
  <path d="M497.2 841.2c-14 1-16.4-7.7-16-14 0 0 3.7 6.2 16.6 4.7a36.3 36.3 0 0015.1-4.8v1.2s2.9 11.8-15.7 13zM511.7 499.3c-2.9-8.2-6-15-8.9-15.6l-2.5.3c2.6 1.4 5.5 7.7 8.2 15.3a158.6 158.6 0 018.7 52.3v16.7l-2.1 26.5s-1.7 59.8-3 63 .8 18.2 1 21.4-1.5 17-1.5 17-1.9 34.6-4.6 37.3 0 10.6 0 10.6a19 19 0 01-10 3.7 19.5 19.5 0 0013.2-3.6s-2.8-7.9 0-10.7 4.6-37.3 4.6-37.3 1.7-13.8 1.5-17-2.3-18.2-1-21.4 3-63 3-63l2.1-26.5v-16.7a158.6 158.6 0 00-8.7-52.3zM408 745.8s2.5-2.4.6-13.4 1.3-41 1.3-41-.4-7.6 1.7-11-1-10-.2-12.9 3.4-19 3.4-19l-1.1-41.9a27.8 27.8 0 00-3-10.8c-2-3.4 0-28 0-28s4.4-12.7 3-15.5 1-7.6 1-7.6-2.4-5.7 0-6.8 2.7-5.3 2.7-5.3l1.7-20.6s.7-9.3 2.6-9.7 1-4 3-6.6c1.4-2 2.7-9.5 3.3-13.1a13.2 13.2 0 01-3.5-2s-1.7 12.5-3.7 15-1 6.2-3 6.6-2.5 9.8-2.5 9.8l-1.6 20.6s-.5 4.2-2.8 5.3 0 6.8 0 6.8-2.5 4.9-1 7.6-3 15.5-3 15.5-1.9 24.6 0 28a27.8 27.8 0 013 10.8l1 41.8s-2.5 16.1-3.3 19 2.3 9.6.2 13-1.7 11-1.7 11-3.2 30-1.3 41-.6 13.4-.6 13.4a29.2 29.2 0 0015.7 3.3 28.5 28.5 0 01-11.9-3.3z" opacity=".1"/>
  <path fill="#222528" d="M489.8 282.5c2.6 2.5 4.3 5.7 6.6 8.5s5.5 5.3 9 5.1a24.4 24.4 0 013.3-.3 6.8 6.8 0 013.4 1.5c4.3 3.3 6.4 8.7 7.4 14s1 10.9 2.4 16.1c.5 1.8 1.2 3.6 2.7 4.7 2 1.3 4.6 1 7 .9 3 0 6.4.7 8.7 2.9s3.1 6 1.3 8.5a5.2 5.2 0 00-1 2 3.6 3.6 0 001 2.5l6.4 9c1.4 1.7 2.7 3.7 2.6 6a4.7 4.7 0 01-8.3 2.6c.7 2.2-1.5 4.5-3.8 4.8s-4.5-.7-6.6-1.7l-.2 3.8c-1.9 1-4-1-5.5-2.6s-4.6-2.5-5.4-.4a2.6 2.6 0 00.7 2.5c2.6 3.3 8.9 2.4 10.7 6.3 1.2 2.5-.6 5.7-3.2 6.6s-5.6 0-7.8-1.6-4.4-4.3-7.3-4.3c-3.6 0-5.8 4.2-9.2 5.5-3.2 1.2-6.8-.4-9.3-2.7s-4.2-5.4-6.5-8c-6-6.5-15-9-23.3-11.8s-17.2-6.6-21.5-14.3c-1.3-2.4-2.2-5-3.8-7.2-2.8-3.7-7.6-5.4-10.7-8.8a13.7 13.7 0 01-2-14.6c1.4-3.1 4-5.5 6-8.3a27.6 27.6 0 005.5-16.2c0-2.2-.3-4.5.4-6.5 1.1-3.2 4.2-5.3 7.4-6.1s6.7-.6 10-.3c3.6.3 7.4 1.1 11 1 2.4 0 4.3-2 6.6-2.6 5-1.4 11.5-.3 15.3 3.5z"/>
  <g opacity=".1">
    <path d="M517.8 308.8c1 5.4 1 10.9 2.4 16a10.1 10.1 0 001.6 3.7l-.3-1c-1.4-5.3-1.5-10.8-2.4-16.1a28.6 28.6 0 00-3.3-9.2 31.7 31.7 0 012 6.6zM540 342a5.1 5.1 0 00-1.2 2 3.6 3.6 0 001 2.5l.3.3a1.6 1.6 0 010-.4 5.2 5.2 0 011-1.9c1.6-2.3 1.1-5.5-.5-7.7a6.2 6.2 0 01-.7 5.1zM530.8 378a5.5 5.5 0 01-3.5 5.3c-2.6 1-5.6 0-7.8-1.6s-4.4-4.4-7.3-4.3c-3.7 0-5.8 4.2-9.2 5.5-3.2 1.2-6.9-.4-9.4-2.8s-4.2-5.3-6.5-7.9c-5.9-6.5-14.9-9-23.2-11.9s-17.2-6.5-21.5-14.2l1.2 2.5c4.3 7.7 13.2 11.5 21.5 14.3s17.4 5.4 23.3 11.9c2.3 2.5 4 5.6 6.5 7.9s6.2 4 9.3 2.7c3.4-1.3 5.6-5.5 9.2-5.5 3 0 5 2.6 7.4 4.4s5.2 2.5 7.8 1.6 4.4-4.2 3.2-6.7a4.7 4.7 0 00-1-1.3zM548.6 359.3a5.5 5.5 0 01.3 2 4.7 4.7 0 01-8.3 2.7c.7 2.2-1.5 4.5-3.8 4.8s-4.5-.7-6.6-1.7l-.2 3.7c-2 1-4-1-5.5-2.5s-4.7-2.5-5.4-.4a2.6 2.6 0 00.6 2.4 5.1 5.1 0 00.6.6 1.8 1.8 0 010-.5c.8-2 4-1.1 5.5.4s3.5 3.6 5.5 2.6l.1-3.8c2.1 1 4.4 2 6.7 1.7s4.5-2.5 3.7-4.7a4.7 4.7 0 008.3-2.7 7.5 7.5 0 00-1.5-4.6zM438.5 338.9c-2.8-3.7-7.5-5.4-10.6-8.9a11.6 11.6 0 01-1.2-1.5 12.7 12.7 0 002.5 4c3 3.5 7.8 5.3 10.6 9a13.6 13.6 0 011 1.6 22.6 22.6 0 00-2.3-4.2z"/>
  </g>
  <path fill="#FABEBE" d="M457.5 336.8s2.3 25.9-8.3 33.7 22.7 29.3 22.7 29.3l25.2-5.5s-12.3-11.5-12.3-16.4 2.1-32.2 5.5-35.4-32.8-5.7-32.8-5.7z"/>
  <path fill="#33618C" d="M450 336.8l-5.7 12.6-9.2 5.6-7.5 8.2-16.9 10.9-1-1.9a50.4 50.4 0 00-3.9-6.3c-1.4-1.6 0-18.4 0-18.4s3.3-3.8 2.2-10.7-1.4-33.7-1.4-33.7-1.3-22.6.5-27.4-4-19.9-4-19.9-16.2-16-15.1-19.4 13.5 0 13.5 0 5 2.5 7.5 2.7l16 .1h7.5s5.3 18.3 4.6 20.2c0 .4-.2.8-.3 1.1-.5 1.5-1 2.8-.3 3.7.8 1.1 2.6 14.7 2.6 14.7l1.7 14.6s2.7 11.4 2.5 13-4 5-2.3 8 2.4 12.2 2.4 12.2 2.9 6.8 5.8 9.4a4.9 4.9 0 00.9.7z"/>
  <circle cx="476.9" cy="323.4" r="30.6" opacity=".1"/>
  <circle fill="#FABEBE" cx="476.9" cy="322.2" r="30.6"/>
  <path fill="#FFFFFF" d="M509.2 447.7c-2.7 3-3.4 32-1.7 34.6s-8.3 7.6-14 7.4-21.4 4.7-21.4 4.7-31.4-8.5-38-4.2-15.9-7.7-13.1-12-3-10.1-3.9-12.4a18.7 18.7 0 01-.3-3c-.8-10.7-1.6-45-1.6-45v-39.2l28.9-20.4a138.4 138.4 0 0113.4 7.8 65.6 65.6 0 018.6 6.6c7.9 7.5 27.4 15.3 27.4 15.3s21.4 25.7 24.2 28.2-5.7 28.6-8.5 31.6z"/>
  <path d="M415.2 417.8V384s1 61.6 1.6 78.7c-.8-10.7-1.6-44.9-1.6-44.9zM417 465.3a3.4 3.4 0 01.1 1.7l-.2-1.8zM457.7 376.9a25.9 25.9 0 00-4.6 6.5c-1.6 3.5-37.9.6-37.9.6v-5.4l28.9-20.4a138.4 138.4 0 0113.4 7.8l.2 10.9zM417 462.7a3.4 3.4 0 01.1 1.8l-.2-1.8zM450 336.8l-5.7 12.6-9.2 5.6-7.5 8.2-16.9 10.9-1-1.9c4.6-5.6 9.3-11.5 12-13.6 5.4-4.1-.1-4.6 0-5.4s12-5 15.1-8.1c2.6-2.5 9.8-7.3 12.4-9a4.9 4.9 0 00.9.7z" opacity=".1"/>
  <path fill="#33618C" d="M450 336.8s-10 6.5-13.2 9.5-15 7.3-15 8.1 5.3 1.3 0 5.5-18.7 23.5-23.5 25-37.4 15-37.4 15-10.6 10-12.2 10 9.7 10.8 9.7 10.8 10.2 8 11.3 9.4 29 16.3 29 16.3 4.7 1.4 5.2 2.9 6.9 5.4 6.9 5.4 7 8.1 6.4 11-2-83-2-83 36.3 2.9 37.9-.6a25.9 25.9 0 014.6-6.5s-.1-29.4-2.1-31.6-5.5-4.5-5.5-7.2z"/>
  <path d="M365.9 406.6s9.5 10.4 14 12.1a12 12 0 016.2 6.4s5.2 3 8 3.5 7.2 4.7 7.2 4.7 10.7 3 10.7 5.3 4.3 5.3 4.3 5.3l-1-61.1s-17.8 2.2-22.9 9.7-26.5 14.1-26.5 14.1z" opacity=".1"/>
  <path d="M386.7 412.4c.8-.5 22.5-28.5 22.5-28.5l4-.8s-10.3 15.4-10.2 16.7-16.3 12.6-16.3 12.6zM395.8 421.6s5.7-13.2 7.3-15.5 10.1-17.1 10.1-17.1a10 10 0 010 3.8c-.4 1.4-17.4 28.8-17.4 28.8zM434.1 323s-12.7 23.3-11.6 24.4 11.6-24.3 11.6-24.3zM438.6 332.3s-10.5 15.4-9.6 15.2 9.6-15.2 9.6-15.2z" opacity=".1"/>
  <path fill="#FABEBE" d="M429 244.7l-20 1.4v-1.8c-.4-6.6-1.4-29.7-2-32.3-.6-3-1.2-8.4-1.2-8.4s-10.8-1.6-10.7-3.3-13.8-20.4-3.1-20c8.3.2 22.5 10 28.3 14.4a5.3 5.3 0 012.2 4.9 21.4 21.4 0 00-.2 3.8 53.3 53.3 0 01-.2 7.9c-.2 2.3-.1 4.9.9 6.7 1.5 2.6 3.7 13.6 5 20.6l1 6z"/>
  <path d="M437.1 260l-.3 1.2c-4.4-4.3-31.6-7-31.6-7-2.4-2.9-.3-4 2.3-7.5 1.5-2 10.4-4.8 17.6-6.8h7.4s5.3 18.3 4.6 20.2z" opacity=".1"/>
  <path d="M429 244.7l-20 1.4v-1.8c3-1.8 10.1-4 16-5.7h3l1 6z" opacity=".1"/>
  <path fill="#33618C" d="M437.1 259.4l-.3 1.2c-4.4-4.4-31.6-7.1-31.6-7.1-2.4-2.8-.3-4 2.3-7.4 1.5-2 10.4-4.9 17.6-6.9h7.4s5.3 18.3 4.6 20.3z"/>
  <path d="M454.5 417s-2.2 42.8 0 44.8 0-44.8 0-44.8zM470.2 435s-.8 47 0 47.5 0-47.6 0-47.6zM488.7 440.5s3 32.5 5.7 33.7-5.7-33.7-5.7-33.7zM536 479.2a6.6 6.6 0 01-2.6-1c-2.7-1.8-5.7-20.5-9.7-23s-18.3-27.6-18.3-27.6-5.6-10-7.8-12.6-1.1-14-1.1-14-6-6.8-8.5-12.5a11.4 11.4 0 01-1-4.1s.8-2.5 4.2 0 11.6 13.1 13.9 14 5 2.3 8.3 6.1 4.9 4.5 4.9 4.5 3.8 9.7 3.6 12 1.3 18.7 3 20.1 4.7 14.5 4.7 14.5 5.2 18.4 6.3 23.6zM523.7 419.6v-.6a6.2 6.2 0 01.2 1.4 3.3 3.3 0 01-.2-.8z" opacity=".1"/>
  <path d="M536.8 474.3c-.6 1.1-1.2 2.2-1.8 3-2.6-2.7-5.5-20.4-9.4-22.8a18 18 0 01-3.5-4v-21a27 27 0 002-4.2c.5 5.7 1.6 14.1 2.8 15.1a62 62 0 014.6 14.5s3.4 12 5.3 19.4z" opacity=".1"/>
  <path fill="#33618C" d="M536.6 478.6a6.3 6.3 0 01-2.6-1c-2.7-1.8-5.7-20.6-9.7-23.1S506 427 506 427s-5.5-10-7.8-12.6-1-14-1-14-6-6.8-8.5-12.6a11.5 11.5 0 01-1.1-4s.8-2.6 4.2 0 11.7 13 14 13.9 4.8 2.4 8.2 6.2 5 4.4 5 4.4 3.7 9.8 3.6 12.1 1.3 18.7 3 20 4.6 14.6 4.6 14.6 5.3 18.3 6.4 23.6z"/>
  <circle fill="#222528" cx="504.1" cy="417" r="2.1"/>
  <circle fill="#222528" cx="518.3" cy="436.3" r="2.1"/>
  <path d="M534.7 430.6s-10.4-4.7-8.8-2.2 8.8 2.2 8.8 2.2zM534.7 437.5s-10.5-2.9-8.3-1.2 8.3 1.2 8.3 1.2zM533 445s-7.2-5.1-5.5-3.2 5.4 3.3 5.4 3.3zM540.4 450.5s-7.3 14.4-3.8 15.3 3.8-15.3 3.8-15.3zM436.5 686.2s-16.8 15.9-12 15.7 12-15.7 12-15.7zM413 708.2c.8 0 17.7-1.7 13.3-2.5s-13.4 2.5-13.4 2.5zM495.4 683.6s18 .6 17.6 2.6-17.6-2.6-17.6-2.6zM492.5 690.8s10.3 7.9 12.7 5.3-12.7-5.3-12.7-5.3z" opacity=".1"/>
  <path fill="#FABEBE" d="M442.7 578.4a5.3 5.3 0 01-.7 1.6 1.6 1.6 0 01-.5.5 28.6 28.6 0 01-8.4 4l-3.6-1c-2-.6-4.1-1.2-5-1.3s-1.2-1.4-1.3-2.7 0-2.2.5-2.4a1.3 1.3 0 00.4-.7 8 8 0 00.3-.8l.1-.3.7-3.9.2-1.6v-.5l1.4-.1h1.3c3.6-.2 9.8-.3 12.1.1 1 .2 1.8 1.2 2.2 2.5a11.7 11.7 0 01.5 3 12.8 12.8 0 01-.2 3.6zM515.3 585.8a1.5 1.5 0 000 .2l-.1 4c0 1-22 6.9-27.6 6.4-3.6-.2-1-2.7 1-5.3a8.4 8.4 0 001.7-2.7 2 2 0 000-1l-.3-1.2c-.5-2.3-.3-3 .3-3.5a4.2 4.2 0 00.7-1.4 5.5 5.5 0 00.3-1.4 4.3 4.3 0 00-.8-3.1c-1.7-2.3 6.4-3.5 6.4-3.5h15.3c1.5 0 2.3 2.1 2.7 4.9a32 32 0 01.4 5v2.6zM448.3 649.9s-17 4-15.2 3c.6-.4.8-1.8.7-3.4a22.3 22.3 0 00-.2-2.3l-.5-3.2s8.9-2 12-1a3.8 3.8 0 012.4 2.5 3.6 3.6 0 01.2.3 14.6 14.6 0 01.6 4z"/>
  <path d="M461.2 313.7c2.4-.8 4.4-2.2 6.6-3.2s4.9-1.7 7.2-.7a11.4 11.4 0 013 2.2l6 5.4a34.5 34.5 0 006.1 5.5c5.2 3.2 12 2.5 18 1.5a11 11 0 003.5-1c2.7-1.5 3.7-5 3.1-8s-2.5-5.5-4.6-7.7a64 64 0 00-20.8-15.5c-8.4-3.9-18.5-5.8-26.9-1.9a29.1 29.1 0 00-7 4.8c-2.9 2.6-10.4 9.2-8.8 13.7 1.9 5 10.3 6.4 14.6 5z" opacity=".1"/>
  <path fill="#222528" d="M461.2 313c2.4-.7 4.4-2.1 6.6-3.2s4.9-1.6 7.2-.7a11.8 11.8 0 013 2.2l6 5.5a34.2 34.2 0 006.1 5.4c5.2 3.2 12 2.5 18 1.6a10.8 10.8 0 003.5-1c2.7-1.5 3.7-5 3.1-8s-2.5-5.5-4.6-7.8a63.9 63.9 0 00-20.8-15.4c-8.4-3.9-18.5-5.8-26.9-2a29.4 29.4 0 00-7 4.8c-2.9 2.6-10.4 9.3-8.8 13.7 1.9 5 10.3 6.4 14.6 5z"/>
  <path d="M511.7 321.4a10.7 10.7 0 01-3.6 1c-6 1-12.7 1.7-18-1.5a34.5 34.5 0 01-6.1-5.5c-2-2-4-3.7-6-5.4a11.6 11.6 0 00-3-2.2c-2.3-1-5-.4-7.2.7s-4.2 2.4-6.6 3.2c-4.3 1.5-12.7 0-14.6-5a3.8 3.8 0 01-.2-.7 4.2 4.2 0 00.2 2c1.9 5 10.3 6.4 14.6 5 2.4-.8 4.4-2.3 6.6-3.3s4.9-1.6 7.2-.7a11.4 11.4 0 013 2.2l6 5.4a34.5 34.5 0 006.1 5.5c5.2 3.2 12 2.5 18 1.5a11 11 0 003.5-1c2.4-1.2 3.5-4.1 3.3-6.8a6.7 6.7 0 01-3.2 5.6zM425.5 569.9a41.3 41.3 0 01-1 5.7 47.5 47.5 0 001-5.8z" opacity=".1"/>
  <path d="M441.5 580.5c-2 1.5-7.6 4.3-8.4 4s-7-2.1-8.5-2.3-2-4.7-1-5.1a1.3 1.3 0 00.5-.7 8.6 8.6 0 01-.3 1c-1.2 2.4 1 4.6 1 4.6l8.8 2.3 8.3-4.6c2-2.7-.2-9-1.4-10s-14.7 0-14.7 0l-.3-.4 1.4-.1h1.3c3.6-.2 9.8-.3 12.1.1 3.4.6 3.4 9.7 1.2 11.2zM512.3 573.3h-15.4s-8 1.2-6.4 3.5.4 5.2-.2 5.8-.9 1.5 0 4.7-8.2 8.7-2.7 9.1 27.6-5.5 27.6-6.3 1.1-16.8-3-16.8zm2 16.5c0 .8-20.8 6.4-26 6s3.4-5.6 2.6-8.6-.6-3.8 0-4.4 1.8-3.4.2-5.5 6-3.3 6-3.3h14.5c3.8 0 2.7 15 2.7 15.8zM445.1 642.9c-3.1-.9-12 1-12 1s1.7 7.9 0 9 15.2-3 15.2-3 0-6.2-3.1-7zm-11.8 9.8c1.7-1 0-8.6 0-8.6s8.6-1.9 11.7-1 3 6.7 3 6.7-16.3 4-14.7 2.9z" opacity=".1"/>
  <path fill="#264058" d="M489.8 585.6l26.3-5.6.5 2.4-26.8 3.2z"/>
  <path fill="#264058" d="M485.8 588.2l32-3.3-31.1 6-.9-2.7z"/>
  <path fill="#264058" d="M489.8 579.3l26.8-1.9-27.2 3.4.4-1.5z"/>
  <path fill="#264058" d="M423.1 570.8l25.2.5-3 2.7-22.2.7v-3.9z"/>
  <path fill="#264058" d="M419.8 579.1l29.4-1.7-26.9 7.5-2.5-5.8z"/>
  <path fill="#264058" d="M430.4 647c.5-.2 19.8-2.5 19.8-2.5l-19.8 5.3z"/>
  <path fill="#33618C" d="M318.7 762.4s6.2 8.1-2.9 20.4-16.6 22.6-13.6 30.3c0 0 13.8-22.8 25-23.1s3.7-13.9-8.5-27.6z"/>
  <path d="M318.7 762.4a10 10 0 011.2 2.5c11 12.8 16.7 24.8 6.3 25-9.8.3-21.5 17.7-24.3 22.1a9.2 9.2 0 00.3 1s13.8-22.8 25-23 3.7-13.9-8.5-27.6z" opacity=".1"/>
  <path fill="#FFD037" d="M330.2 772.8c0 2.8-.3 5.2-.7 5.2s-.7-2.4-.7-5.2.4-1.5.8-1.5.6-1.4.6 1.5z"/>
  <path fill="#FFD037" d="M334.2 776.2c-2.5 1.3-4.7 2.2-5 1.8s1.8-1.7 4.3-3 1.5-.5 1.7 0 1.5-.2-1 1.2z"/>
  <path fill="#33618C" d="M285.8 762.4s-6.2 8.1 2.9 20.4 16.5 22.6 13.5 30.3c0 0-13.7-22.8-24.9-23.1s-3.8-13.9 8.5-27.6z"/>
  <path d="M285.8 762.4a10 10 0 00-1.3 2.5c-10.9 12.8-16.7 24.8-6.2 25 9.7.3 21.4 17.7 24.2 22.1a9.2 9.2 0 01-.3 1s-13.7-22.8-24.9-23-3.8-13.9 8.5-27.6z" opacity=".1"/>
  <path fill="#FFD037" d="M274.2 772.8c0 2.8.4 5.2.8 5.2s.7-2.4.7-5.2-.4-1.5-.8-1.5-.7-1.4-.7 1.5z"/>
  <path fill="#FFD037" d="M270.3 776.2c2.5 1.3 4.7 2.2 4.9 1.8s-1.7-1.7-4.2-3-1.6-.5-1.8 0-1.4-.2 1 1.2z"/>
  <path fill="#A1A8AF" d="M276.2 812s17.4-.5 22.6-4.2 26.8-8.2 28-2.2 26.2 29.7 6.6 29.9-45.6-3-50.8-6.3-6.4-17.2-6.4-17.2z"/>
  <path d="M333.7 833.4c-19.6.2-45.6-3-50.8-6.2-4-2.5-5.6-11.2-6.1-15.2h-.6s1.1 14 6.4 17.2 31.2 6.4 50.8 6.2c5.7 0 7.6-2 7.5-5-.8 1.9-3 3-7.2 3z" opacity=".2"/>
  <path fill="none" stroke="#222528" stroke-miterlimit="10" stroke-width="2" d="M672.2 824.6s-11.1-37.7 2-65.5a59.6 59.6 0 005-37.4 100.3 100.3 0 00-5.4-17.6"/>
  <path fill="#33618C" d="M682 686.6c0 4.6-8.3 18-8.3 18s-8.4-13.4-8.4-18a8.4 8.4 0 0116.7 0zM695.9 712.2c-2.5 3.9-16.9 10.6-16.9 10.6s.3-15.8 2.8-19.7a8.4 8.4 0 0114 9.1zM695.3 756c-4.2 2-20 .6-20 .6s8.3-13.5 12.4-15.6a8.4 8.4 0 117.6 15zM687.3 789c-3.7 2.7-19.4 4-19.4 4s5.8-14.7 9.5-17.5a8.4 8.4 0 1110 13.5zM661.5 723.7c3.3 3.2 18.7 6.5 18.7 6.5s-3.8-15.3-7-18.5a8.4 8.4 0 10-11.7 12zM652.7 762.4c4.1 2 19.8.6 19.8.6s-8.2-13.5-12.3-15.6a8.4 8.4 0 00-7.5 15zM649.3 801.2c3.7 2.8 19.5 4 19.5 4s-5.8-14.7-9.5-17.4a8.4 8.4 0 00-10 13.4z"/>
  <path fill="#33618C" d="M682 686.6c0 4.6-8.3 18-8.3 18s-8.4-13.4-8.4-18a8.4 8.4 0 0116.7 0zM695.9 712.2c-2.5 3.9-16.9 10.6-16.9 10.6s.3-15.8 2.8-19.7a8.4 8.4 0 0114 9.1zM695.3 756c-4.2 2-20 .6-20 .6s8.3-13.5 12.4-15.6a8.4 8.4 0 117.6 15zM687.3 789c-3.7 2.7-19.4 4-19.4 4s5.8-14.7 9.5-17.5a8.4 8.4 0 1110 13.5zM661.5 723.7c3.3 3.2 18.7 6.5 18.7 6.5s-3.8-15.3-7-18.5a8.4 8.4 0 10-11.7 12zM652.7 762.4c4.1 2 19.8.6 19.8.6s-8.2-13.5-12.3-15.6a8.4 8.4 0 00-7.5 15zM649.3 801.2c3.7 2.8 19.5 4 19.5 4s-5.8-14.7-9.5-17.4a8.4 8.4 0 00-10 13.4z"/>
  <path fill="#A1A8AF" d="M646 822.2s13.5-2.7 17-6.3 20-9.8 21.7-5.3 24.4 19.7 9 22.3-36 3.6-40.6 1.8-7.2-12.5-7.2-12.5z"/>
  <path d="M693.8 831.3c-15.4 2.7-36.1 3.6-40.6 1.8-3.5-1.4-5.9-8-6.8-11h-.5s2.7 10.8 7.3 12.6 25.2 1 40.6-1.8c4.4-.8 5.7-2.6 5.2-4.9-.4 1.5-2 2.7-5.2 3.3z" opacity=".2"/>
  <path fill="#FF6584" d="M169.3 85.8v.3a1.1 1.1 0 000 .2v1a.1.1 0 010 .2v.6l-.1.7-.1.5a1.9 1.9 0 000 .2v.1a.5.5 0 010 .2v.2l-.1.2c-.1 0 0 .2 0 .2v.3a1.6 1.6 0 01-.1.2 2.5 2.5 0 01-.1.3v.3l-.2.4-.3 1-.1.3c-.1.1 0 .1 0 .2a21.8 21.8 0 01-3 5.3l-.2.3a22.1 22.1 0 01-1.9 2.2l-31.5 31.2-31.2-31.2a22.2 22.2 0 01-2.5-3 21.5 21.5 0 01-1.2-2A22.1 22.1 0 0194 83.8l.1-1.2.4-2 .1-.5.1-.2v-.4l.3-.8.1-.3.6-1.4v-.2l.3-.5.3-.6c0-.1 0-.2.2-.3a2.7 2.7 0 01.1-.3l.3-.4a2 2 0 000-.2.4.4 0 00.1-.2l.2-.2.2-.3.4-.6.1-.2.2-.2.2-.3.2-.3.2-.2.1-.1.2-.2a3.5 3.5 0 01.2-.3 1.5 1.5 0 01.1-.1l.2-.3.2-.2.6-.6.2-.2.4-.4.3-.2.3-.3.2-.2.2-.1.3-.3.2-.2 1-.7.2-.2.3-.1.2-.1.2-.2.2-.1.2-.1.9-.5.1-.1.3-.1.2-.1.3-.2h.2l.2-.2h.2l1-.4.2-.1.2-.1h.2l.2-.1.4-.2.4-.2H110l.3-.2h.4c.4-.2.9-.2 1.3-.3h1.1l1.2-.1h4.4l.4.1h.9c.5 0 .9.2 1.3.3l.5.1h.4l.4.2h.2l.9.4h.2l.2.1.5.2.4.2h.2l.3.2.2.1.2.1.3.2h.2l.5.4h.2l.8.5.2.2.2.1.2.1.1.1.9.7.2.1.4.4.2.1.2.2.3.2.2.3.4.3.2.3.3-.3.3-.3a2.7 2.7 0 01.3-.3l.3-.2.2-.2.2-.2.4-.3.2-.1 1-.8.2-.1.2-.1.2-.2.3-.2h.1l.2-.2.9-.5h.2l.2-.2h.3l.2-.2.2-.1.2-.1.3-.1.9-.4h.2l.2-.1.3-.1h.1l.5-.2h.2l.1-.1h.2l.3-.1.4-.1 1.3-.3h1.1l1.2-.1h4.4l.4.1h.9l1.3.3.5.1h.1l.3.1.4.1h.2l.9.4h.2l.2.2.4.1.5.2.2.1.2.1.3.2h.2l.3.2.2.1.5.3.2.1.8.5h.1l.3.2.2.2h.1l.9.7a1.6 1.6 0 01.2.2l.4.3.2.2.2.1.2.2.3.3.1.1.2.2.2.2.3.3.4.4a2.2 2.2 0 01.2.2l.3.4.4.5 1.2 1.5a1.5 1.5 0 01.2.2 1.9 1.9 0 01.1.2l.2.2.2.4.2.3v.2l.2.2v.1l.2.3.1.2.8 1.7.1.3.3.7a2 2 0 010 .2l.1.3.1.3v.2l.2.2v.4l.2.5v.2l.1.4a1 1 0 000 .2V84a1.3 1.3 0 010 .2 1.3 1.3 0 010 .2v.7z"/>
  <path d="M169.3 85.8v.3a1.1 1.1 0 000 .2v1a.1.1 0 010 .2v.6l-.1.7-.1.5a1.9 1.9 0 000 .2v.1a.5.5 0 010 .2v.2l-.1.2c-.1 0 0 .2 0 .2v.3a1.6 1.6 0 01-.1.2 2.5 2.5 0 01-.1.3v.3l-.2.4-.3 1-.1.3c-.1.1 0 .1 0 .2a22 22 0 00-6-20.8 22.4 22.4 0 00-3.7-3l-1.2-.7a22 22 0 00-23.6 1.3 21.2 21.2 0 00-3 2.4 24.2 24.2 0 00-2.6-2.3 23 23 0 00-2.3-1.4 22 22 0 00-21.2 0 22.8 22.8 0 00-3.2 2 22.4 22.4 0 00-4.2 4.6l-1.3 2a20.8 20.8 0 00-.9 1.8l-.5 1 .2-.3v-.3l.1-.4.2-.7.1-.3.6-1.4.1-.3.2-.4.3-.7.2-.3a2.7 2.7 0 01.1-.3l.3-.4a2 2 0 000-.2.4.4 0 00.2-.1l.1-.3.2-.2.4-.6.1-.2.2-.3.2-.2.2-.3.2-.3.1-.1.2-.2a3.5 3.5 0 01.2-.3 1.5 1.5 0 01.1-.1l.2-.2.2-.2.6-.7.3-.2.3-.4.3-.2.3-.2.2-.2.2-.2.4-.3.2-.2 1-.7.2-.1.2-.2.2-.1.3-.2h.1l.2-.2.9-.5h.2l.2-.2.2-.1.3-.1.2-.1.2-.1.2-.1 1-.4h.2l.2-.2h.2l.2-.1.4-.1.4-.2H110l.3-.2h.4l1.3-.3h1.1l1.2-.1h4.4l.4.1h.9c.5 0 .9.2 1.3.3l.5.1H122l.5.2h.1l1 .4h.2l.2.1.4.2.5.2h.2l.2.2.3.1.2.1.3.2h.2l.5.4h.2l.7.5.2.2.3.1.2.1.1.1.9.7.2.1.4.4.2.1.1.2.3.2.3.3.4.3.2.3.3-.3.3-.3a2.7 2.7 0 01.3-.3l.3-.2.2-.2.2-.1.4-.4.2-.1 1-.8.2-.1.2-.1.2-.2.3-.2h.1l.2-.2.9-.5h.2l.2-.2h.3l.2-.2.2-.1.2-.1.3-.1.9-.4h.2l.2-.1.3-.1h.1l.5-.2h.2l.1-.1h.2l.3-.1.4-.1 1.3-.3h1.1l1.2-.1h4.4l.4.1h.9l1.3.3.5.1h.1l.2.1.5.1h.1l1 .4h.2l.2.2.4.1.5.2.2.1.2.1.3.2h.2l.3.2.2.1.5.3.2.1.7.5h.2l.2.2.3.2h.1l.9.7a1.6 1.6 0 01.2.2l.4.3.2.2.2.1.2.2.3.3.1.1.2.2.2.2.3.3.4.4a2.2 2.2 0 01.2.2l.3.4.4.5 1.2 1.5a1.5 1.5 0 01.2.2 1.9 1.9 0 01.1.2l.2.2.2.4.2.3v.2l.2.2v.1l.2.3.1.2.8 1.7.1.3.3.7a2 2 0 010 .2l.1.3.1.3v.2l.2.2v.4l.2.5v.2l.1.4a1 1 0 000 .2V84a1.3 1.3 0 010 .2 1.3 1.3 0 010 .2v.7z" opacity=".1"/>
</svg>
