<svg xmlns="http://www.w3.org/2000/svg" viewBox="0 0 1134.1 790.3">
  <ellipse fill="#F7F8F9" cx="486.6" cy="735.8" rx="416.1" ry="39.5"/>
  <path fill="#FABEBE" d="M776 465.7c-37.3 16.7-59.8-44.8-59.8-44.8s-11.7-10.8-45.8-8.1-89.5-6.3-89.5-6.3-20.6 19.3-47.1 20.6c0 0-19.4 6.8-22 12.2-2.2 4.4-6.2 13.5-7.6 16.8a6.3 6.3 0 01-.3.7l-.2.4-1.1.6-22.3 10.7-30.5 8.5-19.4 2.2-32.8-22.7s3.8-3.5 9.4-8c8.5-6.7 21.1-15.6 30.6-17 0 0 13-8 21.6-16.5 3.2-3.2 36.8-18.5 65.7-29.6a300 300 0 0175-18l97.4 20.5a90.8 90.8 0 0130.2 12.3c26.4 17 76.6 53 48.5 65.5z"/>
  <g opacity=".1">
    <path d="M402.1 459.3s3.8-3.6 9.4-8c8.5-6.8 21.1-15.6 30.6-17 0 0 13-8.2 21.6-16.6 3.2-3.2 36.8-18.5 65.7-29.6a299.6 299.6 0 0175-18l97.4 20.6a90.6 90.6 0 0130.2 12.4l4.8 3.1-8.9-5.8a90.7 90.7 0 00-30.1-12.4l-97.5-20.6a299.9 299.9 0 00-75 18.1c-28.8 11.1-62.4 26.4-65.6 29.6a156.7 156.7 0 01-21.6 16.6c-9.5 1.4-22.2 10.2-30.7 17-5.5 4.4-9.3 8-9.3 8l32.8 22.7h.1zM720.7 423.6a20 20 0 00-4-2.6c1 2.4 12.3 31.9 31.7 43.2-17.7-13.3-27.7-40.6-27.7-40.6z"/>
  </g>
  <path fill="#222528" d="M651.7 568a15.8 15.8 0 01-.5 1.5c0 .3-.2.6-.3.8a19.2 19.2 0 01-.8 1.8l-.4.8a1.3 1.3 0 01-.2.2l-.4.7c-1 1.7-2.1 3.4-3.3 5l-1 1.7a3 3 0 01-.3.3l-.5 1-.5.8c-.2.2-.2.3-.2.5l-.4.8a17.8 17.8 0 00-1.2 3.2c-1.6 6.4 1.1 12.9 3.4 19a60 60 0 012.7 38.9l-.4.9-.4 1.2-.8 1.7c-2.3 4.5-6.2 8.5-11 8-6.6-.6-9.8-8.7-15.9-11.4-5.2-2.4-11.8-.5-16.7-3.4a19 19 0 011.6-3.9l3-4.8a30.5 30.5 0 004-7.5 16.2 16.2 0 00.5-1.8.6.6 0 000-.1l.2-1v-.8a.8.8 0 000-.2l.1-1a49.6 49.6 0 00-1-10.1l-3.7-22.6a35.4 35.4 0 01.3-17.7l.4-1a39.3 39.3 0 013.5-6q4.8-7 10.2-13.5c2.5-3 5.1-6 6-9.7a8.6 8.6 0 00.2-1.1 23 23 0 00-1.6-10.8l-.4-1.3a78.4 78.4 0 01-1.6-5 25.6 25.6 0 01-.5-2.6 18.3 18.3 0 01-.2-2.5v-1.2-1l.2-1 .2-.7.2-1a6.3 6.3 0 01.2-.9l.2-.7.3-.8.4-1.1.4-1.2 2.4-6a34.4 34.4 0 001-3.3l.2-.7a6.6 6.6 0 00.2-.6 7.3 7.3 0 00.1-.9l.2-1.1.1-1.2v-1.1a13.2 13.2 0 00-.5-4 9.5 9.5 0 00-.6-1.6 11.8 11.8 0 00-.6-1c-1.3-2-3.3-3.6-4.4-5.8a9 9 0 01-1-4.3 8.2 8.2 0 010-1.2 7.8 7.8 0 01.3-1.3 3.2 3.2 0 01.2-.4l.2-.5a5.5 5.5 0 01.3-.6l.3-.4c1-1.3 2.8-2 5.1-1.3l.6.2a21 21 0 013.8 1.7 27.2 27.2 0 019.2 8.6 43.3 43.3 0 016.4 21 32.1 32.1 0 01-.5 9.5v.4l-.3 1a55.3 55.3 0 01-2.1 5.2 22.7 22.7 0 00-1.5 4.5c-1 5.2 1.1 10.3 2.8 15.3a108.8 108.8 0 013.7 14.3c1.2 5.4 1.8 11 .4 16.2z"/>
  <g opacity=".1">
    <path d="M646.4 517.8a54.7 54.7 0 002.1-5.4l.4-1.3a39 39 0 00-2.5 6.7zM628.4 486c2.2 3.5 2 8 1 12.2 0-.3 0-.5.2-.7 1.9-5 3-11 .2-15.6-1.3-2-3.3-3.7-4.5-5.8a9.2 9.2 0 01-1-4.7c-1.7 2.1-1.8 5.9-.3 8.7 1.1 2.2 3.1 3.8 4.4 5.8zM643 583.1v.7c2.1-4.7 6-8.6 8-13.5a19.4 19.4 0 00.9-3c-2.6 5.4-7.5 9.9-8.8 15.8zM648.3 643c-2 5.1-6.3 10.3-11.8 9.8-6.6-.6-9.8-8.7-15.8-11.4-5.2-2.4-11.6-.6-16.5-3.2a19.5 19.5 0 00-1.7 3.8c5 3 11.6 1 16.8 3.4 6 2.8 9.2 10.9 15.9 11.5 5.4.4 9.7-4.7 11.8-9.8a37.7 37.7 0 001.4-4.2zM611.1 610.8c.7 4.4 1.5 9 .6 13.3a19.3 19.3 0 00.9-2.3c1.5-4.8.7-10-.1-15l-3.8-22.6a40 40 0 01-.6-14.8 19.9 19.9 0 00-.9 2.3c-1.7 5.3-.8 11 .1 16.5l3.8 22.6zM629.2 536.3c1.9-7.8-4-15.4-4.1-23.3a20.7 20.7 0 01.8-5.5 26 26 0 00-2.2 9.5c0 7.6 5.5 14.9 4.3 22.2a14.3 14.3 0 001.2-3z"/>
  </g>
  <path fill="#FABEBE" d="M845.2 648.2c-11.3 37.3-36.4 51.7-36.4 51.7s-27.4 25.2-33.3 38.2-23.4 9.5-30.5 0-29.7-5.8-29.7-5.8l-34.2 2.7s-61.9 8.2-82.6-6.2-34.6-14.5-34.6-14.5-16.2 7.2-34.6 8.1a177.4 177.4 0 00-26 3.7l-12 2.7c-3 .7-4.7 1.3-4.7 1.3l-45.8-4.6-43.2-4.4-23.4-3.2-6.1-13.3-5.9-12.8-2-4.4 2.8-45.8h73.7s76.9 4 86.7 4h2.3s12.3-5 32.3 7.1a51 51 0 008 3.7c31.9 11.9 121.5 27.4 121.5 27.4l58-3.6s32.6-12 51-19.8a65.6 65.6 0 0011.9-5.9c4.9-4.5 48-43.6 36.8-6.3z"/>
  <path d="M388.3 686.6l3.6 12.6-12.2 6.6-11.6-1.3-5.9-12.8-2-4.4 2.8-45.8h73.7c-15.4 1.4-48.4 45.1-48.4 45.1z" opacity=".1"/>
  <path fill="#264058" d="M387 686.6l3.5 12.6-12.1 6.6-30.7-3.3-16.5-13.4c-27-43.8-59.6-44-59.6-44s4-5.9 3.8-11.3 6-19.2 6-19.2l.6-.3 9.4-4.6s138.7 22.4 141.4 23.3a3.2 3.2 0 011.6 1.5c1.6 2.5 2.3 7 2.3 7-14.6-1.4-49.7 45.1-49.7 45.1z"/>
  <path fill="#FABEBE" d="M550.8 499.5a72.7 72.7 0 00-12.1.8c-6.8 1-13.2 3.6-10.3 9.5 5.4 11.3-28.8 31-28.8 31L452 571.4l-29.7-45 15.3-36.3 42.7-21.6 23.4-11.2s9.2 3.3 17.4 3.1c3.7 0 7.3-.9 9.5-3.1 7.2-7.2 20.2 42.2 20.2 42.2z"/>
  <path d="M550.8 499.5a72.7 72.7 0 00-12.1.8 42.1 42.1 0 01-18-34.6 41.7 41.7 0 01.4-5.3c3.7 0 7.3-.9 9.5-3.1 7.2-7.2 20.2 42.2 20.2 42.2z" opacity=".1"/>
  <path fill="#FABEBE" d="M607.9 465.7a42.2 42.2 0 01-42.2 42.3 41.7 41.7 0 01-5.9-.4 42.2 42.2 0 015.9-84.1 45.7 45.7 0 014.8.3 42.3 42.3 0 0137.4 42z"/>
  <path d="M796.6 661.3c0 5.3-28.5 16.2-53 24.6a153 153 0 01-53.5 7.8 15.7 15.7 0 00-4.4.4c-6.7 1.8-94.4-18.9-94.4-18.9s-17.9-8.3-25.3-18.9c32 12 121.5 27.4 121.5 27.4l58-3.6s32.6-11.8 51-19.7a1.6 1.6 0 01.1.9z" opacity=".1"/>
  <path fill="#FABEBE" d="M532.4 514s6.3 16.5 14.4 20.6 24.3 20.2 23 41.3c0 0-2.8 5.8 5.8 18s29.2 38.6 29.2 38.6 42.2 14.9 55.7 23.9a157.9 157.9 0 0131.1 7.7c5.8 2 12.8 4 19.2 4 14 0 85.8-19 85.8-9.5 0 5.4-28.5 16.3-53 24.7A153.1 153.1 0 01690 691a16 16 0 00-4.4.4c-6.7 1.8-94.4-18.9-94.4-18.9s-18.4-8.5-25.6-19.4-25.6-24.6-25.6-24.6-20.3-34.2-22-42.3c0 0-10.4-5.8-37.3 3.2s-6-20.3-6-20.3l30.2-35z"/>
  <path d="M541 526.5l-9.4-22.9a149.5 149.5 0 00-24.3 19.3c-11.3 11.2-19 18-24.3 19.3s-23.8 10.7-31.5-8.6-4.5-32.3 2.7-38.6 55.9-35.9 55.9-35.9l-6.4-.5s-44.5 15.6-58.4 8.5c0 0-24.8 4.1-30.2-4.9s-10.4-10.4-10.4-10.4L372 496l11.7 97.6h30.1l32.4-12.6 43-3.6s16.3-15.3 18.5-22.5 19.4-30.6 33.2-28.3z" opacity=".1"/>
  <path fill="#33618C" d="M541 525.1l-9.4-22.8a149.5 149.5 0 00-24.3 19.2c-11.3 11.3-19 18-24.3 19.4s-23.8 10.7-31.5-8.6-4.5-32.3 2.7-38.6 55.9-34.6 55.9-34.6l-6.4-1.8s-44.5 15.6-58.4 8.5c0 0-24.8 4-30.2-4.9s-10.4-10.4-10.4-10.4L372 494.6l11.7 97.5h30.1l32.4-12.6 43-3.6s16.3-15.2 18.5-22.4 19.4-30.6 33.2-28.4z"/>
  <path d="M434.4 634.5c-.5 2.5-1 4-1 4s-1.8-.6-24.5 3.8-45.3 0-45.3 0a261.3 261.3 0 01-39.1-7.6c-19.6-5.6-45.2-12.1-43-19l.4-1.3 9.5-4.6s138.7 22.4 141.4 23.3a3.2 3.2 0 011.6 1.4z" opacity=".1"/>
  <path d="M531.6 503.6l7.8 17.7s-12-6.4-27.4 19.7-17.3 29.8-17.3 29.8-10.8 7.4-8.1 16.8c0 0-32 11-53 3.7 0 0-4.7 14.3-4.2 23.9a137.6 137.6 0 010 15.4s6-4.6-16.7-.2-45.3 3.1-45.3 3.1a333 333 0 01-36.9-8.1c-19.5-5.6-49.8-4.2-47.6-11s9.4-20 9.4-20 5.2-3 5-5.8 9.6-11.3 9.6-11.3 6-5 5.2-9.3 6-11.1 6-11.1l12.7-25.1s10.8-23.4 18.2-24.4 21-22.6 21-22.6 24.4-19.6 24.5-23.6 12.2-11.3 12.2-11.3 1.9 16.5 18 17.2 37.3 0 37.3 0l41.6-9.8s-18.2 16.5-22.4 17.7-17 10.3-23.4 12-19.6 10.5-19 23.1 4.8 19 4.8 19 13.1 25 26.3 22c0 0 14.7.8 20.6-7.9s41-39.6 41-39.6z" opacity=".1"/>
  <path d="M505 456l-1.1.8-1.3 1-22.3 10.7-30.6 8.5-19.3 2.3-32.8-22.8s3.8-3.5 9.4-8c.9 4 4.5 15.3 17.7 15.8 16 .7 37.3 0 37.3 0l42.2-8.3z" opacity=".1"/>
  <path fill="#F7F8F9" d="M531.6 502.3l7.8 19s-13.4-7.7-28.7 18.4l-17.4 29.8s-9.4 8.7-6.7 18.1c0 0-29.2 14.8-50.2 7.5 0 0-.5 8.8 0 18.4s-2.9 22.4-2.9 22.4-1.9-.7-24.6 3.7-45.3 0-45.3 0a260.5 260.5 0 01-39.1-7.6c-19.6-5.5-45.2-12.1-43-19s9.4-19.9 9.4-19.9 5.2-3 5-5.9 9.7-11.3 9.7-11.3 6-5 5.2-9.2 5.9-11.1 5.9-11.1l12.8-25.1s10.8-23.5 18.2-24.5 21-22.6 21-22.6 24.4-19.6 24.5-23.6 12.2-11.3 12.2-11.3 1.9 16.5 18 17.2 37.3 0 37.3 0l43-8.4s-19.6 15.1-23.8 16.3-17 10.3-23.4 12-19.6 10.6-19.1 23.3 4.9 19 4.9 19 13.1 25 26.3 21.9c0 0 14.6.8 20.5-8s42.5-39.5 42.5-39.5z"/>
  <path d="M400.8 563.4s16.5 30.7 24.1 34 6-2.3 6-2.3-27.7-25-30-31.7zM369 586.7s16.1 25.8 28.1 25.8zM333.4 554.8s18.9 59.7 53.6 64.4c0 0-45.3-33.4-53.6-64.4zM336.8 606.4s31.1 24.8 50.2 21c0 0-32.5-5.5-50.2-21zM313.6 648.9s31.2 24.8 50.2 21c0 0-32.5-5.5-50.2-21zM321.8 663s31.2 24.7 50.2 21c0 0-32.5-5.5-50.2-21zM326.5 640.1s31.2 24.8 50.2 21c0 0-32.5-5.5-50.2-21zM470.1 493.5l-19.6 25.1 2.7 5 16.9-30.1zM607.9 465.7a42.2 42.2 0 01-42.2 42.3 41.7 41.7 0 01-5.9-.4 10.2 10.2 0 001.6-2.4c1.2-3.5-4-7.1-2.4-10.5.9-1.8 3.2-2.2 5.1-2.3s4.2 0 5.6-1.3c1.7-1.6 1.4-4.2 1.9-6.5.6-3.4 3-6.2 5.6-8.6s5.6-4.3 7.8-7a26 26 0 005.5-14.8c.3-3.4 0-7-1.8-10-2-3-5.4-4.8-8.6-6.7a23.5 23.5 0 01-7.4-6.5c-1.3-1.9-2.6-4.8-2.2-7.2a42.3 42.3 0 0137.4 42z" opacity=".1"/>
  <path fill="#222528" d="M631 467.8a7.5 7.5 0 01-.7 2l-.4.5-.6 1a9 9 0 00-1.8 4.1c-.1 1.9.9 3.6 1.5 5.3l.1.3a7.3 7.3 0 01.3.8 8.7 8.7 0 01-.4 5.2 15.7 15.7 0 01-3.2 5c-2.5 2.8-5.7 4.8-8.3 7.6-2 2-3.5 4.3-5.4 6.4a32.3 32.3 0 01-17.2 8.7 78.3 78.3 0 01-15.2 1.3h-4.3a4.8 4.8 0 01-2-.3 7 7 0 01-2-1.9c-2.5-3-7-3.5-11-3.9a2.8 2.8 0 01.7-2.1 12.3 12.3 0 001.7-2.5c1.2-3.5-4-7.2-2.4-10.5a2.9 2.9 0 01.7-.9 3.5 3.5 0 01.5-.4 7.8 7.8 0 014-1l2.2-.1a5.3 5.3 0 003.3-1.3c1.6-1.5 1.4-4.2 1.8-6.4.7-3.4 3-6.3 5.7-8.6s5.5-4.3 7.7-7c3.5-4 5.1-9.5 5.5-14.8.3-3.4 0-7.1-1.8-10-1.7-2.7-4.6-4.4-7.4-6l-1.1-.7a27.7 27.7 0 01-6-4.6 18.3 18.3 0 01-1.4-2c-1.3-1.9-2.5-4.7-2.2-7a2.5 2.5 0 010-.5c.7-2.6 3.2-2.6 5.6-3l2-.1a25.1 25.1 0 012.8 0 26.7 26.7 0 0111.8 3.2c1.3.7 2.6 1.6 4 2.2 3.2 1.5 7 1.7 10.3 2.7 6.9 2.2 12.2 7.8 15.6 14.1s5 13.4 6.7 20.3a11.2 11.2 0 01.4 4.9z"/>
  <path d="M503.3 726a9.9 9.9 0 01-1 2.7s-4.5.1-11 0c-9 0-21.7-.5-32-2.3a104.3 104.3 0 00-18.6-1l-43.2-4.3-23.4-3.2-12-26.2c7 .4 13 .1 13 .1 13.2-12.5 25.6-10.5 32.3-5s19.3 9.8 20.2 9.8l33.3.6a60 60 0 0128.2 7.6c15 8.3 15.2 17 14.2 21.3z" opacity=".1"/>
  <path fill="#FABEBE" d="M281.4 641.5l-9.8 3.6s-27.2-18.7-67-9.9-37 32.1-37 32.1 1.5 28.7 13 38.5 18.6 10.3 25.1 17.7 40.2 10.8 40.2 10.8 66.8 3.4 102.7 0 52.2-3.4 52.2-3.4 39.5-5 57.2-1.8 43 2.3 43 2.3 7.4-12.3-13.2-24a59.8 59.8 0 00-28.2-7.5l-33.3-.7c-.9 0-13.4-4.3-20.2-9.8s-19-7.5-32.3 5.1c0 0-29.5 1.4-33.5-6s-25-30.7-25-30.7z"/>
  <path d="M330.2 685.7s-.2 4 8.9 3.4c8.4-.7-25-30.7-25-30.7l-34-16.2-9.8 3.6s33-4 59.9 39.9z" opacity=".1"/>
  <path fill="#264058" d="M331.6 684.3s-.3 4.1 8.8 3.4c8.5-.6-25-30.6-25-30.6l-34-16.3-9.7 3.6s32.9-3.9 59.9 40z"/>
  <path fill="none" stroke="#000" stroke-miterlimit="10" d="M235 656.5s9.6-4.9 23.8 1.3a114 114 0 0015.5 5.4 100.1 100.1 0 0124.4 10.2c9.8 5.7 23.2 12.6 30.7 12.6" opacity=".1"/>
  <path d="M578 515.9a4.6 4.6 0 01-2-.3 6.7 6.7 0 01-1.8-1.9c-2.6-3-7-3.5-11-3.9-.3-1.7 1.7-3 2.3-4.6 1.2-3.5-4-7.1-2.4-10.5.9-1.7 3.2-2.2 5.2-2.2s4.1 0 5.5-1.4c1.7-1.6 1.5-4.2 1.9-6.5.6-3.4 3-6.2 5.6-8.6s5.6-4.3 7.8-7c3.5-4 5.1-9.4 5.5-14.8.3-3.4 0-7-1.8-10-2-3-5.4-4.8-8.6-6.7a23.5 23.5 0 01-7.4-6.6c-1.3-1.9-2.7-5-2.1-7.4s3.1-2.6 5.5-3l2.2-.1a27.9 27.9 0 00-4.9.2c-2.4.3-5 .3-5.5 2.9s.8 5.5 2 7.5a23.5 23.5 0 007.5 6.5c3.1 1.9 6.6 3.6 8.6 6.6 1.8 3 2 6.6 1.8 10-.4 5.4-2 10.8-5.5 14.9-2.3 2.7-5.2 4.7-7.8 7s-5 5.2-5.7 8.6c-.4 2.2-.2 4.9-1.8 6.4-1.4 1.4-3.6 1.4-5.6 1.4s-4.3.5-5.1 2.3c-1.6 3.3 3.6 7 2.3 10.5-.6 1.6-2.6 2.9-2.3 4.6 4 .3 8.5.9 11 3.9a6.5 6.5 0 002 1.8 4.5 4.5 0 002 .4h4.3z" opacity=".1"/>
  <path fill="#222528" d="M629.5 488.5l1.3-4.2a82 82 0 003-12.3 21 21 0 00-3.9-1.7l.4-.5-1 .3v1.1l-.2 9.5v.2a66 66 0 000 6.1z"/>
  <ellipse fill="#69BFA3" cx="917.6" cy="704.7" opacity=".1" rx="43.5" ry="6"/>
  <path fill="#69BFA3" d="M935.3 697.2c1.8-1.7 3.5-3.7 4-6.1s-.5-5.4-2.8-6.3c-2.6-1-5.4.8-7.5 2.7s-4.6 3.9-7.3 3.5a11.1 11.1 0 003.4-10.4 4.3 4.3 0 00-1-2.2c-1.5-1.5-4.1-.8-5.9.4-5.5 3.9-7 11.4-7 18.1-.6-2.4-.1-5-.1-7.5s-.7-5.2-2.9-6.6a8.5 8.5 0 00-4.2-1c-2.5 0-5.3.2-7 2-2 2.3-1.5 6 .3 8.6s4.6 4 7.2 5.7a16 16 0 015.1 5 5.3 5.3 0 01.4.8h15.6a43 43 0 009.6-6.7z"/>
  <ellipse fill="#69BFA3" cx="1056.8" cy="730.3" opacity=".1" rx="43.5" ry="6"/>
  <path fill="#69BFA3" d="M1074.4 722.9c1.8-1.7 3.5-3.7 4-6.2s-.5-5.3-2.8-6.2c-2.6-1-5.4.8-7.5 2.6s-4.5 4-7.3 3.5a11.1 11.1 0 003.4-10.4 4.3 4.3 0 00-1-2c-1.4-1.6-4-1-5.8.3-5.5 3.8-7 11.3-7 18-.6-2.3-.1-5-.2-7.4s-.7-5.3-2.8-6.6a8.5 8.5 0 00-4.2-1c-2.5 0-5.3.2-7 2-2 2.3-1.5 6 .3 8.5s4.6 4 7.2 5.8a16 16 0 015.1 4.9 4.6 4.6 0 01.4.8h15.5a43.4 43.4 0 009.7-6.6z"/>
  <ellipse fill="#69BFA3" cx="969.7" cy="784.3" opacity=".1" rx="43.5" ry="6"/>
  <path fill="#69BFA3" d="M987.3 776.9c1.9-1.7 3.6-3.7 4.1-6.2s-.5-5.4-2.8-6.2c-2.6-1-5.4.8-7.5 2.6s-4.6 4-7.4 3.5a11.1 11.1 0 003.5-10.4 4.3 4.3 0 00-1-2.1c-1.5-1.6-4-.9-5.8.3-5.5 4-7 11.4-7.1 18.2-.6-2.5-.1-5-.1-7.5s-.7-5.3-2.8-6.6a8.4 8.4 0 00-4.3-1c-2.5-.1-5.2.1-7 2-2 2.2-1.5 6 .3 8.5s4.7 4 7.2 5.8a16 16 0 015.1 4.9 4 4 0 01.4.8h15.6a43 43 0 009.6-6.6z"/>
  <ellipse fill="#69BFA3" cx="87" cy="694.9" opacity=".1" rx="43.5" ry="6"/>
  <path fill="#69BFA3" d="M104.7 687.4c1.8-1.7 3.5-3.7 4-6s-.5-5.5-2.8-6.4c-2.6-1-5.4.9-7.5 2.7s-4.5 4-7.3 3.5a11.1 11.1 0 003.4-10.4 4.4 4.4 0 00-1-2.1c-1.4-1.6-4-.9-5.8.3-5.5 4-7 11.4-7 18.1-.6-2.4-.2-5-.2-7.4s-.7-5.3-2.8-6.6a8.5 8.5 0 00-4.3-1c-2.4-.1-5.2.1-6.9 2-2.1 2.2-1.6 6 .3 8.5s4.6 4 7.2 5.7a16 16 0 015 5 5.3 5.3 0 01.5.8H95a43.4 43.4 0 009.6-6.7z"/>
  <ellipse fill="#69BFA3" cx="43.5" cy="779.7" opacity=".1" rx="43.5" ry="6"/>
  <path fill="#69BFA3" d="M61.2 772.3c1.8-1.7 3.5-3.7 4-6.2s-.5-5.4-2.8-6.2c-2.6-1-5.4.8-7.5 2.6s-4.6 4-7.3 3.5a11.1 11.1 0 003.5-10.4 4.3 4.3 0 00-1-2.1c-1.5-1.6-4.1-.9-5.8.3-5.6 4-7.1 11.4-7.1 18.2-.6-2.5-.1-5-.1-7.5s-.7-5.3-2.9-6.6a8.3 8.3 0 00-4.2-1c-2.5-.1-5.3.1-7 2-2 2.2-1.5 6 .3 8.5s4.6 4 7.2 5.8a15.8 15.8 0 015.1 4.9 4 4 0 01.4.8h15.5a43.4 43.4 0 009.7-6.6z"/>
</svg>
