<svg xmlns="http://www.w3.org/2000/svg" viewBox="0 0 40 29">
  <g stroke="none" stroke-width="1" fill="none" fill-rule="evenodd">
    <g transform="translate(-32.000000, -23.000000)" fill-rule="nonzero">
      <g transform="translate(32.000000, 23.000000)">
        <path fill="#ffffff" d="M10.7254948,11.6958359 C8.8147887,11.6958359 7.51997011,13.1448877 6.78122841,16.0398274 C9.80085529,15.9797139 11.1571009,15.4355285 11.7729884,15.014734 C12.3290653,14.652471 12.5747737,14.1082856 12.5747737,13.3853417 C12.5747737,12.1799077 12.0203133,11.6958359 10.7254948,11.6958359 M8.1989012,28.8281839 C2.83534558,28.8281839 0,25.9933578 0,20.6242729 C0,16.8228848 0.863212389,13.6273776 2.52821007,11.1532324 C4.56177033,8.13806568 7.51997011,6.63048233 11.3413822,6.63048233 C13.4379861,6.63048233 15.225838,7.2331993 16.5190401,8.49874669 C17.8752858,9.70576255 18.5542169,11.3335729 18.5542169,13.2050012 C18.5542169,15.7392599 17.6910045,17.5474107 16.0260068,18.6943131 C14.1169172,20.0215559 10.8499655,20.6843864 6.04087022,20.7460818 C6.10229732,22.6744597 6.96550971,23.5809081 8.8762158,23.5809081 C10.7254948,23.5809081 13.0063799,23.1569497 15.5960171,22.2536652 L16.766365,21.8297068 L15.7802984,27.2604872 L15.4101193,27.3807142 C13.1292341,28.3441121 10.7254948,28.8281839 8.1989012,28.8281839"></path>
        <path fill="#ffffff" d="M27.4248148,11.1524601 L29.462652,11.1524601 C33.1769519,11.1524601 34.9146913,9.68995247 34.9146913,6.7041991 C34.9146913,5.66685761 34.495183,4.99714097 33.7158713,4.69185249 C33.2366574,4.50963842 32.337935,4.38816236 31.0197042,4.38816236 L28.5042243,4.38816236 L27.4248148,11.1524601 Z M25.1481563,24.1344135 L27.963734,24.1344135 C31.4989181,24.1344135 33.1769519,22.4896917 33.1769519,19.0755755 C33.1769519,17.6738058 32.7574436,16.6380627 31.9781319,16.0898221 C31.3198021,15.6630576 30.2403926,15.4201055 28.802751,15.4201055 L26.7052085,15.4201055 L25.1481563,24.1344135 Z M27.6652074,28.4627969 L19.3975904,28.4627969 L24.3091393,0.0613773713 L32.2782298,0.0613773713 C37.4301712,0.0613773713 40.0666328,2.19360167 40.0666328,6.45964864 C40.0666328,9.87216653 38.2094829,12.1274653 34.495183,13.2862828 C35.5133159,13.7130474 36.3523328,14.322026 37.0106626,15.175555 C37.8496796,16.2112982 38.2691882,17.4915918 38.2691882,18.8933614 C38.2094829,25.2932311 34.674299,28.4627969 27.6652074,28.4627969 Z"></path>
      </g>
    </g>
  </g>
</svg>
