<svg xmlns="http://www.w3.org/2000/svg" width="140px" height="29px" viewBox="0 0 140 29">
  <g stroke="none" stroke-width="1" fill="none" fill-rule="evenodd">
    <g transform="translate(-32.000000, -23.000000)" fill-rule="nonzero">
      <g transform="translate(32.000000, 23.000000)">
        <path fill="#e0081b" d="M10.7254948,11.6958359 C8.8147887,11.6958359 7.51997011,13.1448877 6.78122841,16.0398274 C9.80085529,15.9797139 11.1571009,15.4355285 11.7729884,15.014734 C12.3290653,14.652471 12.5747737,14.1082856 12.5747737,13.3853417 C12.5747737,12.1799077 12.0203133,11.6958359 10.7254948,11.6958359 M8.1989012,28.8281839 C2.83534558,28.8281839 0,25.9933578 0,20.6242729 C0,16.8228848 0.863212389,13.6273776 2.52821007,11.1532324 C4.56177033,8.13806568 7.51997011,6.63048233 11.3413822,6.63048233 C13.4379861,6.63048233 15.225838,7.2331993 16.5190401,8.49874669 C17.8752858,9.70576255 18.5542169,11.3335729 18.5542169,13.2050012 C18.5542169,15.7392599 17.6910045,17.5474107 16.0260068,18.6943131 C14.1169172,20.0215559 10.8499655,20.6843864 6.04087022,20.7460818 C6.10229732,22.6744597 6.96550971,23.5809081 8.8762158,23.5809081 C10.7254948,23.5809081 13.0063799,23.1569497 15.5960171,22.2536652 L16.766365,21.8297068 L15.7802984,27.2604872 L15.4101193,27.3807142 C13.1292341,28.3441121 10.7254948,28.8281839 8.1989012,28.8281839"></path>
        <path fill="#ffffff" d="M27.4248148,11.1524601 L29.462652,11.1524601 C33.1769519,11.1524601 34.9146913,9.68995247 34.9146913,6.7041991 C34.9146913,5.66685761 34.495183,4.99714097 33.7158713,4.69185249 C33.2366574,4.50963842 32.337935,4.38816236 31.0197042,4.38816236 L28.5042243,4.38816236 L27.4248148,11.1524601 Z M25.1481563,24.1344135 L27.963734,24.1344135 C31.4989181,24.1344135 33.1769519,22.4896917 33.1769519,19.0755755 C33.1769519,17.6738058 32.7574436,16.6380627 31.9781319,16.0898221 C31.3198021,15.6630576 30.2403926,15.4201055 28.802751,15.4201055 L26.7052085,15.4201055 L25.1481563,24.1344135 Z M27.6652074,28.4627969 L19.3975904,28.4627969 L24.3091393,0.0613773713 L32.2782298,0.0613773713 C37.4301712,0.0613773713 40.0666328,2.19360167 40.0666328,6.45964864 C40.0666328,9.87216653 38.2094829,12.1274653 34.495183,13.2862828 C35.5133159,13.7130474 36.3523328,14.322026 37.0106626,15.175555 C37.8496796,16.2112982 38.2691882,17.4915918 38.2691882,18.8933614 C38.2094829,25.2932311 34.674299,28.4627969 27.6652074,28.4627969 Z M51.2106328,19.1973712 L49.4728934,19.2597076 C46.3572178,19.3811836 44.859871,20.5384028 44.859871,22.7937016 C44.859871,23.9525191 45.3987901,24.5007597 46.6573156,24.5007597 C47.735154,24.5007597 48.6935817,24.0739951 49.5923039,23.2828025 C50.3716156,22.5507495 50.8508294,21.7579584 50.9702402,20.7829533 L51.2106328,19.1973712 Z M44.6791839,28.8275448 C43.2415424,28.8275448 42.0442935,28.3416405 41.145571,27.425775 C40.2452775,26.5115079 39.8273403,25.1097383 39.8273403,23.4042785 C39.8273403,21.2097178 40.6050806,19.4419217 42.1039987,18.10089 C43.6013455,16.8221948 45.5794774,16.0901418 47.9755466,15.9063294 L51.8689626,15.6633773 L51.9899444,14.8705862 C52.0496497,14.3830837 52.1093549,13.9563191 52.1093549,13.6510306 C52.1093549,12.4330734 51.3897488,11.8240948 49.8326965,11.8240948 C48.6935817,11.8240948 47.4963328,12.0063089 46.2378073,12.370737 C45.3390848,12.6760255 44.3806572,12.981314 43.4819347,13.2866025 L43.1221316,13.4080785 L43.9014433,8.95981749 L44.0208541,8.89907946 C46.5363338,7.98321401 48.7548583,7.49571146 50.6717134,7.49571146 C54.984638,7.49571146 57.2015912,9.32424564 57.2015912,12.981314 C57.2015912,13.5902926 57.1418859,14.2008696 57.0224752,14.9313242 L54.6845401,28.5238546 L50.0715177,28.5238546 L50.1924996,25.9632674 C48.6338765,27.8525396 46.7767264,28.8275448 44.6791839,28.8275448 Z M62.7735125,28.8281839 C60.137051,28.8281839 58.8188199,27.6693665 58.8188199,25.2925917 C58.8188199,24.7443511 58.8785254,24.1961105 58.9995073,23.5263939 L62.2942986,4.32678498 L59.8966584,4.32678498 L60.6775411,0 L68.0448647,0 L64.032038,23.098031 C63.9126275,23.708608 63.9723328,24.1337742 64.1514488,24.3175866 C64.2708592,24.440661 64.39027,24.501399 64.5709571,24.501399 C64.9307604,24.501399 65.6487955,24.3175866 66.6072232,24.0730361 L66.907321,23.9515601 L66.1877146,28.217607 L66.0683041,28.2783451 C65.1695817,28.64597 64.032038,28.8281839 62.7735125,28.8281839 Z M80.4480186,19.1973712 L78.7102792,19.2597076 C75.5946036,19.3811836 74.0972568,20.5384028 74.0972568,22.7937016 C74.0972568,23.9525191 74.6361759,24.5007597 75.8947014,24.5007597 C76.9725398,24.5007597 77.9309675,24.0739951 78.82969,23.2828025 C79.6090016,22.5507495 80.0882152,21.7579584 80.207626,20.7829533 L80.4480186,19.1973712 Z M73.9165697,28.8275448 C72.4789282,28.8275448 71.2816793,28.3416405 70.3829568,27.425775 C69.4826633,26.5115079 69.0647261,25.1097383 69.0647261,23.4042785 C69.0647261,21.2097178 69.8424664,19.4419217 71.3413845,18.10089 C72.8387313,16.8221948 74.8168632,16.0901418 77.2113611,15.9063294 L81.1063484,15.6633773 L81.2273302,14.8705862 C81.2870355,14.3830837 81.3467407,13.9563191 81.3467407,13.6510306 C81.3467407,12.4330734 80.6271346,11.8240948 79.0700823,11.8240948 C77.9309675,11.8240948 76.7337186,12.0063089 75.4751931,12.370737 C74.5764706,12.6760255 73.618043,12.981314 72.7193208,13.2866025 L72.3595174,13.4080785 L73.1388291,8.95981749 L73.2582399,8.89907946 C75.7737196,7.98321401 77.9922441,7.49571146 79.9090995,7.49571146 C84.2220238,7.49571146 86.438977,9.32424564 86.438977,12.981314 C86.438977,13.5902926 86.3792717,14.2008696 86.259861,14.9313242 L83.9219259,28.5238546 L79.3089038,28.5238546 L79.4298856,25.9632674 C77.8712623,27.8525396 76.0141122,28.8275448 73.9165697,28.8275448 Z M103.45421,28.4629567 L98.4216797,28.4629567 L100.638633,15.7846935 C100.817749,14.6882123 100.937159,13.8346832 100.937159,13.4079187 C100.937159,12.3114375 100.457946,11.763197 99.4995179,11.763197 C98.2409924,11.763197 97.2228594,12.2491011 96.3838425,13.2864427 C95.5448253,14.3221858 94.946201,15.7239555 94.6476742,17.4310136 L92.7292478,28.4022187 L87.6967168,28.4022187 L91.2916063,7.8008401 L95.9046287,7.8008401 L95.7852179,10.2399513 C97.5826625,8.34908068 99.5592231,7.37407558 101.716471,7.37407558 C103.094407,7.37407558 104.173817,7.8008401 104.951557,8.6527708 C105.730869,9.44716022 106.150377,10.6043794 106.150377,12.0668871 C106.150377,12.5543896 106.090672,13.0434906 105.971261,13.6508708 L103.45421,28.4629567 Z M114.717307,28.8281839 C112.500354,28.8281839 110.762614,28.156869 109.565365,26.8765754 C108.30684,25.5978802 107.646939,23.64787 107.646939,21.0872828 C107.646939,17.1265243 108.487527,13.833884 110.223695,11.4571093 C112.14055,8.77504603 114.838289,7.43401442 118.371901,7.43401442 C119.451311,7.43401442 120.948658,7.74090126 122.865513,8.34828151 L123.044629,8.4106179 L122.266889,12.8604773 L122.026496,12.7997393 C119.930525,12.0676863 118.491312,11.7016598 117.713572,11.7016598 C115.916127,11.7016598 114.597896,12.7374029 113.699174,14.8712256 C113.040844,16.5159473 112.681041,18.5282939 112.681041,20.9050687 C112.681041,23.3425815 113.579763,24.501399 115.436913,24.501399 C116.514751,24.501399 118.13308,24.1337742 120.169346,23.5263939 L120.529149,23.4033195 L119.749837,27.8531789 L119.630427,27.9139169 C117.653866,28.5244939 116.035538,28.8281839 114.717307,28.8281839 Z M132.990908,11.5801837 C130.773955,11.5801837 129.276608,13.4087179 128.497297,17.0050482 C131.312875,17.0050482 133.22973,16.5766853 134.249434,15.8462307 C134.907764,15.3571297 135.207862,14.6874131 135.207862,13.773146 C135.207862,12.2499003 134.488255,11.5801837 132.990908,11.5801837 L132.990908,11.5801837 Z M130.473857,28.8281839 C125.501032,28.8281839 122.985552,26.2068588 122.985552,21.0265447 C122.985552,17.3087383 123.764864,14.2015089 125.381621,11.7623978 C127.238771,8.89812045 129.994644,7.43401442 133.529828,7.43401442 C135.446683,7.43401442 137.065012,8.04459139 138.202555,9.1426709 C139.401375,10.2998901 140,11.7623978 140,13.5301939 C140,15.9069687 139.222259,17.6124285 137.784618,18.64977 C135.987173,19.9300636 132.631105,20.6013786 127.898672,20.6013786 L127.898672,20.9658067 C127.898672,23.2818435 128.976511,24.440661 131.133759,24.440661 C132.990908,24.440661 135.207862,23.9515601 137.844323,23.037293 L138.202555,22.9158169 L137.424815,27.2442003 L137.305404,27.3049383 C135.148156,28.3406815 132.871498,28.8281839 130.473857,28.8281839 L130.473857,28.8281839 Z"></path>
      </g>
    </g>
  </g>
</svg>
