<svg viewBox="0 0 906 670" xmlns="http://www.w3.org/2000/svg">
  <g stroke="none" stroke-width="1" fill="none" fill-rule="evenodd">
    <rect fill="#FFFFFF" x="0" y="0" width="906" height="670"></rect>
    <g transform="translate(88.000000, 106.000000)" fill-rule="nonzero">
      <path d="M488.314978,353.835892 C559.892637,352.486444 631.467862,353.260251 703.040654,356.157313 C709.19775,356.40667 715.58686,356.72693 721.02416,359.333057 C726.46146,361.939185 730.645891,367.529889 729.158252,372.900886 C701.218582,374.221896 671.115023,395.675599 681.102512,397.235951 C691.09,398.796303 701.055747,407.192087 698.130039,415.908118 C695.908277,422.526991 687.479316,425.80348 679.8086,426.388552 C672.137884,426.973623 664.283584,425.757006 656.785741,427.324394 C649.660502,428.813867 643.487293,432.684197 636.818845,435.385936 C626.299802,439.647745 614.639211,440.964563 603.16672,442.084764 C515.073864,450.686353 265.855465,464.812658 231.213698,456.442412 C211.467183,451.671192 186.172189,439.230457 166.176541,435.385936 C142.291998,430.793716 119.12537,427.186759 94.6999788,427.324394 C51.8203972,427.566013 51.3791706,421.116279 8.57190814,418.233266 C5.38635582,418.0186 1.00107723,418.670925 0.141385066,415.908118 C-0.861903391,412.683802 3.6849485,408.788468 7.12671568,407.501775 C26.6291952,400.286778 48.9668931,391.648306 58.2692704,387.906331 C67.5716478,384.164357 178.480046,348.925214 224.245476,349.589152 C240.34397,349.822704 256.508806,350.339763 272.493299,348.606654 C285.590526,347.186598 298.418892,344.271043 311.326615,341.823317 C328.652571,338.537741 404.054697,321.517211 415.054129,335.32778 C423.288108,345.666127 406.288368,347.896807 428.372425,352.115495 C447.601249,355.788754 468.81228,354.203578 488.314978,353.835892 Z" id="Path" fill="#2FB5EE" opacity="0.104050409"></path>
      <path d="M611.687276,35.9682626 C597.423466,13.5086857 572.640034,-0.0688500814 546.033943,0 L444.913943,0 C418.324075,0.00238805236 393.570898,13.5634476 379.255923,35.9710923 C364.940948,58.378737 363.040616,86.5391854 374.215276,110.666929 L404.807276,176.704263 C412.544681,166.63885 421.898331,157.926799 432.487276,150.922929 L406.887276,95.5629293 C400.867151,82.5632162 401.891174,67.3911276 409.603546,55.3182746 C417.315918,43.2454217 430.651937,35.9384736 444.977943,35.9362626 L546.055276,35.9362626 C560.381282,35.9384736 573.717301,43.2454217 581.429673,55.3182746 C589.142045,67.3911276 590.166069,82.5632162 584.145943,95.5629293 L558.30061,151.349596 C568.858778,158.462647 578.159223,167.28365 585.82061,177.450929 L616.753943,110.666929 C627.993147,86.5472574 626.080536,58.3493338 611.687276,35.9682626 L611.687276,35.9682626 Z" id="Path" fill="#8099B3"></path>
      <path d="M517.416203,130.89677 C454.886113,120.145567 393.700737,155.991053 372.504475,215.793386 C351.308214,275.595719 376.26213,341.972305 431.605447,373 L559.074477,373 C600.200652,349.943134 625.66196,306.466963 625.650741,259.318461 C625.645634,195.870841 579.946293,141.647973 517.416203,130.89677 Z" id="Path" fill="#3F3D56"></path>
      <circle id="Oval" fill="#EAEFFB" cx="495" cy="258" r="56"></circle>
      <path d="M146.583462,271.218485 C164.183462,233.095818 196.151462,207.495818 226.124795,207.495818 C232.500449,207.484683 238.807945,208.807223 244.642129,211.378485 L246.028795,208.402485 L198.626129,186.482485 C164.546129,170.738485 118.380795,198.109152 95.5221287,247.613152 C72.663462,297.117152 81.7727953,350.013152 115.852795,365.735818 L162.711462,387.335818 L164.066129,384.381152 C132.748795,368.626485 124.802129,318.365152 146.583462,271.218485 L146.583462,271.218485 Z" id="Path" fill="#D24D52" transform="translate(164.475985, 284.684682) rotate(-14.000000) translate(-164.475985, -284.684682) "></path>
      <ellipse id="Oval" fill="#EA565C" transform="translate(207.473975, 287.983239) rotate(-79.228861) translate(-207.473975, -287.983239) " cx="207.473975" cy="287.983239" rx="98.721234" ry="67.9795164"></ellipse>
      <path d="M267.724913,289.525912 L217.49558,262.069912 C216.759243,261.734905 215.957788,261.567328 215.148913,261.578651 C207.842739,263.028101 201.851429,268.240054 199.404913,275.275245 C197.078219,280.041581 196.202873,285.386383 196.88758,290.645912 C197.137208,293.495092 198.688142,296.069484 201.090246,297.621912 L248.780913,323.701912 C249.84758,320.789912 251.106246,317.877912 252.43958,314.987245 C256.606017,305.976088 261.730668,297.439772 267.724913,289.525912 L267.724913,289.525912 Z" id="Path" fill="#BECFF2" transform="translate(232.192971, 292.640282) rotate(-14.000000) translate(-232.192971, -292.640282) "></path>
      <path d="M301.20102,384.453749 C297.814925,360.601839 301.637264,336.28225 312.17702,314.619083 C329.766353,276.507083 361.734353,250.896416 391.718353,250.896416 C398.093555,250.889672 404.400153,252.212023 410.235686,254.779083 L411.622353,251.803083 L364.166353,229.883083 C330.03302,214.139083 283.92102,241.509749 261.062353,291.013749 C238.203686,340.517749 247.302353,393.413749 281.39302,409.136416 L328.251686,430.736416 L329.638353,427.760416 C313.728202,418.757476 303.139061,402.631478 301.20102,384.453749 Z" id="Path" fill="#D24D52" transform="translate(330.041481, 328.085280) rotate(-14.000000) translate(-330.041481, -328.085280) "></path>
      <ellipse id="Oval" fill="#EA565C" transform="translate(372.997434, 331.356380) rotate(-79.228861) translate(-372.997434, -331.356380) " cx="372.997434" cy="331.35638" rx="98.721234" ry="67.9795164"></ellipse>
    </g>
  </g>
</svg>
