<svg xmlns="http://www.w3.org/2000/svg" viewBox="0 0 731 506">
  <g fill="none" fill-rule="nonzero">
    <path fill="#32b6ef" d="M489.3 413c71.6-1.2 143.2-.5 214.7 2 6.2.3 12.6.6 18 2.9 5.5 2.3 9.6 7.2 8.2 12-28 1.1-58 20-48.1 21.4 10 1.4 20 8.8 17 16.5-2.2 5.9-10.6 8.8-18.3 9.3-7.7.5-15.5-.6-23 .8-7.1 1.3-13.3 4.7-20 7.1-10.5 3.8-22.2 5-33.6 6-88.1 7.5-337.3 20-372 12.6-19.7-4.2-45-15.2-65-18.6-24-4-47-7.2-71.5-7.1-42.9.2-43.3-5.5-86.1-8-3.2-.2-7.6.4-8.5-2-1-3 3.6-6.4 7-7.5 19.5-6.4 41.9-14 51.2-17.3 9.3-3.3 120.2-34.4 166-33.8 16 .2 32.2.7 48.2-.9 13-1.2 26-3.8 38.8-6 17.4-2.9 92.8-17.9 103.8-5.7 8.2 9.1-8.8 11.1 13.3 14.8 19.2 3.3 40.4 1.9 60 1.5z" opacity=".1"/>
    <path fill="#8099B3" d="M192.3 46.5H244V81h-51.8z"/>
    <path fill="#3F3D56" d="M254.7 42.7c0 2.8-2.3 5.2-5.1 5.2h-62.9a5.2 5.2 0 01-5.1-5.2V5.6c0-2.8 2.3-5.2 5.1-5.2h62.9c2.8 0 5.1 2.4 5.1 5.2v37.1z"/>
    <path fill="#000000" d="M203 42.7V5.6c0-2.8 2.4-5.2 5.2-5.2h-21.5a5.2 5.2 0 00-5.1 5.2v37.1c0 2.8 2.3 5.2 5.1 5.2h21.5a5.2 5.2 0 01-5.1-5.2z" opacity=".1"/>
    <path fill="#8099B3" d="M176.2 326.6a1 1 0 00.5-1.4c-.4-.8-.6-1.5-.6-2.2 0-5.6 12.2-11.5 30.4-11.5a69.4 69.4 0 0116.7 2 1 1 0 001-1.3c-3.2-12.7-5-25.7-5.4-39v-.5l-.1-5.7c0-2.3 1.9-4.2 4.2-4.2h9a1 1 0 001-1.1 32 32 0 0122.2-34.1 1 1 0 00.6-1.4 30.2 30.2 0 0114.6-40.5c.5-.2.7-.8.5-1.3a30.1 30.1 0 019-33.2v-43c0-15.8-12.9-28.7-28.7-28.7h-66c-15.7 0-28.6 13-28.6 28.7v230.3a74.7 74.7 0 0119.7-12z"/>
    <path fill="#3F3D56" d="M255 227.6a1 1 0 00.7-1.4 30.2 30.2 0 0114.6-40.5c.5-.2.7-.8.5-1.3a30.1 30.1 0 019-33.2v-19.4H156.5v106.4h83.1a32 32 0 0115.5-10.6z"/>
    <path fill="#000000" d="M187.5 314.1V108.2c0-15.8 12.9-28.7 28.6-28.7h-31c-15.7 0-28.6 13-28.6 28.7v230.3a74.8 74.8 0 0119.7-12 1 1 0 00.5-1.3c-.4-.8-.6-1.5-.6-2.2 0-3.3 4.2-6.7 11.4-8.9z" opacity=".1"/>
    <path fill="#61AB43" d="M484 133.2a1.7 1.7 0 00-1.1-.9 55.8 55.8 0 00-70.8 59l3-.5a32.1 32.1 0 0134 22.5 55.8 55.8 0 0034.9-80z"/>
    <path fill="#D5E962" d="M459.1 161.2a7.5 7.5 0 00-10.5 1l-23 28.7c5 1.2 9.6 3.7 13.4 7.1l21.3-26.3c2.6-3.2 2-8-1.2-10.5z"/>
    <g fill="#F6C964">
      <path d="M510.6 217.8c.3 1.5.4 3 .4 4.6 0 .5.4 1 1 1 4 .3 7.9 1.6 11.4 3.7a1 1 0 001.3-.2 50 50 0 0123.6-15.2 33.2 33.2 0 00-31.9-41.8 33 33 0 00-32 25.3c13 .3 24 9.6 26.2 22.6zM284.3 262c-3.4-5.8-5.5-12.4-6.3-19-9.8-1.6-18-7.9-22.3-16.6A33.1 33.1 0 00232 262h52.4z"/>
    </g>
    <path fill="#61AB43" d="M536.4 245.8a27 27 0 01-2.3 16.3h42.5a51.5 51.5 0 005.5-49.4l-.5-.4a51.2 51.2 0 00-58.3 14.7c6.7 4 11.7 10.7 13 18.8z"/>
    <path fill="#D5E962" d="M534.1 262h9.3l14.8-14.7a7.5 7.5 0 10-10.6-10.6l-11 11c.5 5-.3 9.9-2.5 14.4z"/>
    <path fill="#368C0E" d="M403.1 190.7a31.2 31.2 0 00-27.7-24.3 31.3 31.3 0 00-57.3-17.2 31.2 31.2 0 00-48.2 35.6 31.3 31.3 0 008 59.2 50.4 50.4 0 013.5-26.2 50 50 0 0156.2 13.3 69 69 0 01-.8-10.5c0-2.4 2-4.4 4.4-4.4h52.3a32.5 32.5 0 019.6-25.5z"/>
    <g fill="#89C947">
      <path d="M293.6 193.6h-.1a7.5 7.5 0 01-7.4-7.6 23.9 23.9 0 0141.4-15.7 7.5 7.5 0 01-11 10.1 8.8 8.8 0 00-15.3 5.8c-.2 4.1-3.5 7.4-7.6 7.4zM335 206.5a7.5 7.5 0 01-7-10.1 21.9 21.9 0 0140.6-1 7.5 7.5 0 11-13.8 5.9c-.8-1.8-2.2-3-4-3.7a6.9 6.9 0 00-8.7 4c-1.2 3-4 4.9-7 4.9z"/>
    </g>
    <path fill="#368C0E" d="M457.4 216h-.3v.3h10c3 0 5.5 2.4 5.5 5.4 0 15-4.9 29-13 40.4h75.6a28 28 0 00-23.2-39.7 28.2 28.2 0 00-51.8-15.5c-1.3-1-2.7-1.9-4.3-2.6a32 32 0 011.5 11.8z"/>
    <path fill="#F6C964" d="M458.4 216.2V214a33 33 0 10-65.9 2h65.9z"/>
    <path fill="#61AB43" d="M336.3 228.3a51.2 51.2 0 00-55.8-11.1l-.4.6a51.5 51.5 0 003 44.3h68.1a69 69 0 01-13.2-32c-.5-.7-1.1-1.3-1.7-1.8z"/>
    <path fill="#D5E962" d="M314.7 262h21.2L315 241.3a7.5 7.5 0 10-10.6 10.6l10.3 10.3z"/>
    <path fill="#EA565C" d="M460 262a69 69 0 0013.9-41.4c0-3-2.4-5.4-5.4-5.4H341.2c-3 0-5.4 2.4-5.4 5.4a69 69 0 0013.9 41.5H460z"/>
    <g fill="#C0272D">
      <path d="M412.6 262V257a7.5 7.5 0 10-15 0v5.2h15zM427 262h11.7c2.4-2.9 2.2-7.2-.5-10l-7.3-7.3a7.5 7.5 0 10-10.6 10.6l6.7 6.8zM382 262l6.8-6.7a7.5 7.5 0 10-10.6-10.6l-7.3 7.3a7.5 7.5 0 00-.5 10H382zM370.5 241.9h-10.3a7.5 7.5 0 110-15h10.3a7.5 7.5 0 110 15zM449.5 241.9h-10.3a7.5 7.5 0 010-15h10.3a7.5 7.5 0 110 15z"/>
    </g>
    <path fill="#3F3D56" d="M224.4 313.8a1 1 0 001-.2c.2-.2.3-.4.3-.8v-12.7a6.5 6.5 0 0113 0v12.7a1 1 0 001.3 1 67.4 67.4 0 0118-2.3c18.1 0 30.4 6 30.4 11.5 0 .7-.3 1.4-.7 2.2a1 1 0 00.5 1.4 69.3 69.3 0 0143.1 53.2 1 1 0 001.4.8l157.8-60a26.7 26.7 0 0135.9 20l1.3 7.5a1 1 0 001.5.6l53.1-31.3a186 186 0 006.9-50.4c0-2.9-2.3-5.2-5.2-5.2H223a5.2 5.2 0 00-5.2 5.2c0 16 2 31.5 5.8 46.6l1 .2z"/>
    <path fill="#000000" d="M224.4 313.8a1 1 0 001-.2c.2-.2.3-.4.3-.8v-12.7a6.5 6.5 0 0113 0v12.7a1 1 0 001.3 1 65 65 0 0115.2-2.2 186.7 186.7 0 01-5.4-44.6c0-2.9 2.3-5.2 5.2-5.2h-32.1a5.2 5.2 0 00-5.2 5.2c0 16 2 31.5 5.8 46.6l1 .2z" opacity=".1"/>
    <path fill="#89C947" d="M232.2 317.4c2-1.2 4.6-2.2 7.5-3v-14.3a7.5 7.5 0 10-15 0v14.3c3 .8 5.5 1.8 7.5 3z"/>
    <path fill="#EA565C" d="M308.8 456.6h-27c-13 0-24-9.2-26.4-21.8l-.2-1.5a26.6 26.6 0 0116.7-29.7l60.6-23a70 70 0 00-44.8-55.3c-2.4 3.9-10.4 7.3-21 8.6a1 1 0 00-.4 1.7c5.4 4.4 8.8 9 9 12.3.2 1.2-.1 2.2-.8 3-1.3 1.4-3.8 2.2-7.3 2.2a55 55 0 01-24.4-7.6 61.6 61.6 0 01-10.6-7 55 55 0 01-35 14.6c-3.5 0-6-.8-7.3-2.2-.7-.8-1-1.8-.9-3 .3-3.3 3.7-8 9.2-12.3a1 1 0 00-.5-1.7c-10.5-1.3-18.6-4.7-21-8.6a69.1 69.1 0 00-45.2 63.3c0 38 33.5 69 75 69h104c1 0 .2-.4-1.7-1z"/>
    <path fill="#000000" d="M164 388.6a67.2 67.2 0 0130-55.3c-8.7-1.5-15.2-4.6-17.2-8a69.1 69.1 0 00-45.3 63.3c0 38 33.5 69 75 69h32.4c-41.4 0-75-31-75-69z" opacity=".1"/>
    <path fill="#368C0E" d="M289.4 323c0-6.9-14.1-12.5-31.5-12.5-10.6 0-20 2.1-25.7 5.3-5.7-3.2-15-5.3-25.7-5.3-17.4 0-31.4 5.6-31.4 12.5 0 5.6 9.4 10.3 22.4 11.9-8 6.3-11.6 13-8.3 16.7 4.3 4.8 19 2.5 32.9-5.2 3.9-2.1 7.3-4.5 10.1-6.9 2.8 2.4 6.2 4.8 10.1 7 13.9 7.6 28.6 9.9 33 5 3.2-3.6-.5-10.3-8.4-16.6 13-1.6 22.5-6.3 22.5-12z"/>
    <path fill="#89C947" d="M643.3 367.4l-2-10.9a7 7 0 00-8-5.5l-77.8 14.2 49.7-33.1a6.9 6.9 0 002.1-9.2l-5.6-10a7 7 0 00-9.6-2.5l-64.5 38.2 12.2 65.9 74 13.3a7 7 0 008.1-5.8l1.7-11.2v-2.3a7 7 0 00-5.3-5.5l-58.2-13.3 77.7-14.3a7 7 0 005.5-8z"/>
    <path fill="#FF9233" d="M254.5 435a27.7 27.7 0 0027.2 22.6l234-.1a27.8 27.8 0 0027.3-32.7l-15.7-84.3a27.6 27.6 0 00-37.1-20.8l-218.6 83a27.6 27.6 0 00-17.4 30.8l.3 1.5z"/>
    <path fill="#000000" d="M254.5 435c.3 2 1 3.9 1.7 5.7a28.9 28.9 0 0115-12.9l228.2-86.7a29 29 0 0129 4.9l-1-5.5a27.6 27.6 0 00-37.2-20.8l-218.6 83a27.6 27.6 0 00-17.4 30.8l.3 1.5z" opacity=".1"/>
    <g fill="#FFC502">
      <path d="M502.3 422.4a7.5 7.5 0 00-14.7 2.8l6.1 32.3H509l-6.7-35.1zM461.6 431.3A7.5 7.5 0 00447 434l4.4 23.4h15.3l-5-26.2zM421.9 374.8a7.5 7.5 0 0014.5-3.7l-7-28.3-14.2 5.3 6.7 26.7zM382.9 424.7a7.5 7.5 0 10-14.8 2.7l5.4 30.1h15.3l-6-32.8zM307.2 410.7a7.5 7.5 0 1014.7-3l-4.7-22.3-14.2 5.4 4.2 20z"/>
    </g>
  </g>
</svg>
